<svg width="33" height="33" viewBox="0 0 33 33" fill="none" xmlns="http://www.w3.org/2000/svg">
<g clip-path="url(#clip0_4976_19339)">
<path d="M16.4953 1.67635C16.1221 1.74334 15.9115 1.82947 15.7584 2.01131C15.4617 2.3367 15.4809 2.54725 15.8254 2.91092C16.1029 3.2076 16.1221 3.2076 16.658 3.13104C17.5959 2.99705 19.175 3.05447 19.6535 3.23631C20.2852 3.47556 20.7732 3.83924 21.2326 4.44217C21.5484 4.85369 21.7398 5.00682 22.1131 5.13123C24.3908 5.92557 25.5201 8.13631 25.099 10.9691L24.9937 11.6773L24.2377 11.6678L23.4816 11.6582L23.2137 11.2849C23.0701 11.0744 22.6777 10.3662 22.3332 9.71541C21.9887 9.05506 21.6346 8.48084 21.5484 8.42342C21.4336 8.35643 21.0986 8.38514 20.3521 8.53826C18.1701 8.99764 17.6725 9.0742 16.4953 9.0742C15.4713 9.08377 15.0406 9.02635 13.452 8.70096C12.0738 8.42342 11.5666 8.35643 11.4422 8.42342C11.3561 8.48084 11.0211 9.04549 10.7053 9.66756C10.3895 10.2896 9.99707 10.9978 9.83438 11.2371L9.52813 11.6773L8.73379 11.6678L7.93945 11.6582L7.86289 11.3328C7.81504 11.151 7.77676 10.5863 7.77676 10.0887C7.76719 8.93064 8.07344 7.92576 8.70508 6.9783C9.09746 6.39451 9.14531 6.27967 9.08789 5.93514C9.05918 5.71502 9.01133 5.34178 8.97305 5.09295C8.93477 4.81541 8.95391 4.46131 9.03047 4.19334L9.15488 3.75311L9.54727 3.8201C10.9062 4.04021 12.5332 4.04021 13.4998 3.81053C13.94 3.70525 14.1984 3.40858 14.1984 2.98748C14.1984 2.70994 14.141 2.5951 13.9496 2.47068C13.7391 2.32713 13.6242 2.31756 12.9734 2.41326C11.9494 2.57596 10.6096 2.55682 9.9875 2.38455C9.70039 2.29842 9.2793 2.21229 9.05918 2.17401C8.68594 2.12615 8.62852 2.14529 8.37012 2.42283C8.20742 2.5951 7.95859 2.97791 7.81504 3.27459C7.56621 3.77225 7.54707 3.9158 7.5375 4.93025C7.5375 5.89686 7.50879 6.08826 7.32695 6.37537C7.01113 6.8826 6.6666 7.70564 6.48477 8.38514C6.26465 9.20818 6.25508 10.9787 6.4752 11.7922L6.63789 12.3855L6.3125 12.8162C5.88184 13.3808 5.73828 13.8306 5.73828 14.6441C5.74785 16.1945 6.88672 17.4291 8.48496 17.6109C8.98262 17.6683 9.04004 17.6971 9.08789 17.9267C9.43242 19.6111 10.198 21.0275 11.3369 22.109L11.8537 22.597L11.2604 22.9512C9.86309 23.7742 8.25527 25.3246 7.22168 26.8271C6.56133 27.8033 6.25508 28.3775 6.25508 28.6646C6.25508 28.9326 6.75273 29.392 7.77676 30.0906C11.825 32.8086 16.9547 33.4785 21.6154 31.8898C23.1275 31.3826 25.4053 30.1002 26.3432 29.2388C26.6303 28.9709 26.7355 28.7986 26.7355 28.5881C26.7355 28.2627 25.9795 26.9898 25.2043 26.0232C24.4578 25.0758 23.0127 23.7646 22.0652 23.1521L21.1943 22.5875L21.9313 21.8123C22.3332 21.3912 22.8117 20.7883 22.9936 20.482C23.3572 19.8791 23.807 18.6828 23.9027 18.0703L23.9697 17.6683L24.5344 17.6109C25.2426 17.5248 26.1613 17.075 26.5441 16.6156C27.0992 15.9457 27.2619 15.4863 27.2619 14.5867C27.2523 13.7349 27.1184 13.3138 26.5824 12.6152L26.3623 12.3185L26.5154 11.4189C26.7068 10.2131 26.6398 8.56697 26.3527 7.64822C25.8168 5.92557 24.6014 4.55701 23.0605 3.93494C22.7256 3.80096 22.4385 3.59041 22.2566 3.37029C21.5771 2.51854 20.5148 1.87733 19.4143 1.67635C18.7635 1.55193 17.2609 1.55193 16.4953 1.67635ZM14.1506 10.2322C15.9785 10.5576 17.4811 10.5289 19.4908 10.1365C20.2182 9.99295 20.8211 9.88768 20.8402 9.90682C20.8498 9.92596 21.0699 10.3279 21.3188 10.7873C21.5676 11.2562 21.9695 11.9166 22.2088 12.2611L22.6395 12.8928L22.5916 15.2471C22.5533 17.8119 22.4768 18.233 21.9408 19.324C20.6201 22.0037 17.4523 23.334 14.6291 22.3865C12.6863 21.7357 11.1072 20.0418 10.6096 18.0799C10.5043 17.6492 10.466 16.941 10.466 15.1418V12.7779L10.9828 11.9836C11.2699 11.5433 11.6432 10.8926 11.8154 10.5385C12.1217 9.91639 12.16 9.88767 12.4279 9.92596C12.5906 9.95467 13.3658 10.0887 14.1506 10.2322ZM9.03047 14.5867C9.03047 16.2615 9.06875 16.1658 8.45625 16.1179C8.09258 16.0988 7.54707 15.6969 7.3748 15.3236C6.88672 14.2996 7.59492 13.065 8.67637 13.0554H9.03047V14.5867ZM25.1756 13.333C26.2762 14.1369 25.9316 15.8213 24.6109 16.1084C23.9506 16.2519 23.9602 16.2711 23.9602 14.5771V13.0554H24.3717C24.6875 13.0554 24.8885 13.132 25.1756 13.333ZM13.7295 25.1523L14.3037 26.5687L13.8922 28.7603L13.4902 30.9615L13.2031 30.8945C11.9016 30.617 10.0066 29.7939 8.71465 28.9517C8.17871 28.5976 7.97773 28.4158 8.01602 28.3105C8.25527 27.6789 9.88223 25.8222 10.8967 25.0183C11.6623 24.4058 12.8682 23.6689 13.0404 23.6976C13.1074 23.7168 13.4232 24.3676 13.7295 25.1523ZM20.7445 24.0613C21.8164 24.6929 22.7926 25.4969 23.7018 26.5304C24.2664 27.1812 25.0129 28.2244 25.0129 28.3775C25.0129 28.5306 23.4338 29.5068 22.4959 29.947C21.5867 30.3681 20.266 30.8179 19.7875 30.8754L19.5195 30.9041L19.1176 28.7508L18.7156 26.5974L19.2898 25.1332C19.6057 24.3388 19.9119 23.6785 19.9693 23.6785C20.0363 23.6785 20.3809 23.8508 20.7445 24.0613ZM16.1604 24.0326C16.7441 24.0613 17.4428 24.0422 17.7203 23.9847C18.084 23.9178 18.218 23.9273 18.218 24.0039C18.218 24.0709 18.0744 24.4824 17.8926 24.9322L17.5672 25.7361L16.524 25.7648L15.4809 25.7935L15.1268 24.9035C14.7248 23.8795 14.7152 23.822 14.9449 23.9178C15.0311 23.956 15.5861 24.0135 16.1604 24.0326ZM17.4811 27.4301C17.682 28.2914 18.1414 31.1529 18.0936 31.2008C18.0266 31.2773 14.9832 31.2869 14.9066 31.2103C14.8779 31.1816 15.0215 30.2724 15.2129 29.191L15.567 27.2195H16.5049C17.3854 27.2195 17.4332 27.2291 17.4811 27.4301Z" fill="#151515"/>
<path d="M13.0469 12.5762C12.8842 12.7389 12.8555 12.892 12.8555 13.6194C12.8555 14.4328 12.865 14.4903 13.1043 14.6721C13.4393 14.9305 13.6689 14.9209 13.9561 14.6338C14.1666 14.4328 14.1953 14.318 14.1953 13.6481C14.1953 13.026 14.157 12.8442 13.9943 12.6336C13.7551 12.3274 13.3244 12.2987 13.0469 12.5762Z" fill="#151515"/>
<path d="M19.0283 12.6243C18.8178 12.8253 18.7891 12.9401 18.7891 13.5239C18.7891 14.3374 18.9039 14.6532 19.2293 14.7776C19.8992 15.036 20.2629 14.5575 20.2055 13.4569C20.1768 12.854 20.1385 12.72 19.9471 12.5669C19.6408 12.318 19.3059 12.3372 19.0283 12.6243Z" fill="#151515"/>
<path d="M15.2931 15.1032C13.3886 15.5722 12.355 17.1704 12.6134 19.228C12.7091 20.0606 12.9292 20.2329 13.8863 20.2329C14.7667 20.2329 15.5132 20.0319 16.0874 19.6491L16.4894 19.3812L16.9488 19.6683C17.5804 20.0702 18.212 20.2329 19.1212 20.2329C20.0591 20.2329 20.2697 20.0894 20.3749 19.4099C20.6238 17.6968 20.0208 16.2421 18.7384 15.4956C17.9058 15.0075 16.3745 14.8353 15.2931 15.1032ZM17.8675 16.6249C18.6331 16.979 19.0734 17.6872 19.0734 18.5772C19.0734 18.8452 19.0351 18.8931 18.8533 18.8931C18.3077 18.8931 17.724 18.5868 17.2837 18.07C16.9488 17.6776 16.7669 17.5532 16.5755 17.5532C16.1831 17.5532 16.03 17.6394 15.8099 17.9935C15.5515 18.4241 14.8911 18.8069 14.3648 18.8261L13.9533 18.8452L13.982 18.3667C14.0394 17.381 14.5945 16.7206 15.6089 16.4335C16.2501 16.2612 17.2454 16.3378 17.8675 16.6249Z" fill="#151515"/>
<path d="M15.2008 2.69033C14.3778 2.88174 14.3108 2.91045 14.2629 3.18799C14.1385 3.81006 13.6983 3.96318 11.8512 4.03018C10.8751 4.05889 10.3391 4.03975 9.87018 3.93447L9.22897 3.80049L9.11412 4.12588C9.00885 4.4417 9.03756 5.1499 9.18111 5.99209C9.22897 6.29834 9.19068 6.41318 8.894 6.82471C8.43463 7.45635 8.0901 8.2124 7.9274 9.00674C7.75514 9.7915 7.75514 10.2126 7.88912 11.0069L7.9944 11.6003H8.75045H9.5065L9.86061 11.0644C10.052 10.7677 10.4253 10.069 10.6932 9.52354C11.3536 8.17412 11.344 8.17412 12.7891 8.48994C16.0335 9.19814 16.8852 9.19814 19.9573 8.54736C21.6704 8.18369 21.6895 8.19326 22.1872 9.28428C22.369 9.68623 22.7327 10.3657 23.0006 10.806L23.4887 11.6099H24.1969C24.7616 11.6099 24.9147 11.5716 24.9626 11.4472C25.0965 11.1026 25.1253 9.3417 25.02 8.70049C24.886 7.91572 24.4936 7.04482 24.0055 6.48018C23.5844 5.98252 22.6465 5.36045 22.0723 5.20732C21.7182 5.10205 21.5555 4.96807 21.1249 4.43213C20.7133 3.91533 20.4837 3.72393 19.9669 3.46553C19.3448 3.15928 19.2778 3.14971 18.1676 3.14971C17.536 3.14971 16.7799 3.16885 16.4928 3.18799C16.0143 3.2167 15.9569 3.20713 15.7272 2.92002C15.5837 2.75732 15.4592 2.63291 15.4305 2.63291C15.4114 2.64248 15.3061 2.66162 15.2008 2.69033Z" fill="#F69D70"/>
<path d="M15.441 16.567C14.5701 16.8732 14.149 17.3996 14.0342 18.3279C13.9768 18.7969 13.9768 18.7969 14.2543 18.7969C14.7233 18.7969 15.4889 18.3758 15.7186 17.993C16.1684 17.2656 16.6278 17.2656 17.2785 17.9738C17.7475 18.4906 18.293 18.7969 18.7428 18.7969C18.9533 18.7969 18.9821 18.749 18.9821 18.4811C18.9821 17.2082 17.9963 16.3947 16.4555 16.4043C16.1301 16.4139 15.6803 16.4809 15.441 16.567Z" fill="#EC966B"/>
<path d="M8.30093 13.1598C7.88941 13.2842 7.4396 13.7532 7.31519 14.1838C7.22906 14.5092 7.23863 14.5571 7.47788 14.7485C7.77456 14.9877 8.43491 15.1887 8.76031 15.1408C8.98999 15.1121 8.98999 15.093 8.98999 14.1073C8.98999 12.9875 8.97085 12.9588 8.30093 13.1598Z" fill="#ECC196"/>
<path d="M24.1217 13.1121C24.0834 13.1504 24.0547 13.6289 24.0547 14.1744V15.1602H24.3322C24.6863 15.1602 25.385 14.9113 25.6146 14.7008C25.9305 14.4137 25.5859 13.5906 25.0309 13.3035C24.6959 13.1312 24.2078 13.0355 24.1217 13.1121Z" fill="#ECC196"/>
<path d="M21.283 19.6581C20.5939 20.3567 20.326 20.5577 19.5604 20.9405C18.3832 21.5147 17.5219 21.6966 16.2107 21.6391C14.3924 21.5626 12.9951 20.9405 11.684 19.6294L10.9375 18.8829L11.1959 19.3901C11.7318 20.4524 12.7367 21.4477 13.8373 22.0028C16.4117 23.2852 19.6943 22.5005 21.3213 20.2036C21.6754 19.7059 22.2113 18.768 22.1252 18.8063C22.1061 18.8159 21.7328 19.1987 21.283 19.6581Z" fill="#ECC196"/>
<path d="M33.2969 31.5445L32.5312 32.3389L33.3256 31.5732C34.0529 30.865 34.1582 30.7598 34.0816 30.7598C34.0721 30.7598 33.718 31.1139 33.2969 31.5445Z" fill="#ECC196"/>
<path d="M3.5332 32.8844L2.48047 33.9658L3.56191 32.9131C4.1457 32.3389 4.63379 31.8508 4.63379 31.8412C4.63379 31.7646 4.50938 31.8891 3.5332 32.8844Z" fill="#ECC196"/>
<path d="M11.8469 10.6523C11.6459 11.0542 11.2535 11.7241 10.976 12.1357L10.4688 12.8917V14.7866C10.4688 16.8634 10.5836 17.9544 10.8516 18.5765C11.0908 19.122 12.2775 20.2896 13.0527 20.7394C14.0193 21.2944 15.0338 21.5911 16.2109 21.639C17.5221 21.6964 18.3834 21.5241 19.5605 20.9403C20.3166 20.5671 20.6037 20.347 21.2832 19.6675C22.4412 18.5095 22.4604 18.4521 22.5082 15.3417L22.5465 12.8917L22.0201 12.0878C21.733 11.6476 21.3406 10.9776 21.1588 10.6044L20.8143 9.91535L20.0199 10.0876C17.4934 10.6523 15.9621 10.681 13.5695 10.2025L12.2201 9.93449L11.8469 10.6523ZM14.0289 12.5759C14.3064 12.863 14.316 12.8821 14.2873 13.6669C14.2586 14.289 14.2107 14.5187 14.0672 14.6718C13.8184 14.9398 13.2824 14.9398 12.9857 14.6622C12.7848 14.4804 12.7656 14.3655 12.7656 13.6286C12.7656 12.7864 12.8326 12.6046 13.1963 12.4036C13.5121 12.2314 13.7227 12.2696 14.0289 12.5759ZM20.0678 12.5855C20.1922 12.7482 20.2305 12.9683 20.2305 13.6382C20.2305 14.6335 20.0869 14.8728 19.5127 14.8728C18.9289 14.8728 18.7949 14.6335 18.7949 13.5903C18.7949 12.7194 18.8045 12.6812 19.0533 12.4802C19.3691 12.2314 19.8094 12.2792 20.0678 12.5855ZM17.6273 15.0163C19.6084 15.4853 20.6324 16.8921 20.4889 18.9593C20.4027 20.1364 20.2113 20.3278 19.0916 20.3278C18.3355 20.3278 17.3785 20.0599 16.8617 19.7058L16.5172 19.4665L15.9717 19.8015C15.3113 20.1939 14.584 20.3566 13.6939 20.3087C12.8039 20.2609 12.6221 20.0599 12.5359 19.0646C12.3445 17.0261 13.359 15.5427 15.2539 15.045C16.0291 14.8441 16.8426 14.8345 17.6273 15.0163Z" fill="#ECC1C1"/>
<path d="M12.624 23.9456C11.6191 24.5007 10.9684 24.9983 10.0305 25.9267C9.20742 26.7401 8.07812 28.1565 8.07812 28.3671C8.07812 28.4819 9.56152 29.4007 10.375 29.8026C11.2268 30.2142 13.3035 30.9224 13.3992 30.8267C13.4566 30.7692 14.2031 26.8837 14.2031 26.6444C14.2031 26.5679 13.9543 25.8692 13.648 25.094L13.1025 23.6872L12.624 23.9456Z" fill="#BDC78C"/>
<path d="M19.8609 23.8885C19.8131 24.0033 19.5547 24.6637 19.2867 25.3336L18.7891 26.5682L19.1814 28.6832C19.4016 29.8508 19.593 30.827 19.6217 30.8461C19.6982 30.9227 21.842 30.1762 22.6268 29.8029C23.4402 29.401 24.9236 28.4822 24.9236 28.3674C24.9236 28.2238 24.1484 27.1232 23.6221 26.5299C22.7129 25.4963 21.6984 24.6732 20.4064 23.9268L19.9471 23.6588L19.8609 23.8885Z" fill="#BDC78C"/>
</g>
<defs>
<clipPath id="clip0_4976_19339">
<rect width="33" height="33" fill="white"/>
</clipPath>
</defs>
</svg>
