<svg width="199" height="44" viewBox="0 0 199 44" fill="none" xmlns="http://www.w3.org/2000/svg">
<rect x="0.5" y="0.5" width="198" height="42.4182" rx="4.5" fill="#005B94" stroke="white"/>
<g filter="url(#filter0_d_4777_8463)">
<path d="M21.4022 7.4571C20.1235 7.79144 19.0383 8.90005 18.7392 10.1788C18.6747 10.4486 18.6453 10.8768 18.6453 11.6276V12.701H18.135C17.7244 12.701 17.5778 12.7245 17.4253 12.8183C17.1496 12.9884 17.0029 13.2641 17.0029 13.6102C17.0029 14.2202 17.3901 14.5135 18.1937 14.5194H18.6453V15.804V17.0885L18.0529 17.112L17.4663 17.1296L17.2317 17.376C17.0205 17.6047 17.0029 17.6516 17.0029 17.9567C17.0029 18.6077 17.3079 18.8658 18.135 18.9069L18.6453 18.9304V20.2149V21.4995H18.1057C17.5074 21.4995 17.3255 21.5699 17.1144 21.8867C16.9619 22.1154 16.9619 22.6433 17.1144 22.8721C17.3255 23.1888 17.5074 23.2592 18.1057 23.2592H18.6453V24.5438V25.8284L18.1291 25.8519C17.3021 25.8929 17.0029 26.1393 17.0029 26.7904C17.0029 27.0602 17.0323 27.154 17.1554 27.3065C17.3959 27.594 17.5836 27.6585 18.1467 27.6585H18.6453V28.9489V30.2394H18.1937C17.3901 30.2452 17.0029 30.5385 17.0029 31.1486C17.0029 31.4946 17.1496 31.7703 17.4253 31.9404C17.5778 32.0343 17.7244 32.0577 18.135 32.0577H18.6453V33.1253C18.6453 34.3571 18.7099 34.7266 19.0442 35.4012C19.3433 36.0112 20.0296 36.6975 20.6397 36.9966C21.1558 37.2547 21.672 37.3955 22.0592 37.3955H22.3407V22.3794V7.36325L22.0357 7.36911C21.8656 7.36911 21.5782 7.41017 21.4022 7.4571Z" fill="#DCE9B0"/>
<path d="M24.0422 22.3794V37.3955H30.1132H36.1842L35.7384 36.9732C34.5712 35.8646 33.8614 34.5448 33.4625 32.744L33.4273 32.5857H31.1808C29.1219 32.5857 28.9225 32.5739 28.6996 32.4742C28.4298 32.351 28.2421 32.1223 28.1834 31.8407C28.1248 31.5768 28.3183 31.1544 28.5706 31.0019C28.7583 30.8905 28.858 30.8846 31.0576 30.8846H33.357L33.4215 30.3978C33.486 29.9578 33.6151 29.3713 33.6972 29.1601C33.7265 29.0838 33.486 29.0721 31.8905 29.0545C29.8375 29.0369 29.8023 29.0311 29.556 28.6263C29.4504 28.4562 29.4328 28.3565 29.4504 28.116C29.4797 27.8521 29.5149 27.7817 29.7202 27.5881L29.9607 27.3652L32.2366 27.3593H34.5125L34.8938 26.8314C36.0259 25.2653 37.8853 24.1332 39.8327 23.8165C40.1318 23.7695 40.5307 23.7285 40.7184 23.7285H41.0528L41.041 15.7922C41.0234 7.96741 41.0234 7.86183 40.9061 7.70345C40.6304 7.33978 41.2815 7.36325 32.2601 7.36325H24.0422V22.3794ZM36.4775 13.3345C36.589 13.3873 36.7415 13.5222 36.8119 13.6337C36.9468 13.8331 36.9468 13.8448 36.9468 16.0268V18.2206L36.718 18.467L36.4834 18.7133L32.6531 18.7309C28.3007 18.7485 28.5354 18.772 28.2831 18.2734C28.1482 18.0212 28.1482 17.9743 28.1482 16.0093C28.1482 13.9269 28.16 13.792 28.4004 13.5281C28.6761 13.2289 28.6233 13.2348 32.5768 13.2289C35.9789 13.2289 36.2898 13.2348 36.4775 13.3345Z" fill="#DCE9B0"/>
<path d="M29.8491 15.9871V17.043H32.5473H35.2456V15.9871V14.9313H32.5473H29.8491V15.9871Z" fill="#DCE9B0"/>
<path d="M39.8203 25.5453C37.5678 26.0263 35.8668 27.6511 35.2274 29.9328C35.1218 30.32 35.1042 30.537 35.1042 31.4403C35.1042 32.414 35.116 32.5372 35.2626 33.0241C35.7847 34.7603 36.9109 36.0918 38.4888 36.8367C39.3217 37.2356 39.8085 37.3471 40.8468 37.3764C41.5741 37.3998 41.8263 37.3823 42.2897 37.2884C44.4542 36.8426 46.1669 35.2589 46.8356 33.0827C46.994 32.5841 46.9999 32.4903 46.9999 31.4403C46.9999 30.1499 46.9295 29.7921 46.4778 28.8477C45.6449 27.0821 44.0846 25.8855 42.1489 25.516C41.5213 25.3987 40.4479 25.4104 39.8203 25.5453ZM41.3688 28.1497C41.4744 28.1966 41.6386 28.3315 41.7325 28.4547C41.9026 28.6717 41.9026 28.6776 41.9202 29.6278L41.9436 30.5781L42.5537 30.6015L43.1637 30.6191L43.3749 30.8303C43.7737 31.2292 43.7034 31.8333 43.2282 32.1325C43.0288 32.2556 42.9525 32.2615 41.9319 32.2615C40.9172 32.2615 40.835 32.2556 40.6415 32.1325C40.2426 31.8861 40.2309 31.8333 40.2309 30.1616C40.2309 28.7128 40.2367 28.6659 40.3658 28.4782C40.5066 28.2611 40.8292 28.0676 41.0403 28.0676C41.1107 28.0676 41.2632 28.1027 41.3688 28.1497Z" fill="white"/>
</g>
<g filter="url(#filter1_d_4777_8463)">
<path d="M72.3966 29.4727H68.6423L67.9653 27.298H63.4724L62.7543 29.4727H59L64.3135 14.8656H67.0831L72.3966 29.4727ZM67.0215 24.3028L65.7906 20.4048L64.4776 24.3028H67.0215ZM82.6404 28.6726C82.6404 31.278 80.6709 33.1654 77.6551 33.1654C75.9318 33.1654 74.6394 32.8577 73.511 31.7294L75.6036 29.6368C76.1165 30.1497 76.7319 30.3343 77.491 30.3343C78.9066 30.3343 79.2759 29.3701 79.2759 28.652V27.8519C78.6604 28.4674 77.9218 28.7751 76.8961 28.7751C75.8293 28.7751 74.9471 28.4264 74.3111 27.7904C73.3059 26.7851 73.2853 25.5542 73.2853 23.5437C73.2853 21.5332 73.3059 20.3022 74.3111 19.297C74.9471 18.661 75.8498 18.3122 76.9166 18.3122C78.0449 18.3122 78.7014 18.661 79.3784 19.338V18.4353H82.6404V28.6726ZM79.2759 23.5437C79.2759 22.4153 79.1938 21.3485 77.9629 21.3485C76.7319 21.3485 76.6499 22.4153 76.6499 23.5437C76.6499 24.672 76.7319 25.7388 77.9629 25.7388C79.1938 25.7388 79.2759 24.672 79.2759 23.5437ZM94.5916 25.0413H87.9856C87.9856 25.944 88.6832 26.7646 89.9346 26.7646C91.104 26.7646 91.6169 26.4364 92.2118 25.8414L94.2223 27.8519C93.094 28.9803 91.9861 29.5957 89.9346 29.5957C87.4933 29.5957 84.6826 28.7136 84.6826 23.954C84.6826 20.3433 86.7342 18.3122 89.6269 18.3122C92.8273 18.3122 94.5916 20.651 94.5916 23.5437V25.0413ZM91.2681 22.8051C91.2681 22.5384 91.2271 22.2307 91.0835 21.9435C90.8783 21.4716 90.427 21.0818 89.6269 21.0818C88.8268 21.0818 88.3754 21.4716 88.1703 21.9435C88.0267 22.2307 87.9856 22.5384 87.9856 22.8051H91.2681ZM106.072 29.4727H102.707V22.8667C102.707 21.5947 101.805 21.3485 101.353 21.3485C100.902 21.3485 99.9994 21.5947 99.9994 22.8667V29.4727H96.6348V18.4353H99.9173V19.338C100.594 18.661 101.6 18.3122 102.482 18.3122C103.528 18.3122 104.369 18.661 104.964 19.256C105.908 20.1997 106.072 21.246 106.072 22.4153V29.4727ZM117.645 29.4727H114.383V28.57C113.706 29.247 112.988 29.5957 111.839 29.5957C110.772 29.5957 109.787 29.2265 109.151 28.5905C108.064 27.5032 108.126 25.5747 108.126 23.954C108.126 22.3333 108.064 20.4048 109.151 19.3175C109.787 18.6815 110.752 18.3122 111.818 18.3122C112.906 18.3122 113.665 18.62 114.28 19.2354V14.8656H117.645V29.4727ZM114.28 23.954C114.28 22.3538 114.137 21.3485 112.885 21.3485C111.634 21.3485 111.49 22.3538 111.49 23.954C111.49 25.5542 111.634 26.5595 112.885 26.5595C114.137 26.5595 114.28 25.5542 114.28 23.954ZM128.833 29.4727H125.55V28.57C124.873 29.247 124.258 29.5752 123.088 29.5752C121.98 29.5752 121.057 29.206 120.442 28.5905C119.806 27.9545 119.478 27.0313 119.478 26.0055C119.478 24.3438 120.606 22.8051 123.232 22.8051H125.468V22.5179C125.468 21.5127 124.976 21.1434 123.806 21.1434C122.945 21.1434 122.575 21.3485 122.042 21.8819L119.949 19.7894C121.078 18.661 122.103 18.3122 123.97 18.3122C127.13 18.3122 128.833 19.6252 128.833 22.3128V29.4727ZM125.468 25.3285V25.0413H123.765C123.109 25.0413 122.698 25.4106 122.698 25.9235C122.698 26.4159 123.068 26.8467 123.806 26.8467C124.463 26.8467 124.77 26.7851 125.14 26.4364C125.386 26.2107 125.468 25.8619 125.468 25.3285ZM146.862 25.1644C146.862 27.9545 144.913 29.4727 142.307 29.4727H135.948V14.8656H142C145.036 14.8656 146.657 16.5684 146.657 19.0918C146.657 20.7536 145.508 21.6768 145.056 21.9845C145.651 22.3538 146.862 23.1129 146.862 25.1644ZM143.272 24.9593C143.272 24.3438 142.943 23.6873 141.959 23.6873H139.538V26.2517H141.959C142.943 26.2517 143.272 25.5747 143.272 24.9593ZM143.066 19.2765C143.066 18.702 142.759 18.0866 141.774 18.0866H139.538V20.4664H141.774C142.759 20.4664 143.066 19.8509 143.066 19.2765ZM158.275 23.954C158.275 26.1286 157.988 27.1749 157.065 28.1802C156.408 28.8777 155.3 29.5957 153.515 29.5957C151.731 29.5957 150.623 28.8777 149.966 28.1802C149.043 27.1749 148.756 26.1286 148.756 23.954C148.756 21.7999 149.043 20.7331 149.966 19.7278C150.623 19.0303 151.731 18.3122 153.515 18.3122C155.3 18.3122 156.408 19.0303 157.065 19.7278C157.988 20.7331 158.275 21.7999 158.275 23.954ZM154.91 23.954C154.91 22.8667 154.849 22.0871 154.418 21.6563C154.213 21.4511 153.926 21.3485 153.515 21.3485C153.105 21.3485 152.818 21.4511 152.613 21.6563C152.182 22.0871 152.12 22.8667 152.12 23.954C152.12 25.0413 152.182 25.8209 152.613 26.2517C152.818 26.4569 153.105 26.5595 153.515 26.5595C153.926 26.5595 154.213 26.4569 154.418 26.2517C154.849 25.8209 154.91 25.0413 154.91 23.954ZM169.554 23.954C169.554 26.1286 169.267 27.1749 168.344 28.1802C167.688 28.8777 166.58 29.5957 164.795 29.5957C163.01 29.5957 161.902 28.8777 161.246 28.1802C160.323 27.1749 160.035 26.1286 160.035 23.954C160.035 21.7999 160.323 20.7331 161.246 19.7278C161.902 19.0303 163.01 18.3122 164.795 18.3122C166.58 18.3122 167.688 19.0303 168.344 19.7278C169.267 20.7331 169.554 21.7999 169.554 23.954ZM166.19 23.954C166.19 22.8667 166.128 22.0871 165.698 21.6563C165.492 21.4511 165.205 21.3485 164.795 21.3485C164.385 21.3485 164.097 21.4511 163.892 21.6563C163.461 22.0871 163.4 22.8667 163.4 23.954C163.4 25.0413 163.461 25.8209 163.892 26.2517C164.097 26.4569 164.385 26.5595 164.795 26.5595C165.205 26.5595 165.492 26.4569 165.698 26.2517C166.128 25.8209 166.19 25.0413 166.19 23.954ZM182.188 29.4727H178.023L175.726 25.4311L175.069 26.1492V29.4727H171.705V14.8656H175.069V22.2922L178.044 18.4353H182.085L178.023 23.0103L182.188 29.4727Z" fill="url(#paint0_linear_4777_8463)"/>
</g>
<defs>
<filter id="filter0_d_4777_8463" x="13" y="5.36328" width="38" height="38.0322" filterUnits="userSpaceOnUse" color-interpolation-filters="sRGB">
<feFlood flood-opacity="0" result="BackgroundImageFix"/>
<feColorMatrix in="SourceAlpha" type="matrix" values="0 0 0 0 0 0 0 0 0 0 0 0 0 0 0 0 0 0 127 0" result="hardAlpha"/>
<feOffset dy="2"/>
<feGaussianBlur stdDeviation="2"/>
<feComposite in2="hardAlpha" operator="out"/>
<feColorMatrix type="matrix" values="0 0 0 0 0 0 0 0 0 0 0 0 0 0 0 0 0 0 0.25 0"/>
<feBlend mode="normal" in2="BackgroundImageFix" result="effect1_dropShadow_4777_8463"/>
<feBlend mode="normal" in="SourceGraphic" in2="effect1_dropShadow_4777_8463" result="shape"/>
</filter>
<filter id="filter1_d_4777_8463" x="57" y="12.8652" width="127.188" height="22.2998" filterUnits="userSpaceOnUse" color-interpolation-filters="sRGB">
<feFlood flood-opacity="0" result="BackgroundImageFix"/>
<feColorMatrix in="SourceAlpha" type="matrix" values="0 0 0 0 0 0 0 0 0 0 0 0 0 0 0 0 0 0 127 0" result="hardAlpha"/>
<feOffset/>
<feGaussianBlur stdDeviation="1"/>
<feComposite in2="hardAlpha" operator="out"/>
<feColorMatrix type="matrix" values="0 0 0 0 0 0 0 0 0 0 0 0 0 0 0 0 0 0 0.35 0"/>
<feBlend mode="normal" in2="BackgroundImageFix" result="effect1_dropShadow_4777_8463"/>
<feBlend mode="normal" in="SourceGraphic" in2="effect1_dropShadow_4777_8463" result="shape"/>
</filter>
<linearGradient id="paint0_linear_4777_8463" x1="59" y1="21.9727" x2="183" y2="21.9727" gradientUnits="userSpaceOnUse">
<stop stop-color="#DCE9B0"/>
<stop offset="1" stop-color="white"/>
</linearGradient>
</defs>
</svg>
