<svg width="16" height="22" viewBox="0 0 16 22" fill="none" xmlns="http://www.w3.org/2000/svg">
<path d="M3.58789 2.43204C1.67578 3.39024 0.0816406 4.20665 0.0558594 4.24532C0.0128906 4.29688 0 6.0629 0 12.7273C0 21.0848 0 21.1406 0.0859375 21.2266C0.171875 21.3125 0.227734 21.3125 7.5625 21.3125C14.8973 21.3125 14.9531 21.3125 15.0391 21.2266C15.125 21.1406 15.125 21.0848 15.125 13.75C15.125 6.41524 15.125 6.35938 15.0391 6.27345C14.9574 6.1918 14.8973 6.18751 14.0078 6.18751H13.0625V5.2422C13.0625 4.35274 13.0582 4.29259 12.9766 4.21095C12.8906 4.12501 12.8348 4.12501 10.2266 4.12501H7.5625V2.4922C7.5625 0.915245 7.5582 0.855089 7.47656 0.773449C7.2875 0.584385 7.27031 0.592979 3.58789 2.43204ZM6.86641 8.76993L6.85352 15.907L3.80273 17.1273C2.12695 17.7977 0.739062 18.3477 0.721875 18.3477C0.700391 18.3477 0.6875 15.2797 0.6875 11.5242V4.70509L3.75117 3.1711C5.43125 2.32892 6.82344 1.63712 6.84492 1.63712C6.86211 1.63282 6.8707 4.84259 6.86641 8.76993ZM12.375 11.6875V18.5625H7.29609L2.21289 18.5582L4.83398 17.5098C6.27773 16.9297 7.48086 16.4227 7.51094 16.384C7.54961 16.3281 7.5625 15.0949 7.5625 10.5617V4.81251H9.96875H12.375V11.6875ZM14.4375 13.75V20.625H7.5625H0.6875V20.4531V20.2813H6.78906C12.8348 20.2813 12.8906 20.2813 12.9766 20.1953C13.0926 20.0793 13.0926 19.7957 12.9766 19.6797C12.8906 19.5938 12.8348 19.5938 6.78906 19.5938H0.6875V19.4219V19.25H6.78906C12.8348 19.25 12.8906 19.25 12.9766 19.1641C13.0625 19.0781 13.0625 19.0223 13.0625 12.9766V6.87501H13.75H14.4375V13.75Z" fill="#005B94"/>
<path d="M3.58789 6.47065C2.23867 7.19253 1.11289 7.81128 1.08711 7.84995C1.04414 7.90581 1.03125 8.36558 1.03125 9.80503C1.03125 11.6312 1.03555 11.6914 1.11719 11.773C1.31055 11.9664 1.36211 11.9406 3.94883 10.557C5.28516 9.8437 6.41523 9.22495 6.45391 9.18198C6.52695 9.11323 6.53125 8.97144 6.53125 7.21831C6.53125 5.38354 6.52695 5.32339 6.44531 5.24175C6.25195 5.04839 6.19609 5.07417 3.58789 6.47065ZM5.84375 7.40308V8.70073L4.18086 9.59448C3.26133 10.0843 2.3332 10.5828 2.11836 10.6988L1.71875 10.9136V9.61167V8.31401L3.77266 7.20972C4.89844 6.60386 5.82656 6.10542 5.83516 6.10542C5.83945 6.10112 5.84375 6.6855 5.84375 7.40308Z" fill="#005B94"/>
<path d="M3.5879 8.2759C2.81016 8.66691 2.14415 9.01926 2.11836 9.05793C2.03243 9.16535 2.04961 9.44035 2.14844 9.53918C2.32032 9.71105 2.45352 9.66808 3.9918 8.89894C4.79102 8.49504 5.45704 8.1384 5.47423 8.09973C5.53008 7.95363 5.50001 7.73449 5.41407 7.64855C5.2379 7.47238 5.0961 7.52394 3.5879 8.2759Z" fill="#005B94"/>
<path d="M8.67969 6.96094C8.59805 7.04258 8.59375 7.10273 8.59375 9.02344V11H8.33594C8.01367 11 7.90625 11.0859 7.90625 11.3438C7.90625 11.5027 7.96641 11.5844 8.76992 12.5555C9.24688 13.1312 9.67227 13.634 9.71953 13.677C9.77109 13.7199 9.87422 13.75 9.96875 13.75C10.0633 13.75 10.1664 13.7199 10.218 13.677C10.2652 13.634 10.6906 13.1312 11.1676 12.5555C11.9711 11.5844 12.0312 11.5027 12.0312 11.3438C12.0312 11.0859 11.9238 11 11.6016 11H11.3438V9.02344C11.3438 7.10273 11.3395 7.04258 11.2578 6.96094C11.1762 6.8793 11.116 6.875 9.96875 6.875C8.82148 6.875 8.76133 6.8793 8.67969 6.96094ZM10.6562 9.53906C10.6562 11.4598 10.6605 11.5199 10.7422 11.6016C10.7895 11.6488 10.8496 11.6875 10.8711 11.6875C10.8969 11.6875 10.7121 11.9324 10.4586 12.2332C10.2051 12.5383 9.98594 12.7832 9.96875 12.7832C9.95156 12.7832 9.73242 12.5383 9.47891 12.2332C9.22539 11.9324 9.04062 11.6875 9.06641 11.6875C9.08789 11.6875 9.14805 11.6488 9.19531 11.6016C9.27695 11.5199 9.28125 11.4598 9.28125 9.53906V7.5625H9.96875H10.6562V9.53906Z" fill="#005B94"/>
<path d="M7.99219 13.1484C7.91055 13.2301 7.90625 13.2902 7.90625 14.0938C7.90625 14.8973 7.91055 14.9574 7.99219 15.0391C8.07383 15.1207 8.13398 15.125 9.96875 15.125C11.8035 15.125 11.8637 15.1207 11.9453 15.0391C12.027 14.9574 12.0312 14.8973 12.0312 14.0938C12.0312 13.2902 12.027 13.2301 11.9453 13.1484C11.8895 13.0926 11.8035 13.0625 11.6875 13.0625C11.5715 13.0625 11.4855 13.0926 11.4297 13.1484C11.3523 13.2258 11.3438 13.2902 11.3438 13.8359V14.4375H9.96875H8.59375V13.8359C8.59375 13.2902 8.58516 13.2258 8.50781 13.1484C8.45195 13.0926 8.36602 13.0625 8.25 13.0625C8.13398 13.0625 8.04805 13.0926 7.99219 13.1484Z" fill="#005B94"/>
</svg>
