<svg width="60" height="60" viewBox="0 0 60 60" fill="none" xmlns="http://www.w3.org/2000/svg">
<path fill-rule="evenodd" clip-rule="evenodd" d="M29.3565 0.071385C28.7296 0.27865 28.1961 0.729022 27.8945 1.30548C27.714 1.65066 27.7017 1.71487 27.7017 2.31736C27.7017 2.8839 27.7209 3.00092 27.8617 3.29763C28.3137 4.24972 29.3775 4.82673 30.3524 4.64856C31.1524 4.50244 31.7983 4.01384 32.1383 3.29763C32.2791 3.00092 32.2983 2.8839 32.2983 2.31736C32.2983 1.71487 32.286 1.65066 32.1055 1.30548C31.8668 0.84935 31.3946 0.399346 30.9327 0.187731C30.5148 -0.00372806 29.7534 -0.0599096 29.3565 0.071385ZM25.5001 5.26288C24.8363 5.88364 24.2689 6.7883 24.0622 7.55567L23.9962 7.80074L22.8956 8.15847C21.6384 8.56712 20.3709 9.10045 19.258 9.68904L18.4894 10.0956L17.9781 9.85685C17.6969 9.72549 17.3013 9.57563 17.0991 9.52368C16.6106 9.39833 15.8193 9.33651 15.3896 9.39018L15.0423 9.43356L15.0818 9.96504C15.1312 10.6273 15.0322 11.3084 14.789 11.9801C14.077 13.9473 12.0803 15.2413 9.979 15.0975L9.41663 15.059L9.37324 15.4061C9.27689 16.1771 9.45867 17.1781 9.84037 17.9786L10.0777 18.4763L9.51034 19.6022C8.86639 20.8799 8.54721 21.6568 8.09724 23.0418L7.78345 24.0076L7.5383 24.0739C6.76927 24.2817 5.86554 24.8481 5.24476 25.5115C4.88114 25.9002 4.86404 25.9312 4.97185 26.0079C5.91058 26.6757 6.52688 27.4879 6.86525 28.5029C7.02049 28.9685 7.02588 29.0309 7.00603 30.1265C6.98574 31.2479 6.98231 31.2734 6.7887 31.7408C6.43042 32.6057 5.92394 33.2868 5.27436 33.7774L4.87961 34.0755L4.99201 34.233C5.15712 34.4644 5.78078 35.0427 6.09806 35.2585C6.47859 35.5174 6.91177 35.7281 7.40029 35.8919C7.7981 36.0252 7.81618 36.04 7.87722 36.2827C8.13371 37.3021 8.89373 39.236 9.51757 40.4565L9.87414 41.1541L9.72956 41.387C9.1591 42.3061 8.97941 42.8628 8.93454 43.8501L8.89998 44.6099L9.16909 44.564C10.7629 44.2925 11.9508 44.5312 13.1154 45.3569C14.4907 46.332 15.2835 48.139 15.0554 49.7785C15.014 50.0763 14.9633 50.4 14.9428 50.498L14.9054 50.6761L15.5732 50.6386C16.3993 50.5922 16.9937 50.4298 17.7017 50.0571L18.243 49.772L18.4372 49.8862C19.8347 50.7082 22.3221 51.7604 23.728 52.1243C23.9695 52.1868 23.9887 52.2088 24.0906 52.5417C24.2195 52.9624 24.4919 53.5258 24.7495 53.904C24.9671 54.2233 25.5447 54.845 25.7791 55.0122L25.9402 55.1271L26.1008 54.8845C26.6491 54.0562 27.7697 53.2971 28.8662 53.0111C29.4396 52.8614 30.5417 52.8614 31.1338 53.0108C32.2693 53.2974 33.2871 54.0134 34.0041 55.0298C34.0801 55.1374 34.1116 55.1201 34.4999 54.757C35.1626 54.1373 35.5946 53.4647 35.8839 52.6022C36.0171 52.2051 36.0325 52.1862 36.2748 52.1239C37.4215 51.8285 39.283 51.0872 40.6494 50.3817L41.5235 49.9303L42.0506 50.1772C42.6607 50.463 43.4986 50.6549 44.142 50.656C44.6377 50.6569 44.6366 50.6582 44.5229 50.1973C44.4122 49.7481 44.4444 48.5923 44.5825 48.0605C45.0032 46.4405 46.1461 45.2133 47.7245 44.6866C48.506 44.4257 49.3699 44.3861 50.4031 44.5637L50.6734 44.6102L50.6354 43.9866C50.5872 43.1952 50.4584 42.6679 50.1613 42.0447L49.9256 41.5504L50.4921 40.4212C51.1921 39.0253 51.8226 37.4222 52.122 36.2763C52.1831 36.0426 52.2145 36.0112 52.4482 35.9488C53.2259 35.7412 54.1294 35.1771 54.7552 34.5083C55.1185 34.1202 55.1358 34.0886 55.0281 34.0127C54.0114 33.2959 53.2952 32.2785 53.0085 31.1434C52.859 30.5514 52.8591 29.4497 53.0087 28.8765C53.2948 27.7804 54.0542 26.6602 54.8828 26.112L55.1255 25.9515L55.0106 25.7904C54.8432 25.556 54.2213 24.9786 53.9019 24.7613C53.5199 24.5014 53.0868 24.2921 52.5996 24.1318C52.3721 24.057 52.1859 23.9878 52.1859 23.9782C52.1859 23.9684 52.1011 23.6743 51.9975 23.3245C51.573 21.8917 50.7243 19.9165 50.0163 18.7139L49.6692 18.1242L49.8947 17.4656C50.0893 16.8972 50.1243 16.7091 50.15 16.0931C50.1664 15.7005 50.1615 15.3067 50.1393 15.218L50.0988 15.0567L49.5642 15.0962C48.9232 15.1436 48.0888 15.0161 47.5139 14.7829C47.1786 14.647 46.991 14.4918 46.0401 13.5637C45.0583 12.6054 44.9349 12.4618 44.7928 12.1121C44.5496 11.5138 44.4564 10.9547 44.468 10.1651L44.4785 9.45714L44.2413 9.40476C43.6516 9.27451 42.4052 9.47013 41.624 9.81549L41.2903 9.96302L40.6554 9.63745C39.2928 8.9387 37.3586 8.16975 36.2684 7.89325C36.0341 7.83382 36.0034 7.80337 35.9408 7.56915C35.8439 7.20639 35.5042 6.48632 35.2647 6.13581C35.0358 5.80087 34.4608 5.1787 34.2245 5.01022L34.0669 4.89786L33.7687 5.29248C33.2779 5.94196 32.5795 6.45593 31.6854 6.82555C31.2736 6.99575 31.2107 7.00372 30.1166 7.02351C29.0206 7.04342 28.9582 7.03803 28.4925 6.88284C27.4771 6.54458 26.6647 5.92849 25.9966 4.99006C25.9199 4.88229 25.8889 4.89939 25.5001 5.26288ZM9.75187 8.01817C9.37416 8.11295 8.81179 8.44091 8.57222 8.70601C8.45105 8.84 8.26554 9.13231 8.15994 9.3555C7.98907 9.71661 7.96793 9.82199 7.96793 10.3127C7.96793 10.8047 7.98883 10.9083 8.16214 11.2746C8.50639 12.0022 9.09855 12.4541 9.92507 12.62C10.5755 12.7506 11.4038 12.4915 11.9119 11.9985C13.1007 10.8452 12.7726 8.88975 11.2726 8.188C10.8398 7.98552 10.1768 7.91151 9.75187 8.01817ZM48.5599 8.0678C47.9164 8.28033 47.427 8.69934 47.1184 9.30177C46.9615 9.60817 46.9459 9.69713 46.9459 10.283C46.9459 10.8869 46.9584 10.9528 47.1465 11.335C47.8652 12.7955 49.7306 13.1047 50.8864 11.9551C51.0666 11.7758 51.2848 11.4749 51.3767 11.2787C51.5222 10.9684 51.5424 10.8505 51.5424 10.3114C51.5424 9.7416 51.5279 9.66809 51.3417 9.28995C50.8329 8.25681 49.6118 7.72029 48.5599 8.0678ZM23.5649 9.89575C21.9387 10.4778 20.0102 11.3333 20.0102 11.4725C20.0102 11.5103 20.2053 11.7336 20.4438 11.9685C21.0712 12.5868 21.189 12.8858 21.0237 13.44C20.9395 13.7224 20.6787 13.9975 17.3001 17.3674C13.7347 20.9237 13.6612 20.9924 13.3584 21.0552C13.049 21.1195 12.7315 21.0828 12.5011 20.9564C12.4345 20.9198 12.1877 20.6949 11.9526 20.4567C11.7176 20.2184 11.4946 20.0235 11.4572 20.0235C11.4197 20.0235 11.219 20.3769 11.011 20.809C10.5792 21.7057 10.4236 22.0821 10.0528 23.1256L9.7887 23.8689L10.5417 23.894C11.2475 23.9174 11.3131 23.9304 11.5875 24.1003C11.7784 24.2185 11.9298 24.3754 12.0228 24.5515L12.1655 24.8216L12.1651 29.943C12.1649 33.2678 12.1427 35.1441 12.1017 35.2917C12.0669 35.4166 11.9538 35.6035 11.8503 35.707C11.5201 36.0372 11.3399 36.0953 10.5567 36.1247C10.1607 36.1395 9.83657 36.1743 9.83657 36.2019C9.83657 36.5511 11.1498 39.6901 11.2959 39.6901C11.3223 39.6901 11.4529 39.5775 11.5861 39.4398C12.0476 38.9631 12.6141 38.8108 13.0864 39.0364C13.3932 39.183 20.3782 46.1777 20.5142 46.4745C20.7431 46.974 20.6277 47.3799 20.0931 47.9572C19.8703 48.1978 19.6984 48.4041 19.7112 48.4157C19.7958 48.4925 20.885 49.0448 21.4198 49.2821C22.1659 49.6131 23.4293 50.0937 23.6911 50.146L23.8713 50.182L23.8728 49.6076C23.8736 49.2917 23.8986 48.9281 23.9285 48.7995C24.0085 48.4551 24.2783 48.1052 24.5744 47.9619C24.8319 47.8373 24.8944 47.836 30.0734 47.8525L35.3119 47.8692L35.5563 48.0385C35.9754 48.3289 36.0884 48.6122 36.1182 49.4468C36.1362 49.9521 36.1658 50.1667 36.2174 50.1667C36.5903 50.1667 39.9898 48.7145 39.9898 48.5554C39.9898 48.5221 39.7739 48.2701 39.5101 47.9955C38.9521 47.4144 38.8498 47.1648 38.9575 46.6466C39.0205 46.3432 39.0875 46.2716 42.5854 42.7643C44.5454 40.7989 46.2457 39.1418 46.3636 39.0818C46.9715 38.7723 47.365 38.8873 48.0587 39.5772L48.5663 40.0819L48.9922 39.1968C49.5186 38.103 50.1557 36.4822 50.1618 36.2216C50.1629 36.1769 49.912 36.1431 49.4334 36.1234C48.7856 36.0967 48.6723 36.0751 48.4275 35.9317C48.2758 35.8428 48.0871 35.6664 48.0084 35.5398L47.8652 35.3095L47.8485 30.078C47.832 24.8828 47.8327 24.8447 47.9597 24.5825C48.2139 24.0576 48.7515 23.8473 49.7222 23.8931C50.1018 23.9109 50.1637 23.8996 50.1636 23.8118C50.1634 23.6637 49.7368 22.4994 49.3703 21.647C49.107 21.0345 48.499 19.8159 48.4096 19.7216C48.396 19.7072 48.1162 19.9584 47.7879 20.2799C47.4596 20.6014 47.0952 20.9135 46.9779 20.9735C46.657 21.1377 46.1868 21.1171 45.863 20.9247C45.463 20.6869 38.6689 13.8587 38.5521 13.5771C38.423 13.266 38.433 12.8365 38.5756 12.5618C38.6405 12.4368 38.9163 12.1146 39.1885 11.8457C39.4606 11.577 39.6833 11.3339 39.6833 11.3054C39.6833 11.1636 36.542 9.85317 36.2021 9.85317C36.17 9.85317 36.1316 10.1771 36.1168 10.5731C36.0876 11.3524 36.0287 11.5366 35.706 11.8592C35.6064 11.9588 35.4056 12.0731 35.2599 12.1131C35.0626 12.1673 33.6794 12.1814 29.8415 12.1683L24.6881 12.1507L24.4438 11.9813C24.0246 11.691 23.9116 11.4077 23.8818 10.5731C23.8549 9.81684 23.8449 9.79552 23.5649 9.89575ZM1.50153 27.8204C1.31614 27.899 1.11702 27.9903 1.05904 28.0231C0.789499 28.1758 0.384086 28.6455 0.201267 29.0166C0.0164862 29.3919 0 29.4731 0 30.0086C0 30.5194 0.0215117 30.6385 0.172891 30.966C0.391624 31.4391 0.865679 31.911 1.34831 32.136C1.67393 32.2878 1.78621 32.3074 2.32891 32.3074C2.86259 32.3074 2.98535 32.2868 3.27886 32.1475C4.24474 31.6893 4.80699 30.6371 4.62503 29.6281C4.48529 28.8536 3.98746 28.2053 3.27886 27.8753C2.78494 27.6452 1.97393 27.6202 1.50153 27.8204ZM56.9838 27.7672C56.1345 28.0439 55.5372 28.7361 55.3747 29.632C55.1926 30.636 55.7567 31.69 56.7211 32.1475C57.018 32.2883 57.135 32.3074 57.7017 32.3074C58.306 32.3074 58.3677 32.2956 58.713 32.1135C59.1864 31.8637 59.6119 31.4235 59.8284 30.9596C59.9785 30.638 60 30.519 60 30.0099C60 29.5067 59.9778 29.3805 59.8358 29.0776C59.6166 28.6102 59.1654 28.1403 58.714 27.9094C58.3973 27.7474 58.2674 27.7181 57.7937 27.702C57.4427 27.6899 57.1481 27.7137 56.9838 27.7672ZM9.53497 47.0168C8.91438 47.2418 8.34643 47.7846 8.11103 48.3776C7.91914 48.8609 7.92067 49.6236 8.11446 50.1206C8.3055 50.6103 8.7627 51.0934 9.27316 51.3446C9.6516 51.5309 9.72478 51.5452 10.2962 51.5452C10.8679 51.5452 10.9407 51.5309 11.3201 51.3442C13.0549 50.4905 13.0759 48.0831 11.3567 47.162C11.0076 46.975 10.9142 46.9533 10.3882 46.9368C9.96895 46.9237 9.73005 46.9461 9.53497 47.0168ZM48.4658 47.0301C47.8499 47.2496 47.3644 47.6972 47.0849 48.303C46.9684 48.5557 46.9459 48.7084 46.9459 49.2477C46.9459 49.83 46.9623 49.9245 47.1194 50.2444C47.3481 50.71 47.7785 51.1427 48.2329 51.3639C48.5679 51.527 48.6579 51.5429 49.2441 51.5431C49.8323 51.5433 49.918 51.528 50.24 51.3658C50.717 51.1256 51.1248 50.7088 51.3532 50.228C51.5261 49.8641 51.5422 49.7768 51.5405 49.2171C51.5388 48.6725 51.5194 48.5649 51.3661 48.2492C51.147 47.7979 50.6979 47.3477 50.2466 47.127C49.7815 46.8995 48.958 46.8547 48.4658 47.0301ZM29.5097 55.3943C28.7861 55.5576 28.1773 56.0451 27.8648 56.7115C27.7207 57.0188 27.7017 57.1339 27.7017 57.7025C27.7017 58.305 27.714 58.3692 27.8945 58.7144C28.1318 59.1679 28.6025 59.618 29.0673 59.8358C29.3703 59.9778 29.4966 60 30 60C30.5095 60 30.629 59.9784 30.9564 59.8272C31.4296 59.6085 31.9017 59.1346 32.1268 58.6521C32.2788 58.3263 32.2982 58.2149 32.2978 57.6719C32.2974 56.9908 32.1995 56.6875 31.8286 56.2193C31.2986 55.5505 30.3357 55.2079 29.5097 55.3943Z" fill="url(#paint0_linear_3928_294)"/>
<defs>
<linearGradient id="paint0_linear_3928_294" x1="30" y1="0" x2="30" y2="60" gradientUnits="userSpaceOnUse">
<stop stop-color="#005B94"/>
<stop offset="1" stop-color="#128940"/>
</linearGradient>
</defs>
</svg>
