<svg width="19" height="67" viewBox="0 0 19 67" fill="none" xmlns="http://www.w3.org/2000/svg">
<line x1="9.5" x2="9.5" y2="59" stroke="#B8B9B5"/>
<line x1="9.5" y1="44" x2="9.5" y2="67" stroke="#B8B9B5"/>
<rect y="29" width="19" height="10" fill="#F3F7E4"/>
<path d="M8.23289 33.728C8.23289 35.204 8.24489 36.272 7.38089 37.136C6.78089 37.736 6.04889 38.072 5.07689 38.072C4.10489 38.072 3.36089 37.736 2.76089 37.136C1.89689 36.272 1.92089 35.204 1.92089 33.728C1.92089 32.252 1.89689 31.184 2.76089 30.32C3.36089 29.72 4.10489 29.384 5.07689 29.384C6.04889 29.384 6.78089 29.72 7.38089 30.32C8.24489 31.184 8.23289 32.252 8.23289 33.728ZM6.56489 33.728C6.56489 32.084 6.46889 31.688 6.14489 31.328C5.90489 31.052 5.53289 30.872 5.07689 30.872C4.62089 30.872 4.23689 31.052 3.99689 31.328C3.67289 31.688 3.58889 32.084 3.58889 33.728C3.58889 35.372 3.67289 35.768 3.99689 36.128C4.23689 36.404 4.62089 36.584 5.07689 36.584C5.53289 36.584 5.90489 36.404 6.14489 36.128C6.46889 35.768 6.56489 35.372 6.56489 33.728ZM16.3995 38H14.4675L12.7995 34.592H11.5995V38H9.93155V29.456H13.2795C15.0195 29.456 16.0515 30.644 16.0515 32.072C16.0515 33.272 15.3195 34.016 14.4915 34.316L16.3995 38ZM14.3835 32.072C14.3835 31.412 13.9035 30.944 13.1715 30.944H11.5995V33.2H13.1715C13.9035 33.2 14.3835 32.732 14.3835 32.072Z" fill="#B8B9B5"/>
</svg>
