<svg width="55" height="40" viewBox="0 0 55 40" fill="none" xmlns="http://www.w3.org/2000/svg">
<path d="M30.9269 8.82353V9.18235H31.2857H33.5571C34.4844 9.18235 34.9978 10.3697 34.2998 11.0882L27.7426 17.8382C27.3264 18.2667 26.6593 18.2667 26.2431 17.8382L19.6859 11.0882C18.9931 10.375 19.5083 9.18235 20.4429 9.18235H22.7143H23.0731V8.82353V1.47059C23.0731 0.850061 23.565 0.358824 24.1429 0.358824H29.8571C30.435 0.358824 30.9269 0.850061 30.9269 1.47059V8.82353ZM18.4286 24.6412C17.8508 24.6412 17.3588 24.1499 17.3588 23.5294C17.3588 22.9089 17.8508 22.4176 18.4286 22.4176H35.5714C36.1492 22.4176 36.6412 22.9089 36.6412 23.5294C36.6412 24.1499 36.1492 24.6412 35.5714 24.6412H18.4286Z" fill="white" stroke="white" stroke-width="0.717647"/>
<path d="M7.54822 34.728C7.54822 36.072 7.65622 37.164 6.66022 38.16C6.07222 38.748 5.24422 39 4.35622 39H1.18822V30.456H4.35622C5.24422 30.456 6.07222 30.708 6.66022 31.296C7.65622 32.292 7.54822 33.384 7.54822 34.728ZM5.44822 34.728C5.44822 33.288 5.38822 33.048 5.22022 32.808C5.02822 32.52 4.74022 32.328 4.21222 32.328H3.28822V37.128H4.21222C4.74022 37.128 5.02822 36.936 5.22022 36.648C5.38822 36.408 5.44822 36.18 5.44822 34.728ZM14.2246 35.772C14.2246 37.044 14.0566 37.656 13.5166 38.244C13.1326 38.652 12.4846 39.072 11.4406 39.072C10.3966 39.072 9.74863 38.652 9.36463 38.244C8.82463 37.656 8.65663 37.044 8.65663 35.772C8.65663 34.512 8.82463 33.888 9.36463 33.3C9.74863 32.892 10.3966 32.472 11.4406 32.472C12.4846 32.472 13.1326 32.892 13.5166 33.3C14.0566 33.888 14.2246 34.512 14.2246 35.772ZM12.2566 35.772C12.2566 35.136 12.2206 34.68 11.9686 34.428C11.8486 34.308 11.6806 34.248 11.4406 34.248C11.2006 34.248 11.0326 34.308 10.9126 34.428C10.6606 34.68 10.6246 35.136 10.6246 35.772C10.6246 36.408 10.6606 36.864 10.9126 37.116C11.0326 37.236 11.2006 37.296 11.4406 37.296C11.6806 37.296 11.8486 37.236 11.9686 37.116C12.2206 36.864 12.2566 36.408 12.2566 35.772ZM24.0045 32.544L22.0605 39H20.4885L19.3245 35.46L18.1605 39H16.5885L14.6445 32.544H16.7205L17.5245 35.892L18.6405 32.544H20.0085L21.1245 35.892L21.9285 32.544H24.0045ZM30.2718 39H28.3038V35.136C28.3038 34.392 27.7758 34.248 27.5118 34.248C27.2478 34.248 26.7198 34.392 26.7198 35.136V39H24.7518V32.544H26.6718V33.072C27.0678 32.676 27.6558 32.472 28.1718 32.472C28.7838 32.472 29.2758 32.676 29.6238 33.024C30.1758 33.576 30.2718 34.188 30.2718 34.872V39ZM34.689 39H33.645C32.217 39 31.641 37.98 31.641 37.092V30.456H33.609V36.948C33.609 37.2 33.741 37.344 34.005 37.344H34.689V39ZM40.8965 35.772C40.8965 37.044 40.7285 37.656 40.1885 38.244C39.8045 38.652 39.1565 39.072 38.1125 39.072C37.0685 39.072 36.4205 38.652 36.0365 38.244C35.4965 37.656 35.3285 37.044 35.3285 35.772C35.3285 34.512 35.4965 33.888 36.0365 33.3C36.4205 32.892 37.0685 32.472 38.1125 32.472C39.1565 32.472 39.8045 32.892 40.1885 33.3C40.7285 33.888 40.8965 34.512 40.8965 35.772ZM38.9285 35.772C38.9285 35.136 38.8925 34.68 38.6405 34.428C38.5205 34.308 38.3525 34.248 38.1125 34.248C37.8725 34.248 37.7045 34.308 37.5845 34.428C37.3325 34.68 37.2965 35.136 37.2965 35.772C37.2965 36.408 37.3325 36.864 37.5845 37.116C37.7045 37.236 37.8725 37.296 38.1125 37.296C38.3525 37.296 38.5205 37.236 38.6405 37.116C38.8925 36.864 38.9285 36.408 38.9285 35.772ZM47.2062 39H45.2862V38.472C44.8902 38.868 44.5302 39.06 43.8462 39.06C43.1982 39.06 42.6582 38.844 42.2982 38.484C41.9262 38.112 41.7342 37.572 41.7342 36.972C41.7342 36 42.3942 35.1 43.9302 35.1H45.2382V34.932C45.2382 34.344 44.9502 34.128 44.2662 34.128C43.7622 34.128 43.5462 34.248 43.2342 34.56L42.0102 33.336C42.6702 32.676 43.2702 32.472 44.3622 32.472C46.2102 32.472 47.2062 33.24 47.2062 34.812V39ZM45.2382 36.576V36.408H44.2422C43.8582 36.408 43.6182 36.624 43.6182 36.924C43.6182 37.212 43.8342 37.464 44.2662 37.464C44.6502 37.464 44.8302 37.428 45.0462 37.224C45.1902 37.092 45.2382 36.888 45.2382 36.576ZM53.9278 39H52.0198V38.472C51.6238 38.868 51.2038 39.072 50.5318 39.072C49.9078 39.072 49.3318 38.856 48.9598 38.484C48.3238 37.848 48.3598 36.72 48.3598 35.772C48.3598 34.824 48.3238 33.696 48.9598 33.06C49.3318 32.688 49.8958 32.472 50.5198 32.472C51.1558 32.472 51.5998 32.652 51.9598 33.012V30.456H53.9278V39ZM51.9598 35.772C51.9598 34.836 51.8758 34.248 51.1438 34.248C50.4118 34.248 50.3278 34.836 50.3278 35.772C50.3278 36.708 50.4118 37.296 51.1438 37.296C51.8758 37.296 51.9598 36.708 51.9598 35.772Z" fill="white"/>
</svg>
