<svg width="82" height="61" viewBox="0 0 82 61" fill="none" xmlns="http://www.w3.org/2000/svg">
<g filter="url(#filter0_d_4689_2755)">
<rect x="6.5" y="6.5" width="69" height="48" rx="9.5" stroke="white" shape-rendering="crispEdges"/>
</g>
<path d="M44.9269 19.8235V20.1824H45.2857H47.5571C48.4844 20.1824 48.9978 21.3697 48.2998 22.0882L41.7426 28.8382C41.3264 29.2667 40.6593 29.2667 40.2431 28.8382L33.6859 22.0882C32.9931 21.375 33.5083 20.1824 34.4429 20.1824H36.7143H37.0731V19.8235V12.4706C37.0731 11.8501 37.565 11.3588 38.1429 11.3588H43.8571C44.435 11.3588 44.9269 11.8501 44.9269 12.4706V19.8235ZM32.4286 35.6412C31.8508 35.6412 31.3588 35.1499 31.3588 34.5294C31.3588 33.9089 31.8508 33.4176 32.4286 33.4176H49.5714C50.1492 33.4176 50.6412 33.9089 50.6412 34.5294C50.6412 35.1499 50.1492 35.6412 49.5714 35.6412H32.4286Z" fill="white" stroke="white" stroke-width="0.717647"/>
<path d="M21.5482 45.728C21.5482 47.072 21.6562 48.164 20.6602 49.16C20.0722 49.748 19.2442 50 18.3562 50H15.1882V41.456H18.3562C19.2442 41.456 20.0722 41.708 20.6602 42.296C21.6562 43.292 21.5482 44.384 21.5482 45.728ZM19.4482 45.728C19.4482 44.288 19.3882 44.048 19.2202 43.808C19.0282 43.52 18.7402 43.328 18.2122 43.328H17.2882V48.128H18.2122C18.7402 48.128 19.0282 47.936 19.2202 47.648C19.3882 47.408 19.4482 47.18 19.4482 45.728ZM28.2246 46.772C28.2246 48.044 28.0566 48.656 27.5166 49.244C27.1326 49.652 26.4846 50.072 25.4406 50.072C24.3966 50.072 23.7486 49.652 23.3646 49.244C22.8246 48.656 22.6566 48.044 22.6566 46.772C22.6566 45.512 22.8246 44.888 23.3646 44.3C23.7486 43.892 24.3966 43.472 25.4406 43.472C26.4846 43.472 27.1326 43.892 27.5166 44.3C28.0566 44.888 28.2246 45.512 28.2246 46.772ZM26.2566 46.772C26.2566 46.136 26.2206 45.68 25.9686 45.428C25.8486 45.308 25.6806 45.248 25.4406 45.248C25.2006 45.248 25.0326 45.308 24.9126 45.428C24.6606 45.68 24.6246 46.136 24.6246 46.772C24.6246 47.408 24.6606 47.864 24.9126 48.116C25.0326 48.236 25.2006 48.296 25.4406 48.296C25.6806 48.296 25.8486 48.236 25.9686 48.116C26.2206 47.864 26.2566 47.408 26.2566 46.772ZM38.0045 43.544L36.0605 50H34.4885L33.3245 46.46L32.1605 50H30.5885L28.6445 43.544H30.7205L31.5245 46.892L32.6405 43.544H34.0085L35.1245 46.892L35.9285 43.544H38.0045ZM44.2718 50H42.3038V46.136C42.3038 45.392 41.7758 45.248 41.5118 45.248C41.2478 45.248 40.7198 45.392 40.7198 46.136V50H38.7518V43.544H40.6718V44.072C41.0678 43.676 41.6558 43.472 42.1718 43.472C42.7838 43.472 43.2758 43.676 43.6238 44.024C44.1758 44.576 44.2718 45.188 44.2718 45.872V50ZM48.689 50H47.645C46.217 50 45.641 48.98 45.641 48.092V41.456H47.609V47.948C47.609 48.2 47.741 48.344 48.005 48.344H48.689V50ZM54.8965 46.772C54.8965 48.044 54.7285 48.656 54.1885 49.244C53.8045 49.652 53.1565 50.072 52.1125 50.072C51.0685 50.072 50.4205 49.652 50.0365 49.244C49.4965 48.656 49.3285 48.044 49.3285 46.772C49.3285 45.512 49.4965 44.888 50.0365 44.3C50.4205 43.892 51.0685 43.472 52.1125 43.472C53.1565 43.472 53.8045 43.892 54.1885 44.3C54.7285 44.888 54.8965 45.512 54.8965 46.772ZM52.9285 46.772C52.9285 46.136 52.8925 45.68 52.6405 45.428C52.5205 45.308 52.3525 45.248 52.1125 45.248C51.8725 45.248 51.7045 45.308 51.5845 45.428C51.3325 45.68 51.2965 46.136 51.2965 46.772C51.2965 47.408 51.3325 47.864 51.5845 48.116C51.7045 48.236 51.8725 48.296 52.1125 48.296C52.3525 48.296 52.5205 48.236 52.6405 48.116C52.8925 47.864 52.9285 47.408 52.9285 46.772ZM61.2062 50H59.2862V49.472C58.8902 49.868 58.5302 50.06 57.8462 50.06C57.1982 50.06 56.6582 49.844 56.2982 49.484C55.9262 49.112 55.7342 48.572 55.7342 47.972C55.7342 47 56.3942 46.1 57.9302 46.1H59.2382V45.932C59.2382 45.344 58.9502 45.128 58.2662 45.128C57.7622 45.128 57.5462 45.248 57.2342 45.56L56.0102 44.336C56.6702 43.676 57.2702 43.472 58.3622 43.472C60.2102 43.472 61.2062 44.24 61.2062 45.812V50ZM59.2382 47.576V47.408H58.2422C57.8582 47.408 57.6182 47.624 57.6182 47.924C57.6182 48.212 57.8342 48.464 58.2662 48.464C58.6502 48.464 58.8302 48.428 59.0462 48.224C59.1902 48.092 59.2382 47.888 59.2382 47.576ZM67.9278 50H66.0198V49.472C65.6238 49.868 65.2038 50.072 64.5318 50.072C63.9078 50.072 63.3318 49.856 62.9598 49.484C62.3238 48.848 62.3598 47.72 62.3598 46.772C62.3598 45.824 62.3238 44.696 62.9598 44.06C63.3318 43.688 63.8958 43.472 64.5198 43.472C65.1558 43.472 65.5998 43.652 65.9598 44.012V41.456H67.9278V50ZM65.9598 46.772C65.9598 45.836 65.8758 45.248 65.1438 45.248C64.4118 45.248 64.3278 45.836 64.3278 46.772C64.3278 47.708 64.4118 48.296 65.1438 48.296C65.8758 48.296 65.9598 47.708 65.9598 46.772Z" fill="white"/>
<defs>
<filter id="filter0_d_4689_2755" x="0" y="0" width="82" height="61" filterUnits="userSpaceOnUse" color-interpolation-filters="sRGB">
<feFlood flood-opacity="0" result="BackgroundImageFix"/>
<feColorMatrix in="SourceAlpha" type="matrix" values="0 0 0 0 0 0 0 0 0 0 0 0 0 0 0 0 0 0 127 0" result="hardAlpha"/>
<feMorphology radius="1" operator="dilate" in="SourceAlpha" result="effect1_dropShadow_4689_2755"/>
<feOffset/>
<feGaussianBlur stdDeviation="2.5"/>
<feComposite in2="hardAlpha" operator="out"/>
<feColorMatrix type="matrix" values="0 0 0 0 0.0705882 0 0 0 0 0.537255 0 0 0 0 0.25098 0 0 0 0.4 0"/>
<feBlend mode="normal" in2="BackgroundImageFix" result="effect1_dropShadow_4689_2755"/>
<feBlend mode="normal" in="SourceGraphic" in2="effect1_dropShadow_4689_2755" result="shape"/>
</filter>
</defs>
</svg>
