<svg width="23" height="23" viewBox="0 0 23 23" fill="none" xmlns="http://www.w3.org/2000/svg">
<path d="M22.0959 11.0479C22.0959 17.1404 17.1397 22.0968 11.0479 22.0968C4.95616 22.0968 0 17.1404 0 11.0479C0 4.95648 4.95616 0 11.0479 0C17.1397 0 22.0959 4.95648 22.0959 11.0479Z" fill="#128940"/>
<path d="M22.0958 11.0479C22.0958 17.1404 17.1396 22.0968 11.0479 22.0968V0C17.1396 0 22.0958 4.95648 22.0958 11.0479Z" fill="#128940"/>
<path d="M14.6091 11.1842C14.3787 11.3793 14.0964 11.4745 13.8166 11.4745C13.4664 11.4745 13.1184 11.3261 12.8749 11.0371L12.2785 10.3302V14.9583C12.2785 15.6376 11.7274 16.1887 11.0481 16.1887C10.3688 16.1887 9.8176 15.6376 9.8176 14.9583V10.3302L9.22128 11.0371C8.78228 11.5565 8.00651 11.6229 7.48708 11.1842C6.96798 10.7462 6.90133 9.97006 7.33936 9.45064L9.77499 6.5632C10.0925 6.18765 10.5559 5.97168 11.0481 5.97168C11.5403 5.97168 12.0036 6.18765 12.3212 6.5632L14.7568 9.45064C15.1948 9.97006 15.1282 10.7462 14.6091 11.1842Z" fill="white"/>
</svg>
