<svg width="24" height="24" viewBox="0 0 24 24" fill="none" xmlns="http://www.w3.org/2000/svg">
<path d="M15.498 13.15H13.328C11.548 13.15 10.098 11.71 10.098 9.92V7.75C10.098 7.34 9.76805 7 9.34805 7H6.17805C3.86805 7 1.99805 8.5 1.99805 11.18V17.82C1.99805 20.5 3.86805 22 6.17805 22H12.068C14.378 22 16.248 20.5 16.248 17.82V13.9C16.248 13.48 15.908 13.15 15.498 13.15Z" fill="#005B94"/>
<path d="M17.8178 2H15.8478H14.7578H11.9278C9.66781 2 7.83781 3.44 7.75781 6.01C7.81781 6.01 7.86781 6 7.92781 6H10.7578H11.8478H13.8178C16.1278 6 17.9978 7.5 17.9978 10.18V12.15V14.86V16.83C17.9978 16.89 17.9878 16.94 17.9878 16.99C20.2178 16.92 21.9978 15.44 21.9978 12.83V10.86V8.15V6.18C21.9978 3.5 20.1278 2 17.8178 2Z" fill="#005B94"/>
<path d="M11.9787 7.14975C11.6687 6.83975 11.1387 7.04975 11.1387 7.47975V10.0998C11.1387 11.1998 12.0687 12.0998 13.2087 12.0998C13.9187 12.1098 14.9087 12.1098 15.7587 12.1098C16.1887 12.1098 16.4087 11.6098 16.1087 11.3098C15.0187 10.2198 13.0787 8.26975 11.9787 7.14975Z" fill="#005B94"/>
</svg>
