<svg width="20" height="20" viewBox="0 0 20 20" fill="none" xmlns="http://www.w3.org/2000/svg">
<path d="M0.831364 0.70603C0.766911 0.714622 0.616521 0.783373 0.491911 0.860716C-0.225667 1.2947 -0.139729 2.3947 0.629411 2.71267C0.857145 2.8072 1.24386 2.79861 1.48019 2.69118C1.72082 2.58376 1.84972 2.46345 1.95715 2.2529L2.03879 2.09392H3.44816H4.85324L4.93918 2.24861C5.19699 2.72556 5.80714 2.91462 6.32277 2.674L6.54621 2.57087L7.73644 3.26697L8.92667 3.96306L8.93956 4.1779C8.94386 4.29822 8.98253 4.47439 9.02121 4.57751C9.09425 4.76228 9.43371 5.10173 9.54113 5.10173C9.59269 5.10173 9.60128 5.38533 9.60128 6.71306V8.32009L9.48527 8.38454C9.163 8.55212 8.94386 8.92595 8.94386 9.31267C8.94386 9.69939 9.12003 10.0131 9.46378 10.2236L9.60128 10.3095V11.8908V13.472L9.46378 13.558C9.12003 13.7685 8.94386 14.0822 8.94386 14.4689C8.94386 14.8556 9.163 15.2295 9.48527 15.397C9.60128 15.4572 9.60128 15.4658 9.60128 15.8783V16.2951L7.34972 17.1845L5.10246 18.0783L4.92628 17.9924C4.69425 17.8806 4.27316 17.8763 4.03683 17.9881C3.37941 18.2931 3.23332 19.1955 3.76613 19.6939C3.98527 19.9045 4.16574 19.9732 4.46222 19.9775C5.08097 19.9818 5.51496 19.565 5.51925 18.9591V18.7013L7.52589 17.9064C8.62589 17.4681 9.54542 17.1072 9.56261 17.0986C9.5841 17.09 9.60128 17.2748 9.60128 17.5111V17.9408L9.46378 18.0267C8.85363 18.4049 8.7548 19.217 9.26613 19.6939C9.48527 19.9045 9.66574 19.9732 9.96222 19.9775C10.4048 19.9775 10.7657 19.7627 10.9376 19.3888C11.0321 19.1826 11.045 18.74 10.9591 18.5338C10.8775 18.3361 10.6583 18.0998 10.4821 18.0181L10.3318 17.9451L10.336 16.7119V15.4787L10.538 15.3498C10.6454 15.2767 10.7958 15.1349 10.8689 15.0361C10.9892 14.8599 10.9978 14.8213 10.9978 14.4689C10.9978 14.1166 10.9892 14.0779 10.8689 13.9017C10.7958 13.8029 10.6454 13.6568 10.538 13.5881L10.336 13.4591V11.8822L10.3318 10.3052L10.4821 10.2322C10.6497 10.1549 10.8732 9.91853 10.9333 9.75954L10.9763 9.65642L12.7251 9.66071H14.4782L14.6071 9.86267C14.6802 9.97439 14.8263 10.1205 14.938 10.1935L15.14 10.3224V12.5783V14.8341L14.938 14.9631C14.6243 15.165 14.4825 15.4013 14.4653 15.758C14.4439 16.1275 14.5083 16.3209 14.7232 16.5572C14.9509 16.8064 15.1872 16.8924 15.561 16.8623C15.72 16.8494 15.8876 16.8322 15.9263 16.8236C15.9778 16.815 16.3431 17.1158 16.9618 17.6701L17.92 18.5295L17.9028 18.8345C17.8814 19.2084 17.9415 19.406 18.1478 19.6381C18.3583 19.8744 18.5817 19.9689 18.9255 19.9689C19.5485 19.9689 19.9567 19.5564 19.9567 18.9291C19.9567 18.5939 19.8579 18.3662 19.6216 18.1556C19.3552 17.915 19.1103 17.872 18.5044 17.958C18.4271 17.9666 18.195 17.7818 17.4474 17.1115L16.4935 16.2521L16.5107 15.947C16.5235 15.7752 16.5064 15.5732 16.4806 15.4916C16.4161 15.2896 16.1712 15.0146 15.9821 14.9244L15.8317 14.8513V12.5826V10.3138L15.9349 10.2666C16.1153 10.1849 16.3603 9.94001 16.4376 9.76384C16.545 9.5361 16.545 9.08923 16.4376 8.8615C16.3603 8.68532 16.1153 8.4404 15.9349 8.35876C15.836 8.3115 15.8317 8.29431 15.8317 7.87751L15.836 7.44353L17.0435 6.73025L18.2552 6.01697L18.4485 6.11579C18.6677 6.23611 19.0974 6.25759 19.3294 6.15876C19.5357 6.07282 19.7892 5.8365 19.8751 5.63884C19.9825 5.40681 19.9825 4.96423 19.8751 4.7365C19.7075 4.37126 19.3423 4.14783 18.9255 4.14783C18.6376 4.14783 18.397 4.24236 18.2036 4.42712C17.9974 4.62478 17.9243 4.78376 17.8985 5.10173L17.8728 5.37673L16.8845 5.9697C16.3431 6.29197 15.8833 6.55837 15.8661 6.55837C15.8446 6.56267 15.8317 5.85798 15.8317 4.99431V3.42595L15.9993 3.34431C16.3345 3.17244 16.5193 2.85017 16.5193 2.43767C16.5193 1.82322 16.0939 1.38923 15.488 1.38923C15.0583 1.38923 14.6845 1.63415 14.5255 2.01657C14.4396 2.21423 14.4353 2.65251 14.5169 2.84158C14.5985 3.03923 14.8177 3.27556 14.9939 3.3572L15.1443 3.43025V5.87517V8.32009L15.054 8.34587C14.9294 8.38884 14.6372 8.65954 14.5599 8.80564L14.4954 8.92595H12.7423H10.9849L10.8903 8.77985C10.7829 8.60368 10.5466 8.38884 10.422 8.34587C10.3318 8.32009 10.3318 8.2986 10.3318 6.73454V5.1447L10.4993 5.06306C10.8302 4.89118 11.0193 4.56033 11.0193 4.14783C11.0193 3.72673 10.8173 3.40017 10.4392 3.19822C10.1814 3.06501 9.76886 3.07361 9.50675 3.2197L9.3091 3.32712L8.11456 2.63103L6.91574 1.93064L6.88996 1.65993C6.86417 1.34626 6.78683 1.18298 6.58488 0.993919C6.35714 0.774778 6.17668 0.701733 5.863 0.701733C5.4591 0.701733 5.10675 0.907982 4.93488 1.24314L4.87043 1.36345H3.43527C2.18488 1.36345 1.99582 1.35486 1.99582 1.299C1.99582 1.26462 1.90558 1.14001 1.79386 1.024C1.52316 0.744701 1.21808 0.645872 0.831364 0.70603ZM1.26535 1.53533C1.45011 1.72009 1.31261 2.05095 1.0505 2.05095C0.887224 2.05095 0.749724 1.91345 0.749724 1.75017C0.749724 1.58689 0.887224 1.44939 1.0505 1.44939C1.12355 1.44939 1.21808 1.48806 1.26535 1.53533ZM6.07785 1.53533C6.12511 1.58259 6.16378 1.67712 6.16378 1.75017C6.16378 1.82322 6.12511 1.91775 6.07785 1.96501C6.03058 2.01228 5.93605 2.05095 5.863 2.05095C5.78996 2.05095 5.69543 2.01228 5.64816 1.96501C5.60089 1.91775 5.56222 1.82322 5.56222 1.75017C5.56222 1.67712 5.60089 1.58259 5.64816 1.53533C5.69543 1.48806 5.78996 1.44939 5.863 1.44939C5.93605 1.44939 6.03058 1.48806 6.07785 1.53533ZM15.7028 2.22283C15.7501 2.27009 15.7888 2.36462 15.7888 2.43767C15.7888 2.51072 15.7501 2.60525 15.7028 2.65251C15.6556 2.69978 15.561 2.73845 15.488 2.73845C15.415 2.73845 15.3204 2.69978 15.2732 2.65251C15.2259 2.60525 15.1872 2.51072 15.1872 2.43767C15.1872 2.36462 15.2259 2.27009 15.2732 2.22283C15.3204 2.17556 15.415 2.13689 15.488 2.13689C15.561 2.13689 15.6556 2.17556 15.7028 2.22283ZM10.2028 3.94158C10.2501 3.98884 10.2888 4.08337 10.2888 4.15642C10.2888 4.22947 10.2501 4.324 10.2028 4.37126C10.1556 4.41853 10.061 4.4572 9.988 4.4572C9.91496 4.4572 9.82042 4.41853 9.77316 4.37126C9.72589 4.324 9.68722 4.22947 9.68722 4.15642C9.68722 4.08337 9.72589 3.98884 9.77316 3.94158C9.82042 3.89431 9.91496 3.85564 9.988 3.85564C10.061 3.85564 10.1556 3.89431 10.2028 3.94158ZM19.1403 4.97283C19.1876 5.02009 19.2263 5.11462 19.2263 5.18767C19.2263 5.26072 19.1876 5.35525 19.1403 5.40251C19.0931 5.44978 18.9985 5.48845 18.9255 5.48845C18.8525 5.48845 18.7579 5.44978 18.7107 5.40251C18.6634 5.35525 18.6247 5.26072 18.6247 5.18767C18.6247 5.11462 18.6634 5.02009 18.7107 4.97283C18.7579 4.92556 18.8525 4.88689 18.9255 4.88689C18.9985 4.88689 19.0931 4.92556 19.1403 4.97283ZM10.2028 9.09782C10.2501 9.14509 10.2888 9.23962 10.2888 9.31267C10.2888 9.38571 10.2501 9.48025 10.2028 9.52751C10.1556 9.57478 10.061 9.61345 9.988 9.61345C9.91496 9.61345 9.82042 9.57478 9.77316 9.52751C9.72589 9.48025 9.68722 9.38571 9.68722 9.31267C9.68722 9.23962 9.72589 9.14509 9.77316 9.09782C9.82042 9.05056 9.91496 9.01189 9.988 9.01189C10.061 9.01189 10.1556 9.05056 10.2028 9.09782ZM15.7028 9.09782C15.7501 9.14509 15.7888 9.23962 15.7888 9.31267C15.7888 9.38571 15.7501 9.48025 15.7028 9.52751C15.6556 9.57478 15.561 9.61345 15.488 9.61345C15.415 9.61345 15.3204 9.57478 15.2732 9.52751C15.2259 9.48025 15.1872 9.38571 15.1872 9.31267C15.1872 9.23962 15.2259 9.14509 15.2732 9.09782C15.3204 9.05056 15.415 9.01189 15.488 9.01189C15.561 9.01189 15.6556 9.05056 15.7028 9.09782ZM10.2028 14.2541C10.2501 14.3013 10.2888 14.3959 10.2888 14.4689C10.2888 14.542 10.2501 14.6365 10.2028 14.6838C10.1556 14.731 10.061 14.7697 9.988 14.7697C9.91496 14.7697 9.82042 14.731 9.77316 14.6838C9.72589 14.6365 9.68722 14.542 9.68722 14.4689C9.68722 14.3959 9.72589 14.3013 9.77316 14.2541C9.82042 14.2068 9.91496 14.1681 9.988 14.1681C10.061 14.1681 10.1556 14.2068 10.2028 14.2541ZM15.7028 15.6291C15.7501 15.6763 15.7888 15.7709 15.7888 15.8439C15.7888 15.917 15.7501 16.0115 15.7028 16.0588C15.5181 16.2435 15.1872 16.106 15.1872 15.8439C15.1872 15.6806 15.3247 15.5431 15.488 15.5431C15.561 15.5431 15.6556 15.5818 15.7028 15.6291ZM4.70285 18.7228C4.88761 18.9076 4.75011 19.2384 4.488 19.2384C4.32472 19.2384 4.18722 19.1009 4.18722 18.9377C4.18722 18.7744 4.32472 18.6369 4.488 18.6369C4.56105 18.6369 4.65558 18.6756 4.70285 18.7228ZM10.2028 18.7228C10.3876 18.9076 10.2501 19.2384 9.988 19.2384C9.82472 19.2384 9.68722 19.1009 9.68722 18.9377C9.68722 18.7744 9.82472 18.6369 9.988 18.6369C10.061 18.6369 10.1556 18.6756 10.2028 18.7228ZM19.1403 18.7228C19.3251 18.9076 19.1876 19.2384 18.9255 19.2384C18.7622 19.2384 18.6247 19.1009 18.6247 18.9377C18.6247 18.7744 18.7622 18.6369 18.9255 18.6369C18.9985 18.6369 19.0931 18.6756 19.1403 18.7228Z" fill="#005B94"/>
<path d="M1.35991 5.29905C1.11929 5.41936 0.9646 5.58694 0.857178 5.84046C0.792725 5.99944 0.320068 10.3908 0.320068 10.842C0.320068 11.3104 0.556396 11.8217 0.934521 12.1569L1.1064 12.3158L0.75835 13.3213C0.56499 13.8756 0.406006 14.3955 0.406006 14.4772C0.406006 14.7737 0.77124 14.9283 0.994678 14.7221C1.04624 14.6705 1.14937 14.4514 1.22241 14.228L1.35991 13.824H3.45249H5.54937L5.69116 14.2237C5.85874 14.7006 5.94897 14.8123 6.16382 14.8123C6.36577 14.8123 6.50757 14.6705 6.50757 14.4686C6.50757 14.3869 6.34858 13.867 6.15952 13.317L5.80718 12.3158L5.97905 12.1697C6.33569 11.8647 6.59351 11.3018 6.59351 10.8248C6.59351 10.3436 6.12515 6.01233 6.0564 5.84905C5.94897 5.58694 5.79429 5.41936 5.55366 5.29905L5.33022 5.18733H3.45679H1.58335L1.35991 5.29905ZM5.28296 6.01663C5.37749 6.09397 5.39897 6.16272 5.42046 6.38186L5.44624 6.64827H3.46108H1.48022V6.47639C1.48022 6.26585 1.57476 6.02952 1.68218 5.96507C1.73374 5.93499 2.33101 5.9221 3.46538 5.9178H5.17124L5.28296 6.01663ZM5.52358 7.38733C5.52358 7.39592 5.57944 7.90725 5.6439 8.526L5.75991 9.65608H3.46968H1.17944V9.53577C1.17944 9.39827 1.33843 7.77834 1.3771 7.53772L1.40288 7.37874H3.46108C4.59116 7.37874 5.51929 7.38303 5.52358 7.38733ZM5.83726 10.4553C5.85015 10.494 5.86304 10.6315 5.86304 10.7647C5.86304 11.2072 5.59233 11.6112 5.17554 11.8002C4.99077 11.8819 4.89624 11.8905 3.45679 11.8905C1.93999 11.8905 1.9314 11.8905 1.71655 11.7873C1.30405 11.594 1.05483 11.2072 1.05054 10.7647C1.05054 10.3479 0.797022 10.3865 3.45679 10.3865C5.56226 10.3865 5.81147 10.3951 5.83726 10.4553ZM5.21421 12.8444L5.30015 13.0936H3.45679H1.61343L1.70366 12.8444L1.7939 12.5994H3.46538H5.13257L5.21421 12.8444Z" fill="#005B94"/>
<path d="M1.84114 10.8766C1.7509 10.9539 1.72083 11.0141 1.72083 11.1387C1.72083 11.2633 1.7509 11.3234 1.84114 11.4008C1.93997 11.491 2.00012 11.5039 2.29231 11.5039C2.72629 11.5039 2.8552 11.4223 2.8552 11.1387C2.8552 10.8551 2.72629 10.7734 2.29231 10.7734C2.00012 10.7734 1.93997 10.7863 1.84114 10.8766Z" fill="#005B94"/>
<path d="M4.17007 10.8637C4.07983 10.9324 4.05835 10.9883 4.05835 11.1387C4.05835 11.4223 4.18726 11.5039 4.62124 11.5039C4.91343 11.5039 4.97358 11.491 5.07241 11.4008C5.16265 11.3234 5.19272 11.2633 5.19272 11.1387C5.19272 11.0141 5.16265 10.9539 5.07241 10.8766C4.97358 10.7863 4.91343 10.7734 4.62124 10.7734C4.34624 10.7734 4.2646 10.7906 4.17007 10.8637Z" fill="#005B94"/>
</svg>
