<svg width="42" height="42" viewBox="0 0 42 42" fill="none" xmlns="http://www.w3.org/2000/svg">
<path d="M18.598 0.884968C13.3315 1.7237 8.72823 4.33742 5.50984 8.35553C4.00793 10.2085 2.31096 13.5245 1.7258 15.7091C-0.28326 23.1796 1.86233 30.8453 7.42137 36.1117C9.13785 37.7502 10.5227 38.6864 12.8829 39.7982C15.9647 41.2611 17.4276 41.5537 21.5043 41.5537C24.5861 41.5537 25.2103 41.4952 26.6732 41.0856C28.6823 40.5394 31.452 39.2716 33.0905 38.1598C39.1566 34.0246 42.6286 26.5736 41.8874 19.259C40.8146 8.84317 32.5638 1.11903 22.187 0.787441C20.8411 0.748428 19.2221 0.787441 18.598 0.884968ZM24.3911 3.5182C30.6523 4.6105 35.6847 8.66762 38.1619 14.5973C39.4882 17.8156 39.7808 22.0483 38.9031 25.4618C38.2984 27.8219 37.6742 29.2068 36.3284 31.2354C33.8122 34.9999 29.5015 37.9062 25.0738 38.8035C19.5342 39.9348 13.5071 38.2378 9.37191 34.3562C3.77386 29.1288 2.05739 21.4241 4.90517 14.4022C8.02604 6.75609 16.3548 2.11381 24.3911 3.5182Z" fill="url(#paint0_linear_4512_6884)"/>
<path d="M17.2932 5.74204C12.9826 6.91236 9.12048 10.0527 7.09192 14.0904C6.35072 15.5923 5.64852 18.1865 5.51199 20.0395C5.29743 22.6532 6.03863 26.6713 6.91637 27.6466C7.67708 28.4853 8.14521 28.2123 13.8018 23.804C16.7471 21.5024 19.3608 19.3763 19.6144 19.1032C20.0435 18.6156 20.0435 18.5571 20.0435 12.5104C20.0435 6.97088 20.0045 6.34671 19.7119 5.99561C19.2048 5.41045 18.7171 5.35193 17.2932 5.74204ZM17.5078 12.9395V17.5818L13.1971 20.9562C10.837 22.8093 8.76939 24.3697 8.63285 24.4087C8.00868 24.6623 7.85263 20.1955 8.39878 18.0499C9.37405 14.2854 12.0853 10.911 15.5378 9.1945C16.5325 8.70686 17.3908 8.29725 17.4298 8.29725C17.4688 8.29725 17.5078 10.3843 17.5078 12.9395Z" fill="url(#paint1_linear_4512_6884)"/>
<path d="M23.3959 5.70218L22.9668 6.05327L23.0058 12.5876L23.0643 19.1024L28.8769 23.6471C32.0758 26.1438 34.8651 28.1919 35.0601 28.1919C35.7233 28.1919 36.3865 27.3532 36.7961 25.9878C39.3513 17.5224 34.7676 8.667 26.4778 5.99476C24.4687 5.35108 23.8836 5.29256 23.3959 5.70218ZM27.6676 9.31067C28.9159 9.93485 29.6571 10.481 30.8665 11.6903C33.2852 14.1285 34.553 16.7032 34.8456 19.7851C35.0016 21.2675 34.7871 24.2518 34.514 24.5249C34.436 24.5834 32.3879 23.101 29.9497 21.209L25.522 17.7565V13.1142C25.5025 9.31067 25.5415 8.49145 25.7756 8.49145C25.9121 8.49145 26.7703 8.86205 27.6676 9.31067Z" fill="url(#paint2_linear_4512_6884)"/>
<path d="M18.2474 24.0575C18.0718 24.1355 16.0823 25.6374 13.8001 27.4124C9.58697 30.7088 9.25538 31.0794 9.66499 31.9962C9.99658 32.7179 12.6883 34.7464 14.4633 35.6047C16.2773 36.4824 18.4229 37.0871 19.1251 36.892C19.9833 36.6775 20.0614 36.0923 20.0028 30.1627L19.9443 24.6426L19.4762 24.272C19.0081 23.8819 18.7935 23.8429 18.2474 24.0575ZM17.5062 31.0404V34.0637L17.077 33.9272C15.7702 33.5371 13.0199 31.8791 13.0199 31.489C13.0199 31.333 17.116 28.0171 17.3696 27.9976C17.4476 27.9976 17.5062 29.3629 17.5062 31.0404Z" fill="url(#paint3_linear_4512_6884)"/>
<path d="M23.5514 24.1548L23.0638 24.4083L23.0053 30.3185C22.9662 35.6239 22.9858 36.2871 23.2783 36.6187C23.6879 37.0478 24.2146 37.0673 25.7555 36.6577C28.0962 36.0531 30.6124 34.6487 32.4849 32.9127C33.1481 32.2885 33.3041 32.0154 33.3041 31.4498C33.3041 30.7866 33.1676 30.6501 30.2418 28.3289C24 23.4526 24.4292 23.7061 23.5514 24.1548ZM27.9401 29.8503C29.0129 30.6891 29.9297 31.4108 29.9882 31.4693C30.2418 31.6838 27.1599 33.5759 25.9506 33.9465L25.5019 34.0635V31.0012C25.5019 28.5825 25.5605 27.9973 25.7555 28.1339C25.8726 28.2509 26.8673 29.0116 27.9401 29.8503Z" fill="url(#paint4_linear_4512_6884)"/>
<defs>
<linearGradient id="paint0_linear_4512_6884" x1="21.4863" y1="41.5537" x2="21.4863" y2="0.772491" gradientUnits="userSpaceOnUse">
<stop stop-color="#005B94"/>
<stop offset="1" stop-color="#128940"/>
</linearGradient>
<linearGradient id="paint1_linear_4512_6884" x1="12.7591" y1="28.0234" x2="12.7591" y2="5.4937" gradientUnits="userSpaceOnUse">
<stop stop-color="#005B94"/>
<stop offset="1" stop-color="#128940"/>
</linearGradient>
<linearGradient id="paint2_linear_4512_6884" x1="30.235" y1="28.1919" x2="30.235" y2="5.44244" gradientUnits="userSpaceOnUse">
<stop stop-color="#005B94"/>
<stop offset="1" stop-color="#128940"/>
</linearGradient>
<linearGradient id="paint3_linear_4512_6884" x1="14.7755" y1="36.9287" x2="14.7755" y2="23.9279" gradientUnits="userSpaceOnUse">
<stop stop-color="#005B94"/>
<stop offset="1" stop-color="#128940"/>
</linearGradient>
<linearGradient id="paint4_linear_4512_6884" x1="28.1472" y1="36.9531" x2="28.1472" y2="23.931" gradientUnits="userSpaceOnUse">
<stop stop-color="#005B94"/>
<stop offset="1" stop-color="#128940"/>
</linearGradient>
</defs>
</svg>
