<svg width="199" height="44" viewBox="0 0 199 44" fill="none" xmlns="http://www.w3.org/2000/svg">
<rect x="0.5" y="0.833984" width="198" height="42.4182" rx="5.5303" fill="#DCE7B0" stroke="white"/>
<g clip-path="url(#clip0_4548_950)">
<path d="M37.1978 32.7196C37.1978 33.4514 37.2114 33.7523 37.2182 33.383C37.2319 33.0205 37.2319 32.4187 37.2182 32.0494C37.2114 31.6869 37.1978 31.9878 37.1978 32.7196Z" fill="#ECC16B"/>
<path d="M26.5535 33.3349C26.5535 34.3676 26.5671 34.7917 26.5739 34.2719C26.5876 33.759 26.5876 32.9109 26.5739 32.3911C26.5671 31.8782 26.5535 32.3022 26.5535 33.3349Z" fill="#ECC16B"/>
<path d="M32.6194 32.3769C32.6194 32.5479 32.633 32.6163 32.6467 32.5274C32.6603 32.4453 32.6603 32.3085 32.6467 32.2196C32.633 32.1376 32.6194 32.2059 32.6194 32.3769Z" fill="#ECC16B"/>
<path d="M33.7112 33.9511C33.7112 34.1221 33.7248 34.1905 33.7385 34.1016C33.7521 34.0195 33.7521 33.8827 33.7385 33.7938C33.7248 33.7118 33.7112 33.7802 33.7112 33.9511Z" fill="#ECC16B"/>
<path d="M27.2087 7.2509C22.3846 8.39303 18.352 9.37102 18.236 9.42573C18.0518 9.51464 19.089 9.52832 27.468 9.52832L36.8978 9.53516V7.51763V5.49326L36.7272 5.32912C36.5976 5.19918 36.4952 5.15814 36.2701 5.16498C36.1063 5.17182 32.0328 6.10877 27.2087 7.2509Z" fill="#005B94"/>
<path d="M23.4216 16.3885L23.0122 16.8193L23.4421 16.409C23.6741 16.1833 23.8651 15.9918 23.8651 15.985C23.8651 15.9303 23.7969 15.9918 23.4216 16.3885Z" fill="#ECC196"/>
<path d="M22.18 19.4181C22.18 19.5685 22.1936 19.6232 22.2073 19.5343C22.2209 19.4523 22.2209 19.3292 22.2073 19.2608C22.1868 19.1992 22.1732 19.2676 22.18 19.4181Z" fill="#ECC196"/>
<path d="M27.3997 30.9214C27.6658 30.9351 28.1162 30.9351 28.3891 30.9214C28.6552 30.9145 28.4369 30.9009 27.891 30.9009C27.3451 30.9009 27.1268 30.9145 27.3997 30.9214Z" fill="#ECC196"/>
<path d="M33.7183 32.5144C33.7183 33.171 33.7319 33.4446 33.7387 33.1094C33.7524 32.7812 33.7524 32.2477 33.7387 31.9126C33.7319 31.5843 33.7183 31.8579 33.7183 32.5144Z" fill="#ECC196"/>
<path d="M38.2898 32.7879C38.2898 33.5949 38.3034 33.9301 38.3103 33.5197C38.3239 33.1162 38.3239 32.4597 38.3103 32.0493C38.3034 31.6458 38.2898 31.9809 38.2898 32.7879Z" fill="#ECC196"/>
<path d="M27.6452 32.0631C27.6248 32.111 27.6248 32.3025 27.6384 32.4872L27.6589 32.8223L27.6725 32.4324L27.6862 32.0426L28.2866 32.0153L28.8803 31.9947L28.2798 31.9811C27.8226 31.9674 27.6725 31.9879 27.6452 32.0631Z" fill="#ECC196"/>
<path d="M32.6129 32.9797C32.5993 33.2465 32.5788 33.3285 32.5174 33.2943C32.4492 33.2602 32.4492 33.267 32.5106 33.3354C32.6402 33.479 32.6743 33.3833 32.647 32.9866L32.6266 32.6173L32.6129 32.9797Z" fill="#ECC196"/>
<path d="M27.6453 34.2723L27.6521 34.6689L28.2525 34.6758H28.8462L28.273 34.6553L27.693 34.6279L27.6657 34.2586L27.6384 33.8824L27.6453 34.2723Z" fill="#ECC196"/>
<path d="M20.74 35.1822C20.74 35.3122 20.7536 35.3669 20.7741 35.2985C20.7878 35.237 20.7878 35.1275 20.7741 35.0591C20.7536 34.9976 20.74 35.0523 20.74 35.1822Z" fill="#ECC196"/>
<path d="M27.4339 35.7769C27.6863 35.7905 28.0957 35.7905 28.355 35.7769C28.6075 35.7632 28.396 35.7563 27.891 35.7563C27.3861 35.7563 27.1746 35.7632 27.4339 35.7769Z" fill="#ECC196"/>
<path d="M22.8279 9.58349C25.4344 9.59717 29.6717 9.59717 32.2441 9.58349C34.8233 9.57665 32.6945 9.56981 27.5156 9.56981C22.3367 9.56981 20.2282 9.57665 22.8279 9.58349Z" fill="#ECECC1"/>
<path d="M40.2408 23.5695C40.2408 33.493 40.2204 37.6922 40.1658 37.8837C40.0702 38.2462 39.4903 38.8138 39.1082 38.9301C38.8898 38.9916 36.4061 39.0122 28.2045 39.0122H17.5874V39.3131C17.5874 39.6619 17.6625 39.9012 17.8262 40.0585C17.9286 40.168 18.8361 40.1748 29.535 40.1748C40.9232 40.1748 41.1279 40.1748 41.2575 40.0449C41.3326 39.9696 41.4144 39.8055 41.4349 39.6824C41.4554 39.5593 41.4622 32.8023 41.4554 24.6706L41.4349 9.89133L41.2711 9.71351C41.1279 9.55621 41.046 9.5357 40.6707 9.5357H40.2408V23.5695Z" fill="#005B94"/>
<path d="M23.3872 16.3407C23.2235 16.5117 23.1007 16.6484 23.1211 16.6484C23.1416 16.6484 23.2917 16.5117 23.4555 16.3407C23.6192 16.1697 23.7421 16.0329 23.7216 16.0329C23.7011 16.0329 23.551 16.1697 23.3872 16.3407Z" fill="#ECECC1"/>
<path d="M35.601 16.3202C35.7648 16.5048 35.908 16.6484 35.9217 16.6484C35.9763 16.6484 35.9217 16.5869 35.6215 16.3065L35.2939 15.9987L35.601 16.3202Z" fill="#ECECC1"/>
<path d="M24.5472 24.4793C24.786 24.7255 25.0044 24.9238 25.018 24.9238C25.0385 24.9238 24.8542 24.7255 24.6154 24.4793C24.3766 24.2331 24.1583 24.0347 24.1446 24.0347C24.1242 24.0347 24.3084 24.2331 24.5472 24.4793Z" fill="#ECECC1"/>
<path d="M34.4068 24.5271L33.9292 25.0264L34.4273 24.5476C34.6934 24.2877 34.9186 24.0621 34.9186 24.0552C34.9186 24.0005 34.8435 24.0689 34.4068 24.5271Z" fill="#ECECC1"/>
<path d="M29.9648 33.3363C29.9648 34.4853 29.9785 34.9504 29.9853 34.3759C29.999 33.8082 29.999 32.8644 29.9853 32.2899C29.9785 31.7223 29.9648 32.1874 29.9648 33.3363Z" fill="#ECECC1"/>
<path d="M35.6965 32.7551C35.6965 33.5484 35.7102 33.8562 35.717 33.4527C35.7306 33.0492 35.7306 32.3994 35.717 32.0165C35.7102 31.6335 35.6965 31.9617 35.6965 32.7551Z" fill="#ECECC1"/>
<path d="M27.9451 32.7681C28.102 32.7817 28.3477 32.7817 28.491 32.7681C28.6274 32.7544 28.4978 32.7407 28.1976 32.7407C27.8973 32.7407 27.7813 32.7544 27.9451 32.7681Z" fill="#ECECC1"/>
<path d="M31.1111 34.3755L31.1247 35.4219L31.1452 34.4439C31.1657 33.6984 31.1861 33.4796 31.2544 33.5206C31.309 33.548 31.3021 33.5274 31.2407 33.4522C31.193 33.3907 31.1384 33.336 31.1247 33.336C31.1111 33.336 31.1043 33.8079 31.1111 34.3755Z" fill="#ECECC1"/>
<path d="M27.9451 33.9311C28.102 33.9448 28.3477 33.9448 28.491 33.9311C28.6274 33.9175 28.4978 33.9038 28.1976 33.9038C27.8973 33.9038 27.7813 33.9175 27.9451 33.9311Z" fill="#ECECC1"/>
<path d="M37.7776 35.2303L37.5457 35.4902L37.8049 35.2577C37.9414 35.1278 38.0574 35.0115 38.0574 34.9978C38.0574 34.9431 38.0028 34.9978 37.7776 35.2303Z" fill="#ECECC1"/>
<path d="M34.8503 35.0662C34.8503 35.0799 34.9527 35.1756 35.0755 35.2919L35.2939 35.4902L35.096 35.2645C34.9049 35.0594 34.8503 35.0115 34.8503 35.0662Z" fill="#ECECC1"/>
<path d="M17.8876 9.68571C17.5806 10.0208 17.5874 9.59681 17.5874 24.7317V39.0117H28.2045C36.4061 39.0117 38.8898 38.9912 39.1082 38.9296C39.4903 38.8134 40.0702 38.2457 40.1658 37.8833C40.2204 37.6918 40.2408 33.4994 40.2408 23.5896V9.56945H29.112C18.8497 9.56945 17.9763 9.57629 17.8876 9.68571ZM27.1059 15.3143C27.8019 15.4921 28.341 15.7999 28.88 16.3333C29.1529 16.6 29.4122 16.8804 29.4532 16.9557L29.5282 17.0924L29.6033 16.9557C29.6442 16.8804 29.9035 16.6 30.1764 16.3333C30.9611 15.5605 31.8209 15.2117 32.9262 15.2117C34.0248 15.2117 34.8504 15.5537 35.6419 16.347C37.0612 17.7627 37.2795 19.9101 36.2219 22.0918C35.2598 24.0615 33.3629 25.8123 30.7291 27.1596C29.5828 27.7409 29.4873 27.7477 28.4433 27.2211C25.7686 25.8738 23.7966 24.0683 22.8414 22.0918C21.7769 19.8965 21.9885 17.7627 23.4145 16.347C24.2129 15.5537 24.9839 15.2254 26.0824 15.2185C26.4304 15.2117 26.8808 15.2596 27.1059 15.3143ZM22.5139 31.0373C22.6298 31.1604 22.7595 31.5024 22.971 32.2342C23.1348 32.8018 23.2781 33.26 23.2849 33.2532C23.2985 33.2395 23.4145 32.8292 23.551 32.3436C23.9399 30.9484 23.9945 30.8732 24.5199 30.8732C24.7587 30.8732 24.8406 30.9074 24.9839 31.0852C25.0794 31.2015 25.1613 31.3177 25.1613 31.3383C25.1613 31.3656 25.3319 32.2479 25.5298 33.3011C25.8641 35.0245 25.8914 35.2365 25.8095 35.4349C25.6389 35.8384 25.2022 35.9205 24.8952 35.6059C24.7451 35.4554 24.6905 35.2913 24.5881 34.7373C24.5199 34.3611 24.4517 33.9918 24.4312 33.9166C24.4039 33.8345 24.2947 34.1149 24.1378 34.6689C23.8444 35.6674 23.7489 35.7973 23.2849 35.7973C22.8414 35.7973 22.7049 35.6127 22.432 34.6415C22.3023 34.1902 22.1863 33.8277 22.1795 33.8414C22.1659 33.855 22.0908 34.197 22.0157 34.6073C21.8588 35.4827 21.7974 35.6264 21.5381 35.729C21.1355 35.8999 20.7261 35.6469 20.7261 35.2229C20.7261 34.9767 21.3198 31.6187 21.4153 31.3041C21.5108 31.01 21.7155 30.8732 22.0635 30.8732C22.2682 30.8732 22.391 30.9142 22.5139 31.0373ZM29.0847 31.0442C29.2007 31.1536 29.2553 31.2836 29.2553 31.4545C29.2553 31.6255 29.2007 31.7554 29.0847 31.8649C28.9346 32.0222 28.8664 32.0359 28.3 32.0359H27.6859V32.3778V32.7198H28.1636C28.7367 32.7198 29.0097 32.836 29.1052 33.1301C29.2075 33.4105 29.0915 33.7183 28.8391 33.8482C28.7231 33.9098 28.457 33.9508 28.1636 33.9508H27.6859V34.2927V34.6347H28.3C28.8664 34.6347 28.9346 34.6484 29.0847 34.8057C29.3167 35.0314 29.3167 35.4007 29.0847 35.6264C28.9278 35.7905 28.8937 35.7973 27.8906 35.7973C26.8876 35.7973 26.8535 35.7905 26.6965 35.6264L26.526 35.4622V33.3353V31.2083L26.6965 31.0442C26.8535 30.88 26.8876 30.8732 27.8906 30.8732C28.8937 30.8732 28.9278 30.88 29.0847 31.0442ZM30.8997 30.9621C30.9543 31.01 31.3637 31.564 31.8004 32.2L32.5987 33.3558V32.2752C32.5987 31.2562 32.6055 31.181 32.7488 31.0305C32.9535 30.8117 33.3629 30.8117 33.5881 31.0442L33.7587 31.2083L33.7723 33.0754C33.7792 34.1013 33.7792 35.0314 33.7723 35.1476C33.7382 35.6059 33.281 35.9068 32.8989 35.7221C32.7693 35.6606 32.4418 35.2434 31.9505 34.539L31.1999 33.4515L31.1863 34.3338C31.1726 34.8194 31.1522 35.2844 31.1317 35.3665C31.0771 35.599 30.8247 35.7973 30.579 35.7973C29.9581 35.7973 29.9376 35.7221 29.9376 33.3353C29.9376 30.9484 29.9513 30.8869 30.5517 30.88C30.6814 30.88 30.8383 30.9142 30.8997 30.9621ZM35.5396 31.051C35.7033 31.222 35.7033 31.2494 35.7374 32.7745L35.7716 34.3201L36.0036 34.4774C36.1332 34.5663 36.3174 34.6347 36.413 34.6347C36.6586 34.6347 37.0271 34.3953 37.1021 34.1833C37.143 34.0876 37.1703 33.3763 37.1703 32.5967C37.1703 31.2494 37.1772 31.181 37.3204 31.0305C37.5252 30.8117 37.9346 30.8117 38.1597 31.0442L38.3303 31.2083V32.8018C38.3303 34.3338 38.3235 34.409 38.1665 34.7373C37.8663 35.3733 37.2932 35.7426 36.5426 35.7837C35.7374 35.8315 35.1165 35.5101 34.7276 34.8536L34.5434 34.5321V32.836V31.1331L34.7071 31.0031C34.9459 30.8117 35.3349 30.8322 35.5396 31.051Z" fill="#128940"/>
<path d="M28.9372 17.6704C27.9218 17.8325 27.0343 18.3376 26.4139 19.1141C26.1243 19.4721 25.7971 20.1129 25.6843 20.5351C25.297 21.9787 25.7106 23.46 26.7824 24.4777C27.1133 24.7943 27.3803 24.9752 27.8353 25.1901C28.4295 25.4728 28.7116 25.5293 29.4975 25.5293C30.0917 25.5293 30.212 25.518 30.494 25.4388C30.8814 25.3333 31.4154 25.0883 31.7313 24.8735C32.9008 24.0744 33.5702 22.6345 33.4273 21.2211C33.2204 19.2083 31.6297 17.7157 29.6291 17.6516C29.3696 17.6441 29.0575 17.6516 28.9372 17.6704ZM30.0541 18.1793C31.2612 18.3904 32.2314 19.1744 32.709 20.3202C32.9647 20.9421 33.0211 21.7601 32.8519 22.4197C32.7353 22.8758 32.615 23.1434 32.3555 23.5354C31.8704 24.2628 31.0393 24.8245 30.1857 24.9978C29.1177 25.2165 27.9557 24.8885 27.1584 24.1384C26.0792 23.1283 25.7482 21.6394 26.2973 20.2825C26.899 18.805 28.5047 17.9079 30.0541 18.1793Z" fill="url(#paint0_linear_4548_950)"/>
<path d="M28.6856 18.6084C27.8545 18.8345 27.1099 19.4414 26.7188 20.2216C26.5759 20.5119 26.4405 21.0132 26.4142 21.3712C26.3728 21.8763 26.5157 22.6528 26.6849 22.8412C26.8316 23.0033 26.9219 22.9506 28.0124 22.0987C28.5803 21.6539 29.0842 21.2431 29.1331 21.1903C29.2158 21.0961 29.2158 21.0848 29.2158 19.9163C29.2158 18.8459 29.2083 18.7252 29.1519 18.6574C29.0541 18.5443 28.9601 18.533 28.6856 18.6084ZM28.7269 19.9992V20.8963L27.8958 21.5484C27.4408 21.9065 27.0422 22.208 27.0159 22.2155C26.8955 22.2645 26.8655 21.4014 26.9707 20.9868C27.1588 20.2593 27.6815 19.6072 28.3471 19.2755C28.5389 19.1813 28.7044 19.1022 28.7119 19.1022C28.7194 19.1022 28.7269 19.5055 28.7269 19.9992Z" fill="url(#paint1_linear_4548_950)"/>
<path d="M29.8623 18.6013L29.7795 18.6692L29.7871 19.9319L29.7983 21.1908L30.919 22.069C31.5357 22.5515 32.0735 22.9473 32.1111 22.9473C32.2389 22.9473 32.3668 22.7852 32.4458 22.5213C32.9384 20.8855 32.0547 19.1743 30.4564 18.6579C30.0691 18.5335 29.9563 18.5222 29.8623 18.6013ZM30.6858 19.2986C30.9265 19.4193 31.0694 19.5248 31.3026 19.7585C31.7689 20.2296 32.0133 20.7272 32.0697 21.3227C32.0998 21.6092 32.0584 22.1859 32.0058 22.2386C31.9907 22.25 31.5959 21.9635 31.1258 21.5979L30.2722 20.9307V20.0336C30.2684 19.2986 30.2759 19.1403 30.3211 19.1403C30.3474 19.1403 30.5128 19.212 30.6858 19.2986Z" fill="url(#paint2_linear_4548_950)"/>
<path d="M28.8695 22.1475C28.8357 22.1626 28.4521 22.4528 28.0121 22.7958C27.1998 23.4328 27.1359 23.5044 27.2149 23.6816C27.2788 23.8211 27.7977 24.2131 28.14 24.3789C28.4897 24.5485 28.9033 24.6654 29.0387 24.6277C29.2042 24.5862 29.2192 24.4731 29.2079 23.3273L29.1967 22.2606L29.1064 22.189C29.0162 22.1136 28.9748 22.1061 28.8695 22.1475ZM28.7266 23.4969V24.0811L28.6439 24.0548C28.3919 23.9794 27.8617 23.659 27.8617 23.5836C27.8617 23.5534 28.6514 22.9127 28.7003 22.9089C28.7153 22.9089 28.7266 23.1728 28.7266 23.4969Z" fill="url(#paint3_linear_4548_950)"/>
<path d="M29.8919 22.1665L29.7979 22.2155L29.7866 23.3576C29.7791 24.3828 29.7828 24.5109 29.8392 24.575C29.9182 24.6579 30.0197 24.6617 30.3168 24.5826C30.7681 24.4657 31.2532 24.1943 31.6142 23.8589C31.7421 23.7383 31.7722 23.6855 31.7722 23.5762C31.7722 23.448 31.7458 23.4216 31.1817 22.9731C29.9784 22.0308 30.0611 22.0798 29.8919 22.1665ZM30.738 23.2671C30.9448 23.4292 31.1216 23.5686 31.1329 23.5799C31.1817 23.6214 30.5876 23.987 30.3544 24.0586L30.2679 24.0813V23.4895C30.2679 23.0221 30.2792 22.909 30.3168 22.9354C30.3394 22.958 30.5312 23.105 30.738 23.2671Z" fill="url(#paint4_linear_4548_950)"/>
</g>
<path d="M71.3444 19.676C71.3444 22.0763 69.6006 24.374 66.3592 24.374H64.164V29.585H60.5738V14.9779H66.3592C69.6006 14.9779 71.3444 17.2757 71.3444 19.676ZM67.7542 19.676C67.7542 18.9169 67.1798 18.1989 66.195 18.1989H64.164V21.1531H66.195C67.1798 21.1531 67.7542 20.4351 67.7542 19.676ZM82.4471 25.1536H75.8411C75.8411 26.0563 76.5387 26.8769 77.7901 26.8769C78.9595 26.8769 79.4724 26.5487 80.0673 25.9537L82.0778 27.9642C80.9495 29.0926 79.8417 29.7081 77.7901 29.7081C75.3488 29.7081 72.5382 28.8259 72.5382 24.0663C72.5382 20.4556 74.5897 18.4245 77.4824 18.4245C80.6828 18.4245 82.4471 20.7633 82.4471 23.656V25.1536ZM79.1236 22.9174C79.1236 22.6507 79.0826 22.343 78.939 22.0558C78.7338 21.5839 78.2825 21.1941 77.4824 21.1941C76.6823 21.1941 76.2309 21.5839 76.0258 22.0558C75.8822 22.343 75.8411 22.6507 75.8411 22.9174H79.1236ZM93.1273 29.585H89.8449V28.6823C89.1679 29.3593 88.5524 29.6875 87.383 29.6875C86.2752 29.6875 85.352 29.3183 84.7365 28.7028C84.1005 28.0668 83.7723 27.1436 83.7723 26.1178C83.7723 24.4561 84.9006 22.9174 87.5266 22.9174H89.7628V22.6302C89.7628 21.625 89.2704 21.2557 88.1011 21.2557C87.2394 21.2557 86.8701 21.4608 86.3367 21.9942L84.2442 19.9017C85.3725 18.7733 86.3983 18.4245 88.2652 18.4245C91.4246 18.4245 93.1273 19.7375 93.1273 22.4251V29.585ZM89.7628 25.4408V25.1536H88.06C87.4035 25.1536 86.9932 25.5229 86.9932 26.0358C86.9932 26.5282 87.3625 26.959 88.1011 26.959C88.7576 26.959 89.0653 26.8974 89.4346 26.5487C89.6808 26.323 89.7628 25.9742 89.7628 25.4408ZM103.593 28.2925C102.69 29.1952 101.5 29.7081 99.9617 29.7081C98.0538 29.7081 94.997 28.8874 94.997 24.0663C94.997 19.2452 98.0538 18.4245 99.9617 18.4245C101.5 18.4245 102.69 18.9374 103.593 19.8401L101.316 22.1173C100.885 21.6865 100.516 21.4608 99.9617 21.4608C99.5104 21.4608 99.2027 21.6044 98.9154 21.8917C98.5256 22.302 98.3615 23.02 98.3615 24.0663C98.3615 25.1126 98.5256 25.8306 98.9154 26.2409C99.2027 26.5282 99.5104 26.6718 99.9617 26.6718C100.516 26.6718 100.885 26.4461 101.316 26.0153L103.593 28.2925ZM114.282 25.1536H107.676C107.676 26.0563 108.374 26.8769 109.625 26.8769C110.795 26.8769 111.307 26.5487 111.902 25.9537L113.913 27.9642C112.785 29.0926 111.677 29.7081 109.625 29.7081C107.184 29.7081 104.373 28.8259 104.373 24.0663C104.373 20.4556 106.425 18.4245 109.317 18.4245C112.518 18.4245 114.282 20.7633 114.282 23.656V25.1536ZM110.959 22.9174C110.959 22.6507 110.918 22.343 110.774 22.0558C110.569 21.5839 110.118 21.1941 109.317 21.1941C108.517 21.1941 108.066 21.5839 107.861 22.0558C107.717 22.343 107.676 22.6507 107.676 22.9174H110.959ZM134.701 29.585H131.11V22.5892L129.038 26.1999H126.741L124.669 22.5892V29.585H121.078V14.9779H124.607L127.89 21.4198L131.172 14.9779H134.701V29.585ZM146.858 25.1536H140.252C140.252 26.0563 140.95 26.8769 142.201 26.8769C143.371 26.8769 143.884 26.5487 144.479 25.9537L146.489 27.9642C145.361 29.0926 144.253 29.7081 142.201 29.7081C139.76 29.7081 136.95 28.8259 136.95 24.0663C136.95 20.4556 139.001 18.4245 141.894 18.4245C145.094 18.4245 146.858 20.7633 146.858 23.656V25.1536ZM143.535 22.9174C143.535 22.6507 143.494 22.343 143.35 22.0558C143.145 21.5839 142.694 21.1941 141.894 21.1941C141.094 21.1941 140.642 21.5839 140.437 22.0558C140.294 22.343 140.252 22.6507 140.252 22.9174H143.535ZM158.339 29.585H154.974V22.979C154.974 21.707 154.072 21.4608 153.62 21.4608C153.169 21.4608 152.266 21.707 152.266 22.979V29.585H148.902V18.5476H152.184V19.4503C152.861 18.7733 153.866 18.4245 154.749 18.4245C155.795 18.4245 156.636 18.7733 157.231 19.3683C158.175 20.312 158.339 21.3583 158.339 22.5276V29.585ZM170.117 29.585H166.834V28.6823C166.157 29.3593 165.152 29.7081 164.27 29.7081C163.224 29.7081 162.382 29.3593 161.787 28.7643C160.844 27.8206 160.68 26.7743 160.68 25.605V18.5476H164.044V25.1536C164.044 26.4256 164.947 26.6718 165.398 26.6718C165.85 26.6718 166.752 26.4256 166.752 25.1536V18.5476H170.117V29.585Z" fill="url(#paint5_linear_4548_950)"/>
<defs>
<linearGradient id="paint0_linear_4548_950" x1="29.494" y1="25.5293" x2="29.494" y2="17.6487" gradientUnits="userSpaceOnUse">
<stop stop-color="#005B94"/>
<stop offset="1" stop-color="#128940"/>
</linearGradient>
<linearGradient id="paint1_linear_4548_950" x1="27.8114" y1="22.9141" x2="27.8114" y2="18.5604" gradientUnits="userSpaceOnUse">
<stop stop-color="#005B94"/>
<stop offset="1" stop-color="#128940"/>
</linearGradient>
<linearGradient id="paint2_linear_4548_950" x1="31.1808" y1="22.9473" x2="31.1808" y2="18.5511" gradientUnits="userSpaceOnUse">
<stop stop-color="#005B94"/>
<stop offset="1" stop-color="#128940"/>
</linearGradient>
<linearGradient id="paint3_linear_4548_950" x1="28.2001" y1="24.6348" x2="28.2001" y2="22.1225" gradientUnits="userSpaceOnUse">
<stop stop-color="#005B94"/>
<stop offset="1" stop-color="#128940"/>
</linearGradient>
<linearGradient id="paint4_linear_4548_950" x1="30.7779" y1="24.6396" x2="30.7779" y2="22.1233" gradientUnits="userSpaceOnUse">
<stop stop-color="#005B94"/>
<stop offset="1" stop-color="#128940"/>
</linearGradient>
<linearGradient id="paint5_linear_4548_950" x1="115.597" y1="14.585" x2="115.597" y2="29.585" gradientUnits="userSpaceOnUse">
<stop stop-color="#005B94"/>
<stop offset="1" stop-color="#128940"/>
</linearGradient>
<clipPath id="clip0_4548_950">
<rect width="35.0162" height="34.9354" fill="white" transform="translate(12.0605 5.1582)"/>
</clipPath>
</defs>
</svg>
