<svg width="199" height="44" viewBox="0 0 199 44" fill="none" xmlns="http://www.w3.org/2000/svg">
<rect x="0.5" y="0.5" width="198" height="42.4182" rx="4.5" fill="#DCE7B0" stroke="white"/>
<path fill-rule="evenodd" clip-rule="evenodd" d="M29.3427 5C29.3715 5 29.5154 5.05053 29.6592 5.10827C29.8103 5.16601 30.0189 5.31759 30.1196 5.44752C30.2203 5.57744 30.3714 5.85894 30.4577 6.06826C30.544 6.27037 30.6159 6.45803 30.6159 6.47969C30.6159 6.50134 30.4793 6.51578 30.3066 6.51578C30.098 6.51578 29.8463 6.59518 29.501 6.76841C29.1629 6.93442 28.8033 7.2087 28.4004 7.59848C28.0767 7.91607 27.789 8.17592 27.753 8.17592C27.7243 8.18313 27.6236 8.03877 27.5301 7.87276C27.3574 7.5696 27.3574 7.55517 27.4725 7.20149C27.5373 7.0066 27.6811 6.66014 27.8034 6.4436C27.9185 6.22706 28.1703 5.87338 28.3645 5.65684C28.5515 5.4403 28.8392 5.20932 28.9975 5.13714C29.1557 5.06496 29.3068 5 29.3355 5H29.3427ZM23.9551 6.67457C24.3866 6.69623 24.5881 6.76119 25.1563 7.03547C25.5304 7.22314 25.9907 7.46855 26.1777 7.59126C26.523 7.81502 26.523 7.81502 26.523 8.21201C26.523 8.60899 26.523 8.60899 26.3216 8.56569C26.2137 8.54403 25.8828 8.47907 25.5879 8.41411C25.2354 8.34193 24.8182 8.31306 24.401 8.33471C23.9191 8.35636 23.6745 8.40689 23.4443 8.52238C23.2789 8.60899 23.1278 8.65952 23.1063 8.63065C23.0847 8.59456 23.0703 8.21922 23.0703 7.79336C23.0775 7.05713 23.0847 7.0066 23.2573 6.82615C23.43 6.65292 23.4803 6.6457 23.9551 6.67457ZM29.8463 8.39967C29.9182 8.39245 29.9901 8.41411 30.0045 8.4502C30.0189 8.47907 30.1987 8.60178 30.4145 8.7317C30.6303 8.85441 30.8677 9.00598 30.9468 9.05651C31.0835 9.15756 31.0547 9.172 30.5656 9.31636C30.285 9.40297 30.0477 9.49681 30.0477 9.5329C30.0477 9.56177 30.1628 9.75666 30.2994 9.96598C30.4361 10.1681 30.5512 10.3774 30.5512 10.4135C30.5512 10.4568 30.4073 10.4207 30.2275 10.3413C30.0333 10.2547 29.8535 10.2186 29.7743 10.2475C29.7024 10.2836 29.6736 10.2764 29.7024 10.233C29.7312 10.1897 29.5154 10.0165 29.1989 9.82162C28.8968 9.63395 28.5083 9.35245 28.3357 9.18643C28.1703 9.02764 28.0192 8.83997 27.9976 8.77501C27.9688 8.65952 28.048 8.63787 28.7025 8.58734C29.1054 8.55125 29.501 8.49351 29.5801 8.46463C29.6592 8.42854 29.7815 8.39967 29.8463 8.39967ZM18.3947 9.07816C18.4235 9.12147 18.776 9.68447 19.1644 10.3413C19.56 10.9981 20.2434 12.1386 20.6822 12.8893C21.1281 13.6327 21.4806 14.2535 21.4662 14.2751C21.459 14.2968 20.9987 13.972 20.4448 13.5461C19.8909 13.1275 19.3658 12.7305 19.2795 12.6655C19.1932 12.6005 18.8479 12.3335 18.5098 12.0736C18.0063 11.6911 17.8984 11.5684 17.8912 11.4096C17.8912 11.2941 17.92 11.0703 17.9631 10.9043C17.9991 10.7311 18.0854 10.3052 18.143 9.94432C18.2077 9.59064 18.2724 9.22974 18.294 9.15034C18.3228 9.06373 18.3588 9.03486 18.3947 9.07816ZM26.5446 9.04929C26.5806 9.04207 26.6093 9.12147 26.6165 9.22252C26.6237 9.31636 26.6093 9.40297 26.5734 9.40297C26.5446 9.40297 26.523 9.47515 26.523 9.56899C26.523 9.6556 26.4727 9.8938 26.4079 10.0887C26.3504 10.2908 26.1849 10.6517 26.0555 10.9043C25.8828 11.2147 25.8325 11.359 25.89 11.3807C25.9524 11.4 25.9476 11.412 25.8756 11.4168C25.8181 11.4168 25.6958 11.5539 25.6023 11.7127C25.516 11.8715 25.4081 12.0014 25.3721 12.0014C25.3289 12.0014 25.3146 11.821 25.3361 11.5323C25.3649 11.2003 25.3433 11.0487 25.2786 11.0198C25.2354 10.9981 24.9765 11.0198 24.7103 11.0775C24.4442 11.1281 24.2212 11.1642 24.2212 11.1569C24.2212 11.1425 24.3579 10.8466 24.8326 9.85771L25.3361 9.6556C25.6095 9.54012 25.9835 9.35967 26.1634 9.2514C26.3432 9.14313 26.5158 9.04929 26.5446 9.04929ZM40.9238 12.0736C40.9597 12.0736 41.2546 12.3118 41.5927 12.6005C41.9308 12.882 42.2041 13.1347 42.2041 13.1563C42.2041 13.178 41.974 13.2213 41.6862 13.2502C41.3985 13.279 40.4778 13.3729 39.6506 13.4523C38.8162 13.5317 38.1256 13.575 38.104 13.5533C38.0824 13.5317 38.0824 13.51 38.104 13.4956C38.1256 13.4811 38.7514 13.1563 39.5067 12.7738C40.2548 12.3912 40.895 12.0808 40.9238 12.0736ZM39.7585 15.5599C40.0965 15.5599 40.226 15.5744 40.0462 15.5888C39.8664 15.6032 39.593 15.6032 39.4348 15.5888C39.2765 15.5744 39.4204 15.5599 39.7585 15.5599ZM16.6828 16.6931H18.366C19.4377 16.6931 20.0492 16.722 20.0492 16.7653C20.0492 16.8086 19.9916 16.8519 19.9197 16.8664C19.8549 16.8808 19.186 17.1118 18.4307 17.3716C17.6754 17.6387 16.8698 17.9202 16.6324 17.9996C16.395 18.079 16.1936 18.1295 16.1864 18.1223C16.1792 18.1079 16.2871 17.7831 16.4238 17.4005L16.6828 16.6931ZM16.0929 18.9307L23.7608 18.9235L23.9191 19.4143C24.0054 19.6814 24.0773 19.9412 24.0773 19.9918C24.0773 20.0567 24.2428 20.0856 24.6024 20.1073C24.8902 20.1145 24.6456 20.1289 23.0056 20.1578V25.5713H26.4583V24.4886H24.3003L24.3363 23.3698L24.9837 23.3553C25.3361 23.3481 25.703 23.3337 25.7893 23.3337C25.9476 23.3337 25.9476 23.3048 25.9332 22.7851C25.9188 22.316 25.9332 22.2438 26.0411 22.2438C26.113 22.2438 26.3504 22.2005 26.5806 22.1355C26.8107 22.0778 27.0481 21.9911 27.1201 21.9551C27.192 21.919 27.343 21.8901 27.4653 21.8901C27.5804 21.8901 27.6811 21.854 27.6811 21.8179C27.6811 21.7746 27.7746 21.7313 27.8897 21.7241C28.012 21.7169 28.1055 21.7385 28.1127 21.7818C28.1127 21.8179 28.0192 22.1283 27.9041 22.4675C27.7962 22.7996 27.5157 23.6224 27.2927 24.2865C27.0697 24.9505 26.8899 25.5135 26.8899 25.5352C26.8899 25.5496 27.1776 25.5713 28.1846 25.5713L28.3213 25.0804C28.4004 24.8134 28.4652 24.5535 28.4652 24.503C28.4652 24.438 28.6954 24.4164 30.2707 24.4164L30.4145 24.9216C30.4936 25.1959 30.5584 25.4558 30.5584 25.4991C30.5584 25.5352 30.8317 25.5713 31.9251 25.5713L30.3786 20.9734L30.7023 20.894C30.8749 20.8507 31.1338 20.7857 31.2777 20.7424C31.4144 20.7063 31.9826 20.5331 32.5365 20.3671C33.0904 20.2011 33.6371 20.0423 33.7593 20.0134C33.8744 19.9845 34.2485 19.8618 34.5866 19.7536C34.9174 19.6453 35.2915 19.4865 35.4138 19.4071C35.5289 19.3277 35.6943 19.1906 35.9173 18.9307L43.0385 18.9668L43.0601 19.9412C43.0745 20.4754 43.0601 22.2221 43.0385 23.8173C43.0098 25.7156 42.9738 26.7117 42.9306 26.6901C42.8875 26.6684 42.8587 26.6828 42.8587 26.7261C42.8587 26.7695 38.363 26.7983 16.172 26.7983L16.1433 26.3075C16.1361 26.0404 16.1145 24.272 16.1073 22.3737L16.0929 18.9307ZM32.9681 20.4609C32.8099 20.562 32.5581 20.7713 32.407 20.9229C32.256 21.0745 32.0546 21.3704 31.9539 21.5653C31.8604 21.7674 31.7453 22.1355 31.6949 22.3954C31.6374 22.7563 31.6374 22.98 31.7093 23.3698C31.7525 23.6513 31.8819 24.0338 31.9826 24.2215C32.0905 24.4164 32.2704 24.6762 32.3926 24.7917C32.5077 24.9144 32.7379 25.1021 32.8962 25.2104C33.0544 25.3114 33.3781 25.463 33.6155 25.5352C33.9464 25.6362 34.1909 25.6579 34.6945 25.629C35.2196 25.6001 35.421 25.5496 35.7662 25.3836C35.9964 25.2681 36.2985 25.0732 36.428 24.9577L36.6654 24.7412L36.0252 23.839C35.6583 24.1132 35.4138 24.2576 35.2339 24.337C35.0541 24.4164 34.7664 24.4886 34.5866 24.4886C34.4067 24.4886 34.1478 24.4453 34.0111 24.3875C33.8744 24.337 33.6586 24.2071 33.5436 24.1132C33.4213 24.0122 33.2486 23.7596 33.1551 23.543C33.0185 23.2326 32.9897 23.0594 33.0113 22.6696C33.0328 22.2799 33.076 22.1355 33.2558 21.8757C33.3853 21.6952 33.6011 21.5003 33.7953 21.3993C34.0255 21.2838 34.2413 21.2405 34.565 21.2405C34.9318 21.2405 35.1045 21.2838 35.4785 21.4787L35.9389 21.7096C36.3992 20.9806 36.5215 20.7713 36.5143 20.7641C36.4999 20.7641 36.3777 20.6775 36.241 20.5692C36.1043 20.4682 35.795 20.3166 35.5576 20.23C35.2339 20.1217 34.9606 20.0856 34.4787 20.0928C34.119 20.0928 33.7018 20.1433 33.5436 20.1866C33.3853 20.2372 33.1264 20.3599 32.9681 20.4609ZM18.6897 25.5713H19.9125L19.9485 23.9472C20.9483 23.875 21.3655 23.8173 21.5094 23.774C21.6604 23.7307 21.8978 23.5863 22.0417 23.4636C22.1927 23.3337 22.3869 23.0666 22.4733 22.8645C22.5955 22.6047 22.6459 22.3737 22.6459 22.0345C22.6459 21.7746 22.6027 21.4354 22.5524 21.2766C22.502 21.1178 22.3222 20.8435 22.1424 20.6486C21.9338 20.4393 21.7108 20.2877 21.531 20.2372C21.3727 20.1939 20.6678 20.1578 19.9628 20.1578H18.6897V25.5713ZM37.0322 25.5713H40.485V24.4886L38.291 24.4525V23.3698H39.9239L39.9455 22.251H38.2551L38.291 21.2766L40.413 21.2405V20.1578H37.0322V25.5713ZM25.7749 20.1073C26.0914 20.1073 26.2353 20.1217 26.0986 20.1361C25.9619 20.1506 25.703 20.1506 25.5232 20.1361C25.3433 20.1217 25.4584 20.1073 25.7749 20.1073ZM29.3787 20.0856C29.7528 20.0856 30.0693 20.1073 30.0836 20.1433C30.098 20.1722 29.8031 20.1866 29.4147 20.1722C28.9112 20.1578 28.7097 20.1794 28.6666 20.2444C28.6378 20.3021 28.609 20.3094 28.6018 20.2588C28.5947 20.2155 28.6162 20.1578 28.6522 20.1361C28.681 20.1073 29.0119 20.0856 29.3787 20.0856ZM24.3866 21.2405C24.437 21.2405 24.5449 21.3487 24.624 21.4931C24.7031 21.6375 24.8398 21.7963 24.9261 21.854C25.0268 21.919 25.07 21.9984 25.034 22.0561C25.0053 22.1066 25.0125 22.1211 25.0556 22.0922C25.0916 22.0633 25.1923 22.085 25.2714 22.1427C25.4009 22.2366 25.3577 22.2438 24.3003 22.251V21.7457C24.3003 21.3921 24.3291 21.2405 24.3866 21.2405ZM12.036 25.6074L12.0575 30.66C12.0719 35.3228 12.0863 35.7198 12.2014 35.8064C12.3093 35.8858 12.3021 35.893 12 35.7486L12.036 25.6074ZM34.5866 35.7125C41.492 35.7125 44.3045 35.7198 40.8446 35.727C37.3847 35.7414 31.7309 35.7414 28.2925 35.727C24.847 35.7198 27.6811 35.7125 34.5866 35.7125Z" fill="#3A9948"/>
<path fill-rule="evenodd" clip-rule="evenodd" d="M30.3281 6.73926C30.4648 6.73926 30.6375 6.77535 30.7022 6.82587C30.7741 6.8764 30.8389 7.02798 30.8604 7.16512C30.8892 7.38166 30.8604 7.44662 30.6303 7.65594C30.4864 7.78587 30.1699 7.96632 29.9325 8.06737C29.688 8.1612 29.2204 8.26947 28.8535 8.31278C28.5011 8.34887 28.1774 8.35609 28.1486 8.33443C28.1198 8.30556 28.3572 8.03128 28.6881 7.7209C29.019 7.41053 29.465 7.06407 29.6808 6.94858C29.8966 6.84031 30.1915 6.73926 30.3281 6.73926ZM27.0696 7.67038C27.12 7.67038 27.2423 7.85083 27.343 8.06737C27.4437 8.28391 27.5156 8.47879 27.5012 8.49323C27.494 8.50045 27.3718 8.55097 27.2351 8.6015C27.0984 8.64481 26.9545 8.6809 26.9114 8.6809C26.8682 8.6809 26.8179 8.49323 26.7891 8.26947C26.7459 7.92301 26.7531 7.83639 26.861 7.75699C26.9258 7.71369 27.0193 7.67038 27.0696 7.67038ZM32.1624 7.86526C32.2415 7.87248 32.3926 7.90135 32.5077 7.92301C32.6156 7.94466 32.817 8.06737 32.9608 8.19007C33.1047 8.32 33.2773 8.5221 33.3493 8.64481C33.4212 8.76029 33.5795 9.20059 33.7017 9.61924C33.8168 10.0379 33.9823 10.6081 34.0686 10.8824C34.1549 11.1567 34.234 11.4165 34.2412 11.4598C34.2556 11.4959 34.2844 11.6258 34.3132 11.7485C34.3419 11.8712 34.3995 12.03 34.4283 12.1094C34.4642 12.1888 34.5793 12.5425 34.68 12.9034C34.7807 13.2571 35.0613 14.2171 35.2986 15.0327C35.536 15.8484 35.8165 16.7867 35.9172 17.1259C36.0179 17.4652 36.1187 17.8838 36.133 18.0643C36.1546 18.2592 36.1187 18.4901 36.0611 18.6417C35.9964 18.7789 35.8741 18.981 35.7806 19.082C35.6943 19.1831 35.5144 19.3346 35.3993 19.414C35.2842 19.4934 34.9102 19.645 34.5721 19.7605C34.234 19.8688 33.86 19.9843 33.7449 20.0131C33.6298 20.0492 33.0759 20.208 32.5221 20.374C31.9682 20.5401 31.4143 20.6988 31.2992 20.7349C31.1841 20.771 30.9683 20.8288 30.8317 20.8721C30.695 20.9154 30.5296 20.9515 30.472 20.9515C30.4073 20.9515 30.3066 20.7927 30.0764 20.1214H28.6593L28.5586 20.4101C28.5011 20.5689 28.4363 20.7494 28.422 20.8071C28.4076 20.8649 28.3428 21.0742 28.2853 21.2763C28.2205 21.4712 28.127 21.6588 28.0767 21.6877C28.0335 21.7166 27.9184 21.7455 27.8249 21.7455C27.7386 21.7455 27.6667 21.7743 27.6667 21.8176C27.6667 21.8609 27.5732 21.8898 27.4509 21.8898C27.3286 21.8898 27.1775 21.9187 27.1056 21.962C27.0409 21.9981 26.7963 22.0775 26.5661 22.1424C26.3431 22.2002 25.9835 22.2507 25.7749 22.2507C25.5663 22.2507 25.3361 22.2002 25.257 22.1424C25.1778 22.0847 25.0843 22.063 25.0412 22.0919C24.998 22.1208 24.9908 22.1064 25.0196 22.0486C25.0556 21.9981 25.0124 21.9187 24.9117 21.8465C24.8254 21.7888 24.6959 21.6444 24.624 21.5217C24.5592 21.4062 24.5017 21.2979 24.5017 21.2763C24.5017 21.2546 24.7534 21.2474 25.0556 21.2474C25.3649 21.2546 25.7893 21.2546 26.3719 21.2402L26.3359 20.1214L25.7245 20.107C25.3864 20.0998 24.8829 20.0925 24.1061 20.0853L23.9766 19.6378C23.9046 19.3852 23.7967 19.0171 23.7392 18.8222C23.6745 18.6201 23.5666 18.2664 23.5018 18.0282C23.4299 17.79 23.358 17.5446 23.3292 17.4868C23.3076 17.4291 23.2429 17.2126 23.1853 17.0177C23.1278 16.8156 23.0127 16.4258 22.9336 16.1515C22.8544 15.8772 22.6818 15.2926 22.5595 14.8523C22.43 14.412 22.2646 13.8634 22.1927 13.6252C22.1135 13.387 22.056 13.1416 22.056 13.0839C22.056 13.0261 22.0344 12.9467 22.0056 12.9179C21.9697 12.8818 21.9121 12.7013 21.8618 12.5209C21.8114 12.3332 21.7755 12.0734 21.7683 11.9434C21.7683 11.8207 21.8258 11.5753 21.9049 11.4021C21.9769 11.2361 22.1351 11.0123 22.243 10.904C22.3581 10.7958 22.5955 10.6442 22.7753 10.5648C22.9551 10.4926 23.4802 10.3122 23.9406 10.1678C24.4082 10.0234 24.7894 9.92961 24.7894 9.95848C24.7894 9.99457 24.6599 10.2616 24.5017 10.5576C24.3434 10.8535 24.214 11.1134 24.214 11.135C24.214 11.1567 24.4369 11.1278 24.7031 11.0773C24.9692 11.0195 25.2282 10.9979 25.2713 11.0195C25.3217 11.0412 25.3649 11.1783 25.3649 11.3155C25.3649 11.5681 25.3649 11.5681 24.8757 11.6908C24.6096 11.7558 24.3147 11.8496 24.214 11.9001C24.1132 11.9506 23.9478 12.0806 23.8399 12.1961C23.696 12.3404 23.6457 12.4559 23.6673 12.6147C23.6817 12.7374 23.7248 12.9034 23.7752 12.99C23.8183 13.0839 23.8471 13.1777 23.8399 13.2066C23.8399 13.2427 23.8543 13.3148 23.8759 13.3726C23.8974 13.4303 23.9838 13.6757 24.0557 13.9139C24.1348 14.1521 24.2499 14.5419 24.3147 14.7801C24.3794 15.0183 24.4873 15.372 24.5448 15.5741C24.6096 15.769 24.7391 16.2309 24.8326 16.5846C24.9333 16.9383 25.0412 17.328 25.0771 17.4508C25.1131 17.5735 25.221 17.9344 25.3073 18.2592C25.4008 18.584 25.5015 18.8871 25.5447 18.9304C25.595 18.9882 25.7101 18.8294 25.9331 18.4107C26.1058 18.0787 26.3359 17.6456 26.4438 17.4508C26.5517 17.2486 26.7603 16.8878 26.9042 16.6351C27.0481 16.3897 27.1632 16.166 27.1632 16.1299C27.1632 16.101 27.2567 15.9278 27.3789 15.7329C27.494 15.5452 27.5732 15.3936 27.5372 15.3936C27.5084 15.4008 27.5372 15.3431 27.6019 15.2709C27.6667 15.1987 27.7746 15.0327 27.8393 14.91C27.904 14.7801 27.94 14.5852 27.9256 14.4769C27.9112 14.3615 27.8609 14.1882 27.8177 14.08C27.7746 13.9645 27.753 13.8778 27.7746 13.8778C27.7962 13.8778 27.7818 13.8201 27.7458 13.7479C27.7098 13.683 27.6595 13.5169 27.6379 13.387C27.6163 13.2643 27.566 13.0983 27.53 13.0261C27.494 12.9612 27.4077 12.7085 27.343 12.4703C27.2782 12.2321 27.1488 11.8135 27.0696 11.5464C26.9833 11.2794 26.9114 11.0556 26.9114 11.0628C26.9114 11.0628 26.7172 11.1278 26.4798 11.2072C26.2424 11.2866 25.9907 11.3516 25.9187 11.3516C25.818 11.3516 25.8324 11.2794 26.0482 10.904C26.1777 10.6514 26.3431 10.2905 26.4007 10.0884C26.4654 9.89352 26.5158 9.65533 26.5158 9.56871C26.5158 9.43157 26.5733 9.38826 26.8179 9.3233C26.9905 9.27999 27.2567 9.20059 27.4149 9.15007C27.5732 9.09954 27.789 9.03458 27.8969 9.01292C28.0623 8.97683 28.1558 9.02014 28.4363 9.27999C28.6306 9.45322 29.0046 9.72029 29.2708 9.87908C29.5441 10.0307 29.7383 10.1822 29.7023 10.2039C29.6736 10.2328 29.4002 10.3266 29.1053 10.4204C28.8104 10.507 28.5586 10.5864 28.5442 10.5864C28.5299 10.5937 28.5586 10.7885 28.609 11.0267C28.6593 11.2649 28.7241 11.4743 28.7456 11.4959C28.7672 11.5176 28.8464 11.7269 28.9111 11.9651C28.983 12.2033 29.055 12.492 29.0765 12.6147C29.0981 12.7374 29.1557 12.8745 29.1988 12.9251C29.2492 12.9756 29.2636 13.0189 29.2276 13.0117C29.1988 13.0117 29.2276 13.1344 29.2851 13.286C29.3427 13.4303 29.3786 13.5603 29.3571 13.5747C29.3355 13.5819 29.3786 13.7407 29.4578 13.9356C29.5729 14.2315 29.652 14.3109 30.1195 14.578C30.4145 14.7512 30.7022 14.91 30.7597 14.9317C30.8173 14.9533 31.0115 15.0472 31.1913 15.141C31.3712 15.2348 31.8099 15.4658 32.1624 15.6607C32.5149 15.8556 33.0616 16.1515 33.3637 16.3175C33.673 16.4835 33.9463 16.6135 33.9679 16.6062C33.9895 16.5918 33.9679 16.4547 33.9175 16.2959C33.8744 16.1371 33.824 15.9783 33.8168 15.935C33.8096 15.8917 33.7233 15.5669 33.6154 15.2132C33.5075 14.8595 33.3493 14.3326 33.2702 14.0583C33.1838 13.784 33.0903 13.4736 33.0544 13.3726C33.0184 13.2715 33.004 13.1777 33.0256 13.1561C33.04 13.1344 33.0112 13.0406 32.9608 12.9395C32.9033 12.8385 32.8098 12.5786 32.7522 12.3621C32.6875 12.1455 32.5365 11.6258 32.4142 11.2072C32.2919 10.7885 32.148 10.3555 32.1049 10.24C32.0545 10.1245 31.9322 9.97292 31.8171 9.90074C31.7092 9.82134 31.5366 9.7636 31.4215 9.7636C31.3136 9.7636 31.0331 9.82856 30.7957 9.90796C30.5583 9.98735 30.3569 10.0523 30.3425 10.0523C30.3353 10.0523 30.2634 9.94405 30.1843 9.82134C30.1052 9.69142 30.0404 9.56149 30.0404 9.53262C30.0404 9.49653 30.2706 9.4027 30.5439 9.31608C30.8245 9.22225 31.0475 9.14285 31.0475 9.13563C31.0475 9.12119 30.8748 9.01292 30.6662 8.883C30.4648 8.76029 30.2131 8.60872 30.1124 8.55097C29.9397 8.44992 29.9397 8.4427 30.0764 8.37052C30.1555 8.33443 30.3641 8.25504 30.5439 8.21173C30.7238 8.1612 31.0475 8.06737 31.2633 8.00962C31.4791 7.95188 31.738 7.88692 31.8387 7.87248C31.9394 7.85083 32.0833 7.85083 32.1624 7.86526ZM30.6446 17.8117C30.9252 18.7933 30.9755 18.8944 31.1266 18.916C31.2201 18.9304 31.4287 18.9088 31.587 18.8655C31.7452 18.8294 32.2487 18.685 32.7019 18.5479L33.5291 18.3025C33.1407 18.1004 32.9105 17.9777 32.7738 17.8983C32.6372 17.8189 32.2775 17.624 31.9826 17.4652C31.6877 17.3064 31.1913 17.0393 30.8748 16.8661C30.5655 16.7001 30.3138 16.599 30.321 16.6423C30.3281 16.6929 30.472 17.2126 30.6446 17.8117ZM28.3572 17.393C28.2205 17.6673 27.9688 18.122 27.8105 18.4035L27.5228 18.9304H29.2132C28.9543 18.0065 28.8176 17.5518 28.7456 17.3208L28.6234 16.9094L28.3572 17.393ZM38.7657 8.14677L38.8521 8.53654C38.9024 8.75308 38.9743 9.22225 39.0247 9.57593C39.0679 9.93683 39.1182 10.3194 39.1398 10.4277C39.1614 10.5937 39.1182 10.6586 38.8593 10.8607C38.6866 10.9907 38.291 11.2866 37.9745 11.5176C37.6652 11.7558 37.3918 11.9651 37.3703 11.9867C37.3487 12.0156 37.0753 12.2321 36.7588 12.4703C36.4423 12.7085 36.0755 12.9828 35.9316 13.0839C35.795 13.1777 35.7014 13.2282 35.7302 13.1849C35.7518 13.1488 35.9604 12.7879 36.1978 12.3909C36.4352 11.994 37.0322 11.0195 37.5141 10.2255C38.0033 9.43157 38.4852 8.63759 38.5859 8.46436L38.7657 8.14677ZM24.3434 8.53654C24.4873 8.53654 24.9692 8.59428 25.4224 8.67368C25.8828 8.75308 26.264 8.83247 26.2712 8.85413C26.2784 8.87578 26.1201 8.98405 25.9115 9.10676C25.7029 9.22225 25.2857 9.39548 24.9764 9.50375C24.6455 9.61202 24.2499 9.6842 24.0053 9.69142C23.6601 9.69142 23.5594 9.66254 23.3939 9.51097C23.286 9.40991 23.1925 9.28721 23.1925 9.23668C23.1925 9.18616 23.2501 9.07067 23.3076 8.98405C23.3723 8.89022 23.5234 8.76751 23.6529 8.70977C23.7752 8.65202 23.8615 8.61593 23.8471 8.64481C23.8327 8.66646 23.8831 8.65202 23.955 8.60872C24.0341 8.57263 24.2068 8.53654 24.3434 8.53654ZM16.0857 13.0045L16.3087 13.1272C16.4381 13.1921 16.8338 13.4087 17.1862 13.6108C17.5459 13.8129 17.8983 14.0222 17.9775 14.0655C18.0566 14.116 18.1717 14.1738 18.2292 14.2027C18.294 14.2243 18.445 14.3037 18.5817 14.3687C18.7112 14.4336 18.8478 14.5203 18.8766 14.5563C18.9198 14.6069 18.8047 14.6285 18.5673 14.6213C18.3659 14.6141 18.0638 14.5852 17.9055 14.5636C17.7473 14.5419 17.1359 14.4769 16.5388 14.412C15.949 14.3542 15.3232 14.2748 14.8269 14.1954L16.0857 13.0045ZM37.8378 15.5308C38.2334 15.5308 38.9743 15.5596 39.4851 15.5885C39.9958 15.6174 40.4202 15.6751 40.4346 15.7112C40.4417 15.7545 40.5137 15.9783 40.5784 16.2165C40.6504 16.4547 40.7295 16.6929 40.7654 16.7434C40.8014 16.7939 40.7942 16.8444 40.7511 16.8661C40.7151 16.8878 40.6072 16.8733 40.5209 16.8372C40.4274 16.8011 40.0317 16.6496 39.6361 16.5052C39.2405 16.3608 38.7585 16.1804 38.5571 16.1082C38.3629 16.036 37.9745 15.8917 37.694 15.7834C37.4206 15.6751 37.176 15.5741 37.1545 15.5596C37.1401 15.5452 37.4422 15.5308 37.8378 15.5308ZM43.0025 23.8315C43.0097 23.8315 43.1823 23.8964 43.3766 23.983C43.578 24.0697 43.8729 24.1996 44.0455 24.2718C44.211 24.3512 44.3692 24.4089 44.3836 24.4089C44.4052 24.4089 44.5778 24.4811 44.7648 24.5605C44.9519 24.6471 45.1677 24.7409 45.2468 24.777C45.3259 24.8131 45.7647 25.0008 47.0451 25.5493L47.081 35.669H22.0488V39.9998L21.7827 39.8843C21.6316 39.8193 21.3798 39.711 21.2216 39.6389C21.0633 39.5667 20.567 39.3573 20.1066 39.1697C19.6535 38.982 19.2363 38.8016 19.1715 38.7655C19.114 38.7366 18.6464 38.5345 18.1285 38.318C17.6178 38.1086 17.0711 37.8849 16.9273 37.8271C16.7762 37.7694 16.6539 37.7044 16.6539 37.6756C16.6539 37.6467 16.6252 37.6178 16.582 37.6178C16.546 37.6178 16.3374 37.5529 16.1144 37.4735C15.7979 37.358 15.7332 37.3074 15.762 37.2064C15.7979 37.1053 15.7907 37.0981 15.7116 37.1631C15.6541 37.2136 15.539 37.2353 15.4527 37.2208C15.3592 37.1992 15.3789 37.1631 15.2872 37.1126C15.2231 37.0772 15.0504 37 15 37C14.9496 37.0072 14.6974 36.8744 14.1939 36.665C13.6688 36.4485 13.2947 36.2536 13.3307 36.2175C13.3595 36.1814 13.3451 36.1742 13.2947 36.2031C13.2444 36.2247 13.0501 36.1814 12.8631 36.0948C12.6761 36.0154 12.4171 35.8999 12.0503 35.7411V25.5638H16.1504L16.1432 25.7298C16.1432 25.8164 16.1432 26.0907 16.1504 26.7908H29.4937C38.3413 26.7908 42.8371 26.7692 42.8371 26.7187C42.8371 26.6826 42.873 26.6609 42.909 26.6826C42.9594 26.7042 42.9809 26.2134 42.9809 25.2751C42.9809 24.4811 42.9881 23.8315 43.0025 23.8315ZM17.625 28.1045C17.4308 28.2056 17.1287 28.4293 16.956 28.6025C16.7834 28.7758 16.5244 29.1656 16.3806 29.4615C16.1288 29.9884 16.1216 30.0317 16.1216 30.7968C16.1216 31.5619 16.136 31.6124 16.3878 32.1321C16.5316 32.4425 16.7762 32.8034 16.956 32.9766C17.1287 33.1427 17.4811 33.3809 17.7329 33.5108C18.1645 33.7273 18.258 33.749 18.8838 33.749C19.3154 33.7562 19.6607 33.7201 19.8189 33.6551C19.9628 33.5974 20.1642 33.4963 20.2721 33.4169C20.38 33.3448 20.4879 33.287 20.5023 33.287C20.5239 33.287 20.5382 33.3881 20.5382 33.5036V33.7201H21.6891V30.3998H19.6031V31.5547C20.4303 31.5908 20.4303 31.5908 20.4519 31.829C20.4663 32.0311 20.4303 32.0888 20.1642 32.2548C19.9268 32.4064 19.747 32.457 19.3514 32.4858C18.927 32.5075 18.7975 32.4858 18.5026 32.3415C18.3084 32.2476 18.0566 32.0527 17.9415 31.9156C17.8264 31.7785 17.6897 31.5114 17.625 31.3237C17.5675 31.1361 17.5171 30.8546 17.5171 30.7102C17.5171 30.5586 17.5746 30.2771 17.6394 30.075C17.7113 29.8801 17.8768 29.5986 18.0206 29.4615C18.2005 29.2738 18.3875 29.1728 18.668 29.1078C18.927 29.0428 19.2363 29.0284 19.5312 29.0573C19.8549 29.0862 20.1138 29.1728 20.3584 29.3099L20.7181 29.5192L21.387 28.4871C21.1497 28.3066 20.9482 28.1911 20.79 28.1117C20.6317 28.0251 20.3081 27.9096 20.0707 27.8447C19.8333 27.7869 19.4161 27.7364 19.1356 27.7436C18.8622 27.7436 18.4882 27.7869 18.3084 27.8374C18.1357 27.888 17.8264 28.0107 17.625 28.1045ZM39.5282 28.22C39.37 28.3499 39.1757 28.5809 39.0966 28.7397C38.9959 28.9418 38.9528 29.1728 38.9528 29.5192C38.9528 29.8657 38.9959 30.0678 39.0894 30.2194C39.1614 30.3421 39.334 30.5442 39.4635 30.6741C39.6001 30.8113 39.8375 30.9773 39.9958 31.0494C40.154 31.1216 40.4777 31.266 40.7151 31.3743C40.9525 31.4825 41.2402 31.6269 41.3481 31.7063C41.4848 31.8073 41.5423 31.9084 41.5423 32.06C41.5423 32.2043 41.4896 32.3126 41.3841 32.3848C41.2905 32.4497 41.0891 32.493 40.9309 32.493C40.7726 32.5003 40.5353 32.457 40.3914 32.4136C40.2547 32.3631 39.9958 32.2404 39.8159 32.1321L39.4923 31.93C39.2261 32.3415 39.0679 32.5652 38.96 32.6951L38.7729 32.9333C38.9959 33.1715 39.3052 33.352 39.6001 33.4963C40.1037 33.7273 40.19 33.749 40.859 33.749C41.3481 33.749 41.6646 33.7129 41.83 33.6407C41.9739 33.5757 42.2113 33.4169 42.3623 33.2798C42.5134 33.1499 42.686 32.9478 42.7436 32.8395C42.7939 32.7312 42.873 32.4858 42.909 32.2982C42.9522 32.0672 42.945 31.829 42.8946 31.5908C42.8443 31.3743 42.7292 31.1361 42.5925 30.9845C42.4702 30.8473 42.2616 30.6669 42.1178 30.5803C41.9811 30.5009 41.5927 30.3132 41.2618 30.1833C40.9237 30.0461 40.5784 29.8729 40.4849 29.808C40.3986 29.7358 40.3195 29.6131 40.3195 29.5337C40.3195 29.4543 40.3554 29.3243 40.3914 29.2449C40.4417 29.1583 40.5712 29.0862 40.7367 29.0573C40.8805 29.0284 41.1683 29.0501 41.3625 29.0934C41.5639 29.1367 41.8444 29.2522 41.9955 29.3532L42.2616 29.5337C42.7076 28.6386 42.8299 28.3716 42.8227 28.3571C42.8083 28.3427 42.6932 28.2561 42.5493 28.1622C42.4127 28.0684 42.1034 27.9313 41.866 27.8591C41.6286 27.7869 41.2258 27.7364 40.9669 27.7364C40.7151 27.7364 40.3482 27.7941 40.154 27.8591C39.967 27.9313 39.6865 28.0901 39.5282 28.22ZM23.8471 28.1622C23.8471 28.3427 23.8327 29.6636 23.8255 31.1072L23.8111 33.7201H25.2138V27.8735C24.962 27.823 24.6599 27.8158 24.3722 27.823L23.8471 27.8374V28.1622ZM27.2063 30.1689C27.2063 31.432 27.1991 32.6663 27.1919 32.9261C27.1775 33.186 27.1847 33.4675 27.2063 33.5613C27.2351 33.7129 27.2639 33.7201 27.8969 33.7057L28.5658 33.684L28.6018 31.4825H30.4001V30.3276H28.6018V29.0284H30.7597V27.8013C28.2205 27.8302 27.4149 27.8519 27.343 27.8591C27.2063 27.888 27.1991 27.9529 27.2063 30.1689ZM32.4717 28.4582L32.4861 29.0284H34.2844V33.7201H35.6511V29.0284H37.4494L37.4278 27.8086C33.7377 27.823 32.6156 27.8374 32.558 27.8591C32.4789 27.8807 32.4573 28.0107 32.4717 28.4582Z" fill="#015AAA"/>
<path d="M27.0984 19.6667C27.2639 19.3635 27.4293 19.0676 27.4725 19.0243V19.0171C27.5156 18.9593 27.7961 18.9305 28.3788 18.9305C29.1988 18.9232 29.2132 18.9305 29.2995 19.1109C29.3499 19.212 29.393 19.3491 29.393 19.4141C29.4002 19.5079 29.2636 19.5873 28.9111 19.7028C28.6449 19.7966 28.3644 19.8688 28.2925 19.8688C28.2134 19.8688 28.1918 19.8977 28.2205 19.9554C28.2565 20.0132 28.2493 20.0276 28.2062 19.9987C28.163 19.9698 28.0191 19.9771 27.8825 20.0204C27.7458 20.0637 27.4509 20.1431 27.2351 20.2008C27.0193 20.2586 26.8323 20.2874 26.8179 20.2658C26.8107 20.2441 26.9402 19.9771 27.0984 19.6667Z" fill="#3A9948"/>
<path d="M28.8464 23.2829C28.8607 23.2179 28.983 22.7632 29.1125 22.2796C29.2492 21.796 29.3715 21.4134 29.393 21.4351C29.4146 21.4568 29.4865 21.7094 29.5585 21.9909L29.5585 21.9909C29.6304 22.2796 29.7167 22.6261 29.7599 22.7632C29.803 22.9004 29.8534 23.1025 29.8966 23.4128H29.3571C28.8823 23.4128 28.8176 23.3984 28.8464 23.2829Z" fill="#3A9948"/>
<path d="M34.2628 32.5075C34.2556 33.1643 34.2412 32.6446 34.2412 31.3526C34.2412 30.0606 34.2556 29.5265 34.2628 30.1616C34.2772 30.7968 34.2772 31.8507 34.2628 32.5075Z" fill="#3A9948"/>
<path d="M35.7014 32.5797C35.6943 33.2365 35.6799 32.7313 35.6799 31.4609C35.6799 30.1905 35.6943 29.6564 35.7014 30.2699C35.7158 30.8834 35.7158 31.9228 35.7014 32.5797Z" fill="#3A9948"/>
<path d="M23.8327 31.5692C23.8255 31.9445 23.8111 31.6197 23.8111 30.8474C23.8111 30.075 23.8255 29.7647 23.8327 30.1616C23.8471 30.5586 23.8471 31.1938 23.8327 31.5692Z" fill="#3A9948"/>
<path d="M29.7887 31.5475C29.5872 31.5619 29.2851 31.5619 29.1053 31.5475C28.9255 31.5331 29.0909 31.5258 29.465 31.5258C29.839 31.5258 29.9829 31.5331 29.7887 31.5475Z" fill="#3A9948"/>
<path d="M20.4303 31.8001C20.4088 31.663 20.3512 31.6413 19.9916 31.6197L19.5815 31.5908L20.0131 31.598C20.416 31.6052 20.4375 31.6125 20.4519 31.7857C20.4591 31.9373 20.4591 31.9373 20.4303 31.8001Z" fill="#3A9948"/>
<path d="M21.7539 33.1643C21.7323 33.3376 21.7251 33.2076 21.7251 32.8756C21.7251 32.5364 21.7323 32.392 21.7539 32.5508C21.7683 32.7096 21.7683 32.9839 21.7539 33.1643Z" fill="#3A9948"/>
<path d="M19.9124 22.0919C19.898 21.7383 19.9052 21.4062 19.9268 21.3485C19.9556 21.2835 20.0995 21.2547 20.4016 21.2547C20.6389 21.2547 20.9123 21.2907 21.013 21.3413C21.1137 21.3918 21.2288 21.5073 21.2647 21.5939C21.3079 21.6877 21.3367 21.8898 21.3367 22.0486C21.3367 22.2724 21.2935 22.3807 21.1209 22.5539C20.9195 22.756 20.8763 22.7704 19.934 22.7343L19.9124 22.0919Z" fill="#3A9948"/>
<path d="M71.2477 19.3576C71.2477 21.7579 69.5039 24.0557 66.2625 24.0557H64.0673V29.2666H60.4771V14.6596H66.2625C69.5039 14.6596 71.2477 16.9573 71.2477 19.3576ZM67.6575 19.3576C67.6575 18.5986 67.0831 17.8805 66.0984 17.8805H64.0673V20.8347H66.0984C67.0831 20.8347 67.6575 20.1167 67.6575 19.3576ZM82.3504 24.8353H75.7445C75.7445 25.7379 76.442 26.5586 77.6934 26.5586C78.8628 26.5586 79.3757 26.2303 79.9707 25.6354L81.9812 27.6459C80.8528 28.7742 79.745 29.3897 77.6934 29.3897C75.2521 29.3897 72.4415 28.5075 72.4415 23.7479C72.4415 20.1372 74.493 18.1062 77.3857 18.1062C80.5861 18.1062 82.3504 20.445 82.3504 23.3376V24.8353ZM79.0269 22.5991C79.0269 22.3324 78.9859 22.0246 78.8423 21.7374C78.6371 21.2656 78.1858 20.8758 77.3857 20.8758C76.5856 20.8758 76.1343 21.2656 75.9291 21.7374C75.7855 22.0246 75.7445 22.3324 75.7445 22.5991H79.0269ZM93.0307 29.2666H89.7482V28.3639C89.0712 29.0409 88.4557 29.3692 87.2863 29.3692C86.1785 29.3692 85.2553 28.9999 84.6398 28.3844C84.0039 27.7485 83.6756 26.8253 83.6756 25.7995C83.6756 24.1377 84.804 22.5991 87.4299 22.5991H89.6661V22.3119C89.6661 21.3066 89.1738 20.9373 88.0044 20.9373C87.1427 20.9373 86.7735 21.1425 86.24 21.6759L84.1475 19.5833C85.2758 18.455 86.3016 18.1062 88.1685 18.1062C91.3279 18.1062 93.0307 19.4192 93.0307 22.1067V29.2666ZM89.6661 25.1225V24.8353H87.9633C87.3069 24.8353 86.8965 25.2045 86.8965 25.7174C86.8965 26.2098 87.2658 26.6406 88.0044 26.6406C88.6609 26.6406 88.9686 26.5791 89.3379 26.2303C89.5841 26.0046 89.6661 25.6559 89.6661 25.1225ZM103.496 27.9741C102.594 28.8768 101.404 29.3897 99.865 29.3897C97.9571 29.3897 94.9003 28.5691 94.9003 23.7479C94.9003 18.9268 97.9571 18.1062 99.865 18.1062C101.404 18.1062 102.594 18.6191 103.496 19.5218L101.219 21.799C100.788 21.3681 100.419 21.1425 99.865 21.1425C99.4137 21.1425 99.106 21.2861 98.8188 21.5733C98.429 21.9836 98.2648 22.7017 98.2648 23.7479C98.2648 24.7942 98.429 25.5123 98.8188 25.9226C99.106 26.2098 99.4137 26.3534 99.865 26.3534C100.419 26.3534 100.788 26.1277 101.219 25.6969L103.496 27.9741ZM114.185 24.8353H107.579C107.579 25.7379 108.277 26.5586 109.528 26.5586C110.698 26.5586 111.211 26.2303 111.806 25.6354L113.816 27.6459C112.688 28.7742 111.58 29.3897 109.528 29.3897C107.087 29.3897 104.277 28.5075 104.277 23.7479C104.277 20.1372 106.328 18.1062 109.221 18.1062C112.421 18.1062 114.185 20.445 114.185 23.3376V24.8353ZM110.862 22.5991C110.862 22.3324 110.821 22.0246 110.677 21.7374C110.472 21.2656 110.021 20.8758 109.221 20.8758C108.421 20.8758 107.969 21.2656 107.764 21.7374C107.621 22.0246 107.579 22.3324 107.579 22.5991H110.862ZM130.788 24.7942C130.788 27.769 128.224 29.3897 125.146 29.3897C122.91 29.3897 121.084 28.9794 119.607 27.4612L121.905 25.1635C122.664 25.9226 123.997 26.1893 125.167 26.1893C126.582 26.1893 127.259 25.7174 127.259 24.8763C127.259 24.5275 127.177 24.2403 126.972 24.0146C126.788 23.83 126.48 23.6864 126.008 23.6248L124.244 23.3787C122.951 23.194 121.966 22.7632 121.31 22.0862C120.633 21.3887 120.305 20.4039 120.305 19.1525C120.305 16.4855 122.315 14.5365 125.639 14.5365C127.731 14.5365 129.311 15.0289 130.562 16.2803L128.306 18.537C127.383 17.6138 126.172 17.6754 125.536 17.6754C124.285 17.6754 123.772 18.3934 123.772 19.0294C123.772 19.214 123.833 19.4807 124.059 19.7064C124.244 19.891 124.551 20.0757 125.064 20.1372L126.829 20.3834C128.142 20.568 129.085 20.9784 129.701 21.5938C130.48 22.3529 130.788 23.4402 130.788 24.7942ZM142.252 29.2666H138.887V22.5786C138.887 21.3887 138.025 21.1425 137.595 21.1425C137.164 21.1425 136.302 21.3887 136.302 22.5786V29.2666H132.938V14.6596H136.302V19.132C137 18.4344 137.882 18.1062 138.723 18.1062C141.103 18.1062 142.252 19.8705 142.252 22.1067V29.2666ZM153.827 23.7479C153.827 25.9226 153.54 26.9689 152.617 27.9741C151.96 28.6717 150.853 29.3897 149.068 29.3897C147.283 29.3897 146.175 28.6717 145.519 27.9741C144.595 26.9689 144.308 25.9226 144.308 23.7479C144.308 21.5938 144.595 20.527 145.519 19.5218C146.175 18.8242 147.283 18.1062 149.068 18.1062C150.853 18.1062 151.96 18.8242 152.617 19.5218C153.54 20.527 153.827 21.5938 153.827 23.7479ZM150.463 23.7479C150.463 22.6606 150.401 21.881 149.97 21.4502C149.765 21.2451 149.478 21.1425 149.068 21.1425C148.657 21.1425 148.37 21.2451 148.165 21.4502C147.734 21.881 147.673 22.6606 147.673 23.7479C147.673 24.8353 147.734 25.6148 148.165 26.0457C148.37 26.2508 148.657 26.3534 149.068 26.3534C149.478 26.3534 149.765 26.2508 149.97 26.0457C150.401 25.6148 150.463 24.8353 150.463 23.7479ZM165.497 23.7479C165.497 25.3687 165.558 27.2971 164.471 28.3844C163.835 29.0204 162.871 29.3897 161.804 29.3897C160.716 29.3897 159.957 29.082 159.342 28.4665V32.8363H155.977V18.2293H159.239V19.132C159.916 18.455 160.634 18.1062 161.783 18.1062C162.85 18.1062 163.835 18.4755 164.471 19.1114C165.558 20.1988 165.497 22.1272 165.497 23.7479ZM162.132 23.7479C162.132 22.1477 161.988 21.1425 160.737 21.1425C159.486 21.1425 159.342 22.1477 159.342 23.7479C159.342 25.3481 159.486 26.3534 160.737 26.3534C161.988 26.3534 162.132 25.3481 162.132 23.7479Z" fill="url(#paint0_linear_4548_945)"/>
<defs>
<linearGradient id="paint0_linear_4548_945" x1="113" y1="14.2666" x2="113" y2="29.2666" gradientUnits="userSpaceOnUse">
<stop stop-color="#005B94"/>
<stop offset="1" stop-color="#128940"/>
</linearGradient>
</defs>
</svg>
