<svg width="199" height="44" viewBox="0 0 199 44" fill="none" xmlns="http://www.w3.org/2000/svg">
<rect x="0.5" y="0.833984" width="198" height="42.4182" rx="4.5" fill="#DCE7B0" stroke="white"/>
<path d="M71.2477 19.676C71.2477 22.0763 69.5039 24.374 66.2625 24.374H64.0673V29.585H60.4771V14.9779H66.2625C69.5039 14.9779 71.2477 17.2757 71.2477 19.676ZM67.6575 19.676C67.6575 18.9169 67.0831 18.1989 66.0984 18.1989H64.0673V21.1531H66.0984C67.0831 21.1531 67.6575 20.4351 67.6575 19.676ZM82.3504 25.1536H75.7445C75.7445 26.0563 76.442 26.8769 77.6934 26.8769C78.8628 26.8769 79.3757 26.5487 79.9707 25.9537L81.9812 27.9642C80.8528 29.0926 79.745 29.7081 77.6934 29.7081C75.2521 29.7081 72.4415 28.8259 72.4415 24.0663C72.4415 20.4556 74.493 18.4245 77.3857 18.4245C80.5861 18.4245 82.3504 20.7633 82.3504 23.656V25.1536ZM79.0269 22.9174C79.0269 22.6507 78.9859 22.343 78.8423 22.0558C78.6371 21.5839 78.1858 21.1941 77.3857 21.1941C76.5856 21.1941 76.1343 21.5839 75.9291 22.0558C75.7855 22.343 75.7445 22.6507 75.7445 22.9174H79.0269ZM93.0307 29.585H89.7482V28.6823C89.0712 29.3593 88.4557 29.6875 87.2863 29.6875C86.1785 29.6875 85.2553 29.3183 84.6398 28.7028C84.0039 28.0668 83.6756 27.1436 83.6756 26.1178C83.6756 24.4561 84.804 22.9174 87.4299 22.9174H89.6661V22.6302C89.6661 21.625 89.1738 21.2557 88.0044 21.2557C87.1427 21.2557 86.7735 21.4608 86.24 21.9942L84.1475 19.9017C85.2758 18.7733 86.3016 18.4245 88.1685 18.4245C91.3279 18.4245 93.0307 19.7375 93.0307 22.4251V29.585ZM89.6661 25.4408V25.1536H87.9633C87.3069 25.1536 86.8965 25.5229 86.8965 26.0358C86.8965 26.5282 87.2658 26.959 88.0044 26.959C88.6609 26.959 88.9686 26.8974 89.3379 26.5487C89.5841 26.323 89.6661 25.9742 89.6661 25.4408ZM103.496 28.2925C102.594 29.1952 101.404 29.7081 99.865 29.7081C97.9571 29.7081 94.9003 28.8874 94.9003 24.0663C94.9003 19.2452 97.9571 18.4245 99.865 18.4245C101.404 18.4245 102.594 18.9374 103.496 19.8401L101.219 22.1173C100.788 21.6865 100.419 21.4608 99.865 21.4608C99.4137 21.4608 99.106 21.6044 98.8188 21.8917C98.429 22.302 98.2648 23.02 98.2648 24.0663C98.2648 25.1126 98.429 25.8306 98.8188 26.2409C99.106 26.5282 99.4137 26.6718 99.865 26.6718C100.419 26.6718 100.788 26.4461 101.219 26.0153L103.496 28.2925ZM114.185 25.1536H107.579C107.579 26.0563 108.277 26.8769 109.528 26.8769C110.698 26.8769 111.211 26.5487 111.806 25.9537L113.816 27.9642C112.688 29.0926 111.58 29.7081 109.528 29.7081C107.087 29.7081 104.277 28.8259 104.277 24.0663C104.277 20.4556 106.328 18.4245 109.221 18.4245C112.421 18.4245 114.185 20.7633 114.185 23.656V25.1536ZM110.862 22.9174C110.862 22.6507 110.821 22.343 110.677 22.0558C110.472 21.5839 110.021 21.1941 109.221 21.1941C108.421 21.1941 107.969 21.5839 107.764 22.0558C107.621 22.343 107.579 22.6507 107.579 22.9174H110.862ZM134.604 29.585H131.014V22.5892L128.942 26.1999H126.644L124.572 22.5892V29.585H120.982V14.9779H124.51L127.793 21.4198L131.075 14.9779H134.604V29.585ZM146.762 25.1536H140.156C140.156 26.0563 140.853 26.8769 142.105 26.8769C143.274 26.8769 143.787 26.5487 144.382 25.9537L146.393 27.9642C145.264 29.0926 144.156 29.7081 142.105 29.7081C139.663 29.7081 136.853 28.8259 136.853 24.0663C136.853 20.4556 138.904 18.4245 141.797 18.4245C144.997 18.4245 146.762 20.7633 146.762 23.656V25.1536ZM143.438 22.9174C143.438 22.6507 143.397 22.343 143.254 22.0558C143.048 21.5839 142.597 21.1941 141.797 21.1941C140.997 21.1941 140.546 21.5839 140.34 22.0558C140.197 22.343 140.156 22.6507 140.156 22.9174H143.438ZM158.242 29.585H154.878V22.979C154.878 21.707 153.975 21.4608 153.524 21.4608C153.072 21.4608 152.17 21.707 152.17 22.979V29.585H148.805V18.5476H152.087V19.4503C152.764 18.7733 153.77 18.4245 154.652 18.4245C155.698 18.4245 156.539 18.7733 157.134 19.3683C158.078 20.312 158.242 21.3583 158.242 22.5276V29.585ZM170.02 29.585H166.738V28.6823C166.061 29.3593 165.055 29.7081 164.173 29.7081C163.127 29.7081 162.286 29.3593 161.691 28.7643C160.747 27.8206 160.583 26.7743 160.583 25.605V18.5476H163.947V25.1536C163.947 26.4256 164.85 26.6718 165.302 26.6718C165.753 26.6718 166.656 26.4256 166.656 25.1536V18.5476H170.02V29.585Z" fill="url(#paint0_linear_5220_817)"/>
<rect x="17.0515" y="5.11914" width="23.2007" height="34.1023" fill="#128940"/>
<path d="M27.9181 12.2456C25.8496 12.7697 23.8719 14.4189 22.9914 16.3337C22.7189 16.9207 22.7119 18.1862 22.7119 18.5915L22.8167 19.094H23.5505C24.1095 19.094 24.0047 19.0597 24.0746 19.3462C24.1165 19.5209 24.5428 19.3462 25.1927 19.3462C25.8426 19.3462 26.199 19.4084 26.2409 19.2337C26.3388 18.8424 25.9544 18.9192 29.8049 18.9192L33.3339 18.8843L33.299 18.5915C33.285 18.4867 33.2361 18.1792 33.1942 17.9136C32.9426 16.3133 32.0132 14.7061 30.7064 13.588C30.2172 13.1757 29.2109 12.1128 28.9314 12.0359C28.8545 12.015 28.1906 12.1757 27.9181 12.2456Z" fill="#BDC78C"/>
<path d="M29.085 12.4018C28.9522 12.4367 28.9871 12.4717 29.3296 12.6534C30.3429 13.1915 31.3911 14.1482 31.9711 15.0077C32.5861 15.9162 33.0543 17.007 33.194 17.9504C33.236 18.2369 33.2849 18.5444 33.3058 18.6283V18.9561H35.1158H36.8628L36.786 18.3837C36.5204 16.1754 35.0669 14.1139 33.0613 13.0936C32.1039 12.6114 31.3422 12.4298 30.1891 12.3948C29.672 12.3808 29.1758 12.3878 29.085 12.4018Z" fill="#DCE9B0"/>
<path d="M24.2446 19.3625C24.109 19.7744 23.9163 19.8293 22.6317 19.8293H21.4541V20.1954V20.5615H29.8399H38.2257V20.1954V19.8293H32.1951C27.8701 19.8293 26.2141 19.756 26.0856 19.6828C25.9928 19.6187 25.9601 19.454 25.9102 19.3167C25.8317 19.0512 25.6506 19.097 24.9868 19.097C24.3231 19.097 24.3231 19.097 24.2446 19.3625Z" fill="#DCE7B0"/>
<rect width="2.44586" height="34.1023" transform="matrix(-1 0 0 1 42.6985 5.11914)" fill="#3A9948"/>
<path d="M16.737 4.09767C16.4505 4.22345 16.0941 4.63576 16.0102 4.95721C15.9683 5.10397 15.9334 5.46735 15.9334 5.76085V6.30593H15.5001C14.5078 6.31292 13.8439 6.96981 13.8369 7.95514C13.8369 8.95445 14.5777 9.66026 15.6329 9.66026H15.9334V10.7434V11.8266H15.6748C14.5846 11.8336 13.8369 12.5324 13.8369 13.5317C13.8439 14.4961 14.4379 15.104 15.5001 15.2228L15.9334 15.2718V16.341V17.4171H15.535C14.8292 17.4171 14.1863 17.8294 13.9278 18.4444C13.795 18.7728 13.8159 19.4926 13.9697 19.835C14.1234 20.1775 14.6126 20.6107 14.948 20.7016C15.0878 20.7365 15.3673 20.7715 15.57 20.7715H15.9334V21.8896V23.0077H15.57C15.3673 23.0077 15.0878 23.0426 14.948 23.0776C14.6126 23.1684 14.1234 23.6017 13.9697 23.9441C13.8159 24.2865 13.795 25.0063 13.9278 25.3347C14.1863 25.9497 14.8292 26.362 15.535 26.362H15.9334V27.4382V28.5074L15.5001 28.5563C14.4379 28.6751 13.8439 29.2831 13.8369 30.2474C13.8369 31.2467 14.5846 31.9456 15.6748 31.9525H15.9334V33.0357V34.1189H15.6329C14.5777 34.1189 13.8369 34.8247 13.8369 35.824C13.8439 36.8093 14.5078 37.4662 15.5001 37.4732H15.9334V38.0113C15.9334 38.3118 15.9683 38.6752 16.0102 38.8219C16.1011 39.1504 16.4505 39.5627 16.751 39.6815C16.9397 39.7653 19.2038 39.7793 29.9097 39.7793C42.747 39.7793 42.8448 39.7793 43.1174 39.6395C43.2711 39.5627 43.4808 39.367 43.5856 39.2063L43.7813 38.9128V21.8896V4.86637L43.5856 4.57286C43.4808 4.41214 43.2711 4.21646 43.1174 4.1396C42.8448 3.99983 42.747 3.99983 29.8957 3.99983C19.3506 4.00682 16.9047 4.0208 16.737 4.09767ZM42.6631 21.8896V38.6262L29.9517 38.6472C20.6154 38.6542 17.2192 38.6402 17.1493 38.5843C17.0165 38.4725 17.0026 5.33458 17.1353 5.2018C17.1982 5.1389 20.1053 5.12493 29.9447 5.13192L42.6631 5.15288V21.8896ZM15.9893 7.96213L16.0102 8.54215H15.6748C15.1158 8.54215 14.8153 8.2137 14.969 7.76646C15.0598 7.5079 15.3673 7.34717 15.7237 7.37512L15.9683 7.3891L15.9893 7.96213ZM16.0032 13.5457V14.1467L15.6119 14.1187C15.1367 14.0768 14.948 13.9161 14.9341 13.5387C14.9271 13.1613 15.1856 12.9447 15.6608 12.9447H16.0032V13.5457ZM16.0032 19.0943V19.6533H15.6469C15.2136 19.6533 15.0598 19.5765 14.962 19.3039C14.8782 19.0594 14.9131 18.9126 15.1158 18.689C15.2276 18.5702 15.3324 18.5352 15.6329 18.5352H16.0032V19.0943ZM16.0032 24.6848V25.2439H15.6329C15.3324 25.2439 15.2276 25.2089 15.1158 25.0832C14.9201 24.8665 14.8782 24.7128 14.962 24.4892C15.0668 24.2096 15.2206 24.1258 15.6329 24.1258H16.0032V24.6848ZM16.0032 30.2404V30.8344H15.6608C15.1926 30.8344 14.9271 30.6178 14.9341 30.2474C14.948 29.8281 15.1647 29.6604 15.7097 29.6534L16.0032 29.6464V30.2404ZM15.9893 35.81C15.9683 36.3691 15.9613 36.39 15.7936 36.411C15.7028 36.425 15.5001 36.404 15.3533 36.3551C15.1507 36.2922 15.0598 36.2223 14.983 36.0406C14.7943 35.5864 15.0948 35.237 15.6748 35.237H16.0102L15.9893 35.81Z" fill="white"/>
<g filter="url(#filter0_d_5220_817)">
<path d="M28.9736 9.26955C28.6102 9.40931 28.3167 9.70282 28.2259 10.0243C28.177 10.2269 28.1979 11.1354 28.2608 11.4009C28.2678 11.4149 28.0023 11.4988 27.6738 11.5966C24.8227 12.4142 22.6703 14.7762 22.0483 17.7532C21.9924 18.0327 21.9435 18.3891 21.9435 18.5429V18.8154H21.5662C21.084 18.8154 20.7555 19.025 20.6297 19.4094C20.497 19.7868 20.5529 20.9678 20.6996 21.1844C20.9931 21.6037 20.3293 21.5757 29.7423 21.5967C36.5348 21.6107 38.4077 21.5967 38.6173 21.5268C38.785 21.4709 38.9458 21.3451 39.0436 21.1984C39.1834 20.9887 39.2043 20.8769 39.2043 20.234C39.2043 19.1369 38.9737 18.8154 38.205 18.8154H37.8836L37.8416 18.4101C37.4713 15.1815 35.1791 12.4631 32.0764 11.5896L31.5523 11.4359V10.6742C31.5523 9.98234 31.5383 9.88451 31.3915 9.67486C31.126 9.30449 30.8814 9.22063 30.0149 9.19268C29.4698 9.1787 29.1693 9.19967 28.9736 9.26955ZM30.4971 10.758C30.4691 11.0236 30.4411 11.2472 30.4272 11.2612C30.4132 11.2752 30.1686 11.2891 29.8821 11.2961L29.365 11.3031L29.323 11.0585C29.3021 10.9257 29.2811 10.6951 29.2811 10.5484V10.2898H29.91H30.546L30.4971 10.758ZM31.727 12.6169C32.0554 12.7147 32.5096 12.8824 32.7403 12.9803C34.1379 13.6022 35.5495 15.0138 36.1784 16.4254C36.4789 17.1103 36.7585 18.1725 36.7585 18.6547V18.8154H31.4894C26.2692 18.8154 26.2203 18.8154 26.0386 18.9622C25.8289 19.1229 25.794 19.4653 25.9547 19.6959C26.0526 19.8217 26.2203 19.8287 32.0904 19.8636L38.1212 19.8986L38.1421 20.1921L38.1631 20.4926H29.917H21.664V20.1781V19.8636H22.8869C24.019 19.8636 24.1238 19.8496 24.2496 19.7239C24.4593 19.5142 24.4383 19.1438 24.2077 18.9622C24.054 18.8434 23.9212 18.8154 23.5089 18.8154H22.9917L23.0337 18.48C23.3691 15.7616 25.2909 13.4485 27.8625 12.6658C28.6522 12.4282 28.9666 12.3933 30.0847 12.4142C30.9583 12.4352 31.2308 12.4701 31.727 12.6169Z" fill="white"/>
</g>
<g filter="url(#filter1_d_5220_817)">
<path d="M21.3981 27.7398L21.2444 27.8656L21.2584 30.025L21.2793 32.1843L21.468 32.2472C21.6008 32.2961 21.7196 32.2822 21.8524 32.2193L22.048 32.1284L22.083 30.7657L22.1179 29.403L22.4673 30.0669C22.7538 30.612 22.8447 30.7378 22.9984 30.7518C23.2151 30.7797 23.2989 30.6819 23.7112 29.9621L24.0327 29.403L24.0536 30.7657L24.0746 32.1214L24.2563 32.2263C24.41 32.3101 24.4729 32.3101 24.6616 32.2402L24.8782 32.1494V29.99V27.8307L24.7035 27.7189C24.4939 27.5791 24.1794 27.635 23.9907 27.8517C23.9139 27.9355 23.7322 28.222 23.5854 28.4946C23.4387 28.7601 23.257 29.0886 23.1801 29.2144L23.0403 29.4519L22.628 28.6902C22.4044 28.2779 22.1598 27.8796 22.0969 27.8167C21.9083 27.621 21.5798 27.5861 21.3981 27.7398Z" fill="white"/>
</g>
<g filter="url(#filter2_d_5220_817)">
<path d="M26.4156 27.7594C26.2829 27.8922 26.2759 27.9901 26.2759 29.9607C26.2759 31.9314 26.2829 32.0292 26.4156 32.162C26.5414 32.2878 26.6463 32.3018 27.7644 32.3018C28.8545 32.3018 28.9943 32.2878 29.0921 32.176C29.2249 32.0292 29.2389 31.8615 29.141 31.6658C29.0711 31.547 28.9873 31.5331 28.1277 31.5331H27.1843V30.9041V30.2752H27.6945C28.2326 30.2752 28.3723 30.2123 28.3723 29.9607C28.3723 29.7091 28.2326 29.6463 27.6945 29.6463H27.1843V29.0173V28.3884H28.1277C28.9873 28.3884 29.0711 28.3744 29.141 28.2556C29.2459 28.0529 29.2249 27.8643 29.0851 27.7385C28.9733 27.6406 28.7707 27.6197 27.7574 27.6197C26.6463 27.6197 26.5414 27.6337 26.4156 27.7594Z" fill="white"/>
</g>
<g filter="url(#filter3_d_5220_817)">
<path d="M30.5389 27.7103L30.3642 27.8012L30.3432 29.9326C30.3292 31.8264 30.3432 32.0849 30.441 32.1688C30.5808 32.2806 31.0001 32.2876 31.1119 32.1758C31.1748 32.1129 31.2167 31.7076 31.2377 30.883L31.2726 29.681L31.8247 30.7292C32.1252 31.3023 32.4467 31.8753 32.5375 31.9941C32.7262 32.2457 32.9638 32.3295 33.2223 32.2317L33.404 32.1618L33.3901 29.9466L33.3691 27.7313L33.1455 27.6684C32.9708 27.6125 32.8799 27.6265 32.7402 27.7173L32.5655 27.8291V29.073L32.5585 30.3099L31.9365 29.122C31.1748 27.6614 30.9931 27.4797 30.5389 27.7103Z" fill="white"/>
</g>
<g filter="url(#filter4_d_5220_817)">
<path d="M35.032 27.6892C34.9482 27.7241 34.8573 27.8289 34.8294 27.9268C34.8084 28.0246 34.8014 28.8213 34.8154 29.6948C34.8433 31.4558 34.8783 31.6305 35.2836 31.9729C35.5771 32.2175 35.9894 32.3223 36.5135 32.2874C37.0586 32.2525 37.422 32.0708 37.6526 31.7214L37.8413 31.4418L37.8622 29.6109L37.8832 27.78L37.6735 27.6892C37.4988 27.6193 37.415 27.6193 37.2473 27.6892L37.0376 27.773V29.3244C37.0376 30.9177 36.9957 31.2671 36.7791 31.4348C36.5624 31.5956 36.0802 31.5606 35.8846 31.358L35.7099 31.1903V29.555C35.7099 28.36 35.6889 27.8918 35.626 27.808C35.5142 27.6682 35.2277 27.6053 35.032 27.6892Z" fill="white"/>
</g>
<path d="M20.7689 33.6298C20.5453 33.8395 20.5383 34.2029 20.7619 34.4335C20.8947 34.5732 20.9925 34.5732 27.1421 34.5732H33.3896L33.5712 34.4055C33.8088 34.1819 33.8088 33.8884 33.5782 33.6648L33.4105 33.4901H27.1631C20.9786 33.4901 20.9226 33.4901 20.7689 33.6298Z" fill="white"/>
<path d="M20.8575 25.379C20.5415 25.5819 20.5316 25.9336 20.8476 26.1567C21.0353 26.292 21.1735 26.292 29.8647 26.292H38.6942L38.9509 26.1297C39.2867 25.9133 39.2867 25.6292 38.9608 25.4128L38.7238 25.2438H29.8943C21.1538 25.2438 21.0748 25.2438 20.8575 25.379Z" fill="white"/>
<path d="M35.3046 33.6509C35.025 33.9514 35.1299 34.3987 35.5072 34.5314C35.7937 34.6293 38.568 34.6363 38.8266 34.5384C39.2249 34.3847 39.3298 33.9584 39.0293 33.6649L38.8615 33.4902H37.1564C35.4653 33.4902 35.4513 33.4902 35.3046 33.6509Z" fill="white"/>
<path d="M20.756 25.4048C20.4765 25.7053 20.5813 26.1526 20.9586 26.2853C21.2452 26.3832 24.0195 26.3902 24.278 26.2923C24.6763 26.1386 24.7812 25.7123 24.4807 25.4188L24.313 25.2441H22.6078C20.9167 25.2441 20.9027 25.2441 20.756 25.4048Z" fill="white"/>
<defs>
<filter id="filter0_d_5220_817" x="20.2272" y="8.86103" width="19.3046" height="13.068" filterUnits="userSpaceOnUse" color-interpolation-filters="sRGB">
<feFlood flood-opacity="0" result="BackgroundImageFix"/>
<feColorMatrix in="SourceAlpha" type="matrix" values="0 0 0 0 0 0 0 0 0 0 0 0 0 0 0 0 0 0 127 0" result="hardAlpha"/>
<feOffset/>
<feGaussianBlur stdDeviation="0.163723"/>
<feComposite in2="hardAlpha" operator="out"/>
<feColorMatrix type="matrix" values="0 0 0 0 0 0 0 0 0 0 0 0 0 0 0 0 0 0 0.35 0"/>
<feBlend mode="normal" in2="BackgroundImageFix" result="effect1_dropShadow_5220_817"/>
<feBlend mode="normal" in="SourceGraphic" in2="effect1_dropShadow_5220_817" result="shape"/>
</filter>
<filter id="filter1_d_5220_817" x="20.9169" y="27.6426" width="4.28868" height="5.30333" filterUnits="userSpaceOnUse" color-interpolation-filters="sRGB">
<feFlood flood-opacity="0" result="BackgroundImageFix"/>
<feColorMatrix in="SourceAlpha" type="matrix" values="0 0 0 0 0 0 0 0 0 0 0 0 0 0 0 0 0 0 127 0" result="hardAlpha"/>
<feOffset dy="0.327446"/>
<feGaussianBlur stdDeviation="0.163723"/>
<feComposite in2="hardAlpha" operator="out"/>
<feColorMatrix type="matrix" values="0 0 0 0 0 0 0 0 0 0 0 0 0 0 0 0 0 0 0.25 0"/>
<feBlend mode="normal" in2="BackgroundImageFix" result="effect1_dropShadow_5220_817"/>
<feBlend mode="normal" in="SourceGraphic" in2="effect1_dropShadow_5220_817" result="shape"/>
</filter>
<filter id="filter2_d_5220_817" x="25.9484" y="27.6201" width="3.58604" height="5.33653" filterUnits="userSpaceOnUse" color-interpolation-filters="sRGB">
<feFlood flood-opacity="0" result="BackgroundImageFix"/>
<feColorMatrix in="SourceAlpha" type="matrix" values="0 0 0 0 0 0 0 0 0 0 0 0 0 0 0 0 0 0 127 0" result="hardAlpha"/>
<feOffset dy="0.327446"/>
<feGaussianBlur stdDeviation="0.163723"/>
<feComposite in2="hardAlpha" operator="out"/>
<feColorMatrix type="matrix" values="0 0 0 0 0 0 0 0 0 0 0 0 0 0 0 0 0 0 0.25 0"/>
<feBlend mode="normal" in2="BackgroundImageFix" result="effect1_dropShadow_5220_817"/>
<feBlend mode="normal" in="SourceGraphic" in2="effect1_dropShadow_5220_817" result="shape"/>
</filter>
<filter id="filter3_d_5220_817" x="30.0112" y="27.627" width="3.72032" height="5.29942" filterUnits="userSpaceOnUse" color-interpolation-filters="sRGB">
<feFlood flood-opacity="0" result="BackgroundImageFix"/>
<feColorMatrix in="SourceAlpha" type="matrix" values="0 0 0 0 0 0 0 0 0 0 0 0 0 0 0 0 0 0 127 0" result="hardAlpha"/>
<feOffset dy="0.327446"/>
<feGaussianBlur stdDeviation="0.163723"/>
<feComposite in2="hardAlpha" operator="out"/>
<feColorMatrix type="matrix" values="0 0 0 0 0 0 0 0 0 0 0 0 0 0 0 0 0 0 0.25 0"/>
<feBlend mode="normal" in2="BackgroundImageFix" result="effect1_dropShadow_5220_817"/>
<feBlend mode="normal" in="SourceGraphic" in2="effect1_dropShadow_5220_817" result="shape"/>
</filter>
<filter id="filter4_d_5220_817" x="34.4807" y="27.6367" width="3.73009" height="5.31212" filterUnits="userSpaceOnUse" color-interpolation-filters="sRGB">
<feFlood flood-opacity="0" result="BackgroundImageFix"/>
<feColorMatrix in="SourceAlpha" type="matrix" values="0 0 0 0 0 0 0 0 0 0 0 0 0 0 0 0 0 0 127 0" result="hardAlpha"/>
<feOffset dy="0.327446"/>
<feGaussianBlur stdDeviation="0.163723"/>
<feComposite in2="hardAlpha" operator="out"/>
<feColorMatrix type="matrix" values="0 0 0 0 0 0 0 0 0 0 0 0 0 0 0 0 0 0 0.25 0"/>
<feBlend mode="normal" in2="BackgroundImageFix" result="effect1_dropShadow_5220_817"/>
<feBlend mode="normal" in="SourceGraphic" in2="effect1_dropShadow_5220_817" result="shape"/>
</filter>
<linearGradient id="paint0_linear_5220_817" x1="115.5" y1="14.585" x2="115.5" y2="29.585" gradientUnits="userSpaceOnUse">
<stop stop-color="#005B94"/>
<stop offset="1" stop-color="#128940"/>
</linearGradient>
</defs>
</svg>
