<svg width="201" height="200" viewBox="0 0 201 200" fill="none" xmlns="http://www.w3.org/2000/svg">
<ellipse cx="100.5" cy="100" rx="100.5" ry="100" fill="#128940"/>
<g filter="url(#filter0_d_4515_6989)">
<path d="M63.6098 39.0922C58.7062 40.7559 55.2912 44.2876 53.861 49.1912C53.4524 50.6214 53.394 55.7876 53.394 99.7445C53.394 147.788 53.394 148.722 53.9778 150.531C55.4956 155.435 59.2316 159.083 64.1643 160.543C65.5945 160.951 69.6516 161.01 101.583 161.01C136.521 161.01 137.426 161.01 139.235 160.426C144.197 158.879 147.729 155.26 149.334 150.064C149.831 148.401 149.86 146.066 149.86 99.7153C149.86 53.365 149.831 51.03 149.334 49.3663C147.729 44.1709 144.197 40.5516 139.235 39.0046C137.426 38.4208 136.521 38.4208 101.437 38.4208L65.507 38.45L63.6098 39.0922ZM137.893 44.9589C139.965 45.7762 142.446 48.3155 143.176 50.3879C143.701 51.9348 143.73 53.4818 143.73 99.7153C143.73 154.443 143.993 149.247 140.987 152.283C138.009 155.26 141.308 155.026 101.554 155.026C61.8001 155.026 65.0984 155.26 62.1212 152.283C59.1149 149.247 59.3775 154.443 59.3775 99.7153C59.3775 45.747 59.1732 50.3587 61.7418 47.4983C63.172 45.8929 64.9524 44.9005 67.0247 44.5503C67.8128 44.4335 83.7202 44.346 102.43 44.3752C135.207 44.4044 136.492 44.4335 137.893 44.9589Z" fill="white"/>
<path d="M86.5247 53.6853C77.5641 57.1003 74.9372 67.6371 80.8915 76.2767C82.3217 78.3782 85.1237 81.0635 90.3483 85.3249C92.9168 87.4264 96.1859 90.2285 97.5869 91.5127C100.068 93.7894 100.185 93.877 101.556 93.877C102.957 93.877 103.074 93.7894 105.409 91.6003C106.752 90.3744 109.992 87.5724 112.648 85.4125C119.974 79.429 122.192 77.0064 124.06 73.066C127.067 66.6447 124.994 58.6764 119.419 55.0863C116.822 53.4226 114.954 52.9556 111.334 53.0724C108.474 53.1599 107.919 53.2767 106.226 54.0647C105.176 54.5609 103.716 55.5825 102.957 56.3122L101.556 57.6548L100.214 56.3706C99.4841 55.6701 98.0247 54.6485 96.9448 54.1231C95.1351 53.2183 94.7849 53.1599 91.6326 53.1015C88.743 53.014 88.0425 53.1015 86.5247 53.6853ZM115.771 60.1942C119.945 62.646 120.47 68.6295 116.909 72.9785C115.391 74.8465 112.823 77.2107 108.853 80.4505C106.839 82.0851 104.388 84.1574 103.366 85.033L101.556 86.6384L99.5717 84.9163C98.4917 83.9823 96.1859 82.0267 94.4054 80.5965C88.2468 75.5762 85.5031 72.7158 84.5399 70.264C82.2633 64.6307 85.5907 59.1434 91.2531 59.1434C92.2747 59.1434 93.5298 59.3186 94.0552 59.5521C95.2811 60.0483 97.2366 62.2082 98.1706 64.047C99.1047 65.915 100.155 66.7323 101.556 66.7323C102.899 66.7323 103.979 65.915 104.825 64.3097C105.759 62.4125 107.015 60.8071 108.094 60.0774C110.079 58.7348 113.377 58.764 115.771 60.1942Z" fill="white"/>
<path d="M71.6637 103.392C71.0507 104.004 70.9048 104.442 70.9048 105.551C70.9048 106.661 71.0507 107.098 71.6637 107.711L72.4517 108.47H78.2017H83.9517L84.7398 107.711C85.3527 107.098 85.4987 106.661 85.4987 105.551C85.4987 104.442 85.3527 104.004 84.7398 103.392L83.9517 102.633H78.2017H72.4517L71.6637 103.392Z" fill="white"/>
<path d="M92.0973 103.392C91.4843 104.004 91.3384 104.442 91.3384 105.551C91.3384 106.661 91.4843 107.098 92.0973 107.711L92.8853 108.47H111.77H130.654L131.442 107.711C132.055 107.098 132.201 106.661 132.201 105.551C132.201 104.442 132.055 104.004 131.442 103.392L130.654 102.633H111.77H92.8853L92.0973 103.392Z" fill="white"/>
<path d="M71.6637 120.905C71.0507 121.518 70.9048 121.955 70.9048 123.065C70.9048 124.174 71.0507 124.612 71.6637 125.225L72.4517 125.983H78.2017H83.9517L84.7398 125.225C85.3527 124.612 85.4987 124.174 85.4987 123.065C85.4987 121.955 85.3527 121.518 84.7398 120.905L83.9517 120.146H78.2017H72.4517L71.6637 120.905Z" fill="white"/>
<path d="M92.0973 120.905C91.4843 121.518 91.3384 121.955 91.3384 123.065C91.3384 124.174 91.4843 124.612 92.0973 125.225L92.8853 125.983H111.77H130.654L131.442 125.225C132.055 124.612 132.201 124.174 132.201 123.065C132.201 121.955 132.055 121.518 131.442 120.905L130.654 120.146H111.77H92.8853L92.0973 120.905Z" fill="white"/>
<path d="M71.6637 138.418C71.0507 139.031 70.9048 139.469 70.9048 140.578C70.9048 141.687 71.0507 142.125 71.6637 142.738L72.4517 143.497H78.2017H83.9517L84.7398 142.738C85.3527 142.125 85.4987 141.687 85.4987 140.578C85.4987 139.469 85.3527 139.031 84.7398 138.418L83.9517 137.66H78.2017H72.4517L71.6637 138.418Z" fill="white"/>
<path d="M92.0973 138.418C91.4843 139.031 91.3384 139.469 91.3384 140.578C91.3384 141.687 91.4843 142.125 92.0973 142.738L92.8853 143.497H111.77H130.654L131.442 142.738C132.055 142.125 132.201 141.687 132.201 140.578C132.201 139.469 132.055 139.031 131.442 138.418L130.654 137.66H111.77H92.8853L92.0973 138.418Z" fill="white"/>
<path d="M39.7339 42.0975C37.0195 43.4694 35.7352 45.8336 35.9395 49.2194C36.0854 51.7587 37.1654 53.6267 39.2085 54.911C40.522 55.6991 40.8722 55.7866 43.1781 55.7866C45.4839 55.7866 45.8342 55.6991 47.1476 54.911C48.0233 54.3564 48.8989 53.4808 49.4535 52.6051C50.2415 51.2917 50.3291 50.9414 50.3291 48.6356C50.3291 46.3298 50.2415 45.9795 49.4535 44.6661C48.1108 42.5062 46.272 41.5138 43.4991 41.397C41.5728 41.3095 41.0766 41.397 39.7339 42.0975ZM44.1997 48.6356C44.1997 49.5988 44.1413 49.6572 43.1781 49.6572C42.3316 49.6572 42.1273 49.5404 42.0689 48.9859C41.8938 47.8183 42.2149 47.4097 43.2365 47.5265C44.1121 47.614 44.1997 47.7016 44.1997 48.6356Z" fill="white"/>
<path d="M153.393 47.9379C152.78 48.5509 152.634 48.9887 152.634 50.0978C152.634 51.207 152.78 51.6448 153.393 52.2577C154.006 52.8707 154.444 53.0166 155.553 53.0166C156.662 53.0166 157.1 52.8707 157.713 52.2577C158.326 51.6448 158.472 51.207 158.472 50.0978C158.472 48.9887 158.326 48.5509 157.713 47.9379C157.1 47.325 156.662 47.179 155.553 47.179C154.444 47.179 154.006 47.325 153.393 47.9379Z" fill="white"/>
<path d="M159.404 65.4486C156.689 66.8204 155.405 69.1846 155.609 72.5704C155.755 75.1098 156.835 76.9778 158.878 78.2621C160.192 79.0501 160.542 79.1377 162.848 79.1377C165.154 79.1377 165.504 79.0501 166.818 78.2621C167.693 77.7075 168.569 76.8319 169.123 75.9562C169.911 74.6428 169.999 74.2925 169.999 71.9867C169.999 69.6808 169.911 69.3306 169.123 68.0171C167.781 65.8572 165.942 64.8648 163.169 64.7481C161.243 64.6605 160.746 64.7481 159.404 65.4486ZM163.87 71.9867C163.87 72.9499 163.811 73.0082 162.848 73.0082C162.002 73.0082 161.797 72.8915 161.739 72.3369C161.564 71.1694 161.885 70.7608 162.906 70.8775C163.782 70.9651 163.87 71.0527 163.87 71.9867Z" fill="white"/>
<path d="M45.3956 94.6362C44.7827 95.2491 44.6367 95.6869 44.6367 96.7961C44.6367 98.7225 45.6291 99.7148 47.5555 99.7148C49.4819 99.7148 50.4743 98.7225 50.4743 96.7961C50.4743 95.6869 50.3283 95.2491 49.7154 94.6362C49.1025 94.0232 48.6646 93.8773 47.5555 93.8773C46.4464 93.8773 46.0085 94.0232 45.3956 94.6362Z" fill="white"/>
<path d="M156.308 117.987C155.695 118.6 155.549 119.038 155.549 120.147C155.549 121.256 155.695 121.694 156.308 122.307C156.921 122.92 157.358 123.066 158.468 123.066C159.577 123.066 160.015 122.92 160.628 122.307C161.24 121.694 161.386 121.256 161.386 120.147C161.386 119.038 161.24 118.6 160.628 117.987C160.015 117.374 159.577 117.228 158.468 117.228C157.358 117.228 156.921 117.374 156.308 117.987Z" fill="white"/>
<path d="M36.8155 147.175C34.101 148.547 32.8167 150.911 33.0211 154.297C33.167 156.836 34.2469 158.704 36.2901 159.988C37.6035 160.776 37.9538 160.864 40.2596 160.864C42.5655 160.864 42.9157 160.776 44.2292 159.988C45.1048 159.434 45.9804 158.558 46.535 157.682C47.3231 156.369 47.4106 156.019 47.4106 153.713C47.4106 151.407 47.3231 151.057 46.535 149.743C45.1924 147.583 43.3535 146.591 40.5807 146.474C38.6543 146.387 38.1581 146.474 36.8155 147.175ZM41.2812 153.713C41.2812 154.676 41.2228 154.734 40.2596 154.734C39.4132 154.734 39.2089 154.618 39.1505 154.063C38.9754 152.895 39.2964 152.487 40.318 152.604C41.1936 152.691 41.2812 152.779 41.2812 153.713Z" fill="white"/>
<path d="M162.149 155.931C161.536 156.544 161.39 156.982 161.39 158.091C161.39 160.017 162.382 161.01 164.308 161.01C166.235 161.01 167.227 160.017 167.227 158.091C167.227 156.165 166.235 155.172 164.308 155.172C163.199 155.172 162.761 155.318 162.149 155.931Z" fill="white"/>
</g>
<defs>
<filter id="filter0_d_4515_6989" x="29" y="38.4209" width="144.999" height="130.589" filterUnits="userSpaceOnUse" color-interpolation-filters="sRGB">
<feFlood flood-opacity="0" result="BackgroundImageFix"/>
<feColorMatrix in="SourceAlpha" type="matrix" values="0 0 0 0 0 0 0 0 0 0 0 0 0 0 0 0 0 0 127 0" result="hardAlpha"/>
<feOffset dy="4"/>
<feGaussianBlur stdDeviation="2"/>
<feComposite in2="hardAlpha" operator="out"/>
<feColorMatrix type="matrix" values="0 0 0 0 0 0 0 0 0 0 0 0 0 0 0 0 0 0 0.25 0"/>
<feBlend mode="normal" in2="BackgroundImageFix" result="effect1_dropShadow_4515_6989"/>
<feBlend mode="normal" in="SourceGraphic" in2="effect1_dropShadow_4515_6989" result="shape"/>
</filter>
</defs>
</svg>
