<svg width="263" height="263" viewBox="0 0 263 263" fill="none" xmlns="http://www.w3.org/2000/svg">
<path d="M189.236 207.011C189.236 212.507 189.339 214.767 189.39 211.993C189.493 209.271 189.493 204.75 189.39 201.977C189.339 199.254 189.236 201.514 189.236 207.011Z" fill="#ECC16B"/>
<path d="M109.104 211.633C109.104 219.39 109.206 222.574 109.258 218.671C109.36 214.818 109.36 208.448 109.258 204.545C109.206 200.692 109.104 203.877 109.104 211.633Z" fill="#ECC16B"/>
<path d="M154.77 204.442C154.77 205.726 154.872 206.24 154.975 205.572C155.078 204.956 155.078 203.928 154.975 203.261C154.872 202.644 154.77 203.158 154.77 204.442Z" fill="#ECC16B"/>
<path d="M162.988 216.256C162.988 217.541 163.091 218.054 163.194 217.387C163.296 216.77 163.296 215.743 163.194 215.075C163.091 214.459 162.988 214.972 162.988 216.256Z" fill="#ECC16B"/>
<path d="M114.035 15.7184C77.7182 24.2967 47.3602 31.6422 46.487 32.0531C45.1 32.7209 52.9079 32.8236 115.987 32.8236L186.976 32.875V17.7217V2.51699L185.692 1.28418C184.716 0.308201 183.946 0 182.25 0.0513649C181.018 0.102734 150.351 7.14004 114.035 15.7184Z" fill="#005B94"/>
<path d="M85.5254 84.3449L82.4434 87.5811L85.6795 84.499C87.426 82.8039 88.8643 81.3656 88.8643 81.3143C88.8643 80.9033 88.3506 81.3656 85.5254 84.3449Z" fill="#ECC196"/>
<path d="M76.1774 107.101C76.1774 108.231 76.2802 108.642 76.3829 107.974C76.4856 107.357 76.4856 106.433 76.3829 105.919C76.2288 105.457 76.1261 105.97 76.1774 107.101Z" fill="#ECC196"/>
<path d="M115.472 193.5C117.476 193.603 120.866 193.603 122.921 193.5C124.924 193.449 123.28 193.346 119.171 193.346C115.062 193.346 113.418 193.449 115.472 193.5Z" fill="#ECC196"/>
<path d="M163.039 205.469C163.039 210.4 163.142 212.455 163.193 209.938C163.296 207.472 163.296 203.466 163.193 200.949C163.142 198.483 163.039 200.538 163.039 205.469Z" fill="#ECC196"/>
<path d="M197.455 207.524C197.455 213.585 197.558 216.102 197.609 213.02C197.712 209.989 197.712 205.058 197.609 201.976C197.558 198.945 197.455 201.462 197.455 207.524Z" fill="#ECC196"/>
<path d="M117.322 202.079C117.168 202.438 117.168 203.876 117.271 205.263L117.425 207.78L117.528 204.852L117.63 201.924L122.151 201.719L126.62 201.565L122.099 201.462C118.658 201.359 117.528 201.513 117.322 202.079Z" fill="#ECC196"/>
<path d="M154.718 208.962C154.616 210.965 154.462 211.581 153.999 211.325C153.486 211.068 153.486 211.119 153.948 211.633C154.924 212.712 155.181 211.992 154.975 209.013L154.821 206.239L154.718 208.962Z" fill="#ECC196"/>
<path d="M117.323 218.67L117.374 221.649L121.895 221.701H126.363L122.049 221.547L117.682 221.341L117.477 218.567L117.271 215.742L117.323 218.67Z" fill="#ECC196"/>
<path d="M65.3379 225.502C65.3379 226.478 65.4406 226.889 65.5947 226.375C65.6975 225.913 65.6975 225.091 65.5947 224.577C65.4406 224.115 65.3379 224.526 65.3379 225.502Z" fill="#ECC196"/>
<path d="M115.731 229.971C117.632 230.074 120.714 230.074 122.666 229.971C124.566 229.868 122.974 229.817 119.173 229.817C115.372 229.817 113.779 229.868 115.731 229.971Z" fill="#ECC196"/>
<path d="M81.0569 33.2345C100.679 33.3372 132.578 33.3372 151.944 33.2345C171.36 33.1831 155.334 33.1317 116.346 33.1317C77.3585 33.1317 61.486 33.1831 81.0569 33.2345Z" fill="#ECECC1"/>
<path d="M212.146 138.28C212.146 212.814 211.992 244.354 211.581 245.792C210.862 248.514 206.496 252.778 203.62 253.651C201.976 254.113 183.278 254.268 121.535 254.268H41.6074V256.528C41.6074 259.147 42.1725 260.945 43.4053 262.127C44.1758 262.949 51.0076 263 131.551 263C217.283 263 218.824 263 219.8 262.024C220.365 261.459 220.982 260.226 221.136 259.302C221.29 258.377 221.341 207.626 221.29 146.551L221.136 35.5461L219.903 34.2106C218.824 33.0291 218.208 32.875 215.383 32.875H212.146V138.28Z" fill="#005B94"/>
<path d="M85.2682 83.9854C84.0354 85.2695 83.1107 86.2969 83.2648 86.2969C83.419 86.2969 84.549 85.2695 85.7818 83.9854C87.0147 82.7012 87.9393 81.6738 87.7852 81.6738C87.6311 81.6738 86.501 82.7012 85.2682 83.9854Z" fill="#ECECC1"/>
<path d="M177.218 83.8313C178.451 85.2182 179.529 86.2969 179.632 86.2969C180.043 86.2969 179.632 85.8346 177.372 83.7285L174.906 81.417L177.218 83.8313Z" fill="#ECECC1"/>
<path d="M94.0033 145.112C95.8012 146.962 97.4449 148.451 97.5476 148.451C97.7017 148.451 96.3148 146.962 94.517 145.112C92.7191 143.263 91.0754 141.773 90.9726 141.773C90.8185 141.773 92.2055 143.263 94.0033 145.112Z" fill="#ECECC1"/>
<path d="M168.229 145.472L164.633 149.222L168.383 145.626C170.386 143.674 172.081 141.979 172.081 141.928C172.081 141.517 171.516 142.03 168.229 145.472Z" fill="#ECECC1"/>
<path d="M134.787 211.633C134.787 220.262 134.89 223.755 134.941 219.44C135.044 215.177 135.044 208.088 134.941 203.773C134.89 199.51 134.787 203.003 134.787 211.633Z" fill="#ECECC1"/>
<path d="M177.936 207.266C177.936 213.225 178.038 215.537 178.09 212.506C178.192 209.475 178.192 204.595 178.09 201.719C178.038 198.842 177.936 201.308 177.936 207.266Z" fill="#ECECC1"/>
<path d="M119.582 207.369C120.764 207.472 122.613 207.472 123.692 207.369C124.719 207.267 123.743 207.164 121.483 207.164C119.223 207.164 118.349 207.267 119.582 207.369Z" fill="#ECECC1"/>
<path d="M143.417 219.441L143.519 227.3L143.673 219.954C143.828 214.355 143.982 212.712 144.495 213.02C144.906 213.225 144.855 213.071 144.393 212.506C144.033 212.044 143.622 211.633 143.519 211.633C143.417 211.633 143.365 215.177 143.417 219.441Z" fill="#ECECC1"/>
<path d="M119.582 216.102C120.764 216.204 122.613 216.204 123.692 216.102C124.719 215.999 123.743 215.896 121.483 215.896C119.223 215.896 118.349 215.999 119.582 216.102Z" fill="#ECECC1"/>
<path d="M193.602 225.862L191.855 227.813L193.807 226.067C194.835 225.091 195.708 224.218 195.708 224.115C195.708 223.704 195.297 224.115 193.602 225.862Z" fill="#ECECC1"/>
<path d="M171.566 224.629C171.566 224.731 172.337 225.451 173.262 226.324L174.905 227.813L173.416 226.118C171.977 224.577 171.566 224.218 171.566 224.629Z" fill="#ECECC1"/>
<path d="M43.8677 34.0051C41.5561 36.5221 41.6075 33.3373 41.6075 147.013V254.268H121.535C183.278 254.268 201.976 254.113 203.62 253.651C206.496 252.778 210.862 248.514 211.582 245.792C211.992 244.354 212.147 212.866 212.147 138.435V33.1318H128.367C51.1104 33.1318 44.5354 33.1832 43.8677 34.0051ZM113.265 76.2803C118.504 77.6158 122.562 79.9273 126.62 83.934C128.675 85.9373 130.627 88.0434 130.935 88.6084L131.5 89.6357L132.065 88.6084C132.373 88.0434 134.325 85.9373 136.38 83.934C142.287 78.1295 148.759 75.5098 157.081 75.5098C165.351 75.5098 171.566 78.0781 177.525 84.0367C188.209 94.6697 189.853 110.799 181.891 127.185C174.649 141.979 160.368 155.129 140.541 165.248C131.911 169.614 131.192 169.666 123.333 165.711C103.197 155.591 88.3517 142.03 81.1603 127.185C73.147 110.696 74.7394 94.6697 85.4751 84.0367C91.4851 78.0781 97.2895 75.6125 105.56 75.5611C108.179 75.5098 111.57 75.8693 113.265 76.2803ZM78.6946 194.373C79.5679 195.298 80.5438 197.866 82.1362 203.363C83.369 207.626 84.4478 211.068 84.4991 211.016C84.6019 210.914 85.4751 207.832 86.5024 204.185C89.4304 193.706 89.8413 193.141 93.7966 193.141C95.5944 193.141 96.2108 193.397 97.2895 194.733C98.0087 195.606 98.6251 196.479 98.6251 196.634C98.6251 196.839 99.9093 203.465 101.399 211.376C103.916 224.321 104.121 225.913 103.505 227.403C102.221 230.433 98.9333 231.05 96.6218 228.687C95.4917 227.557 95.0808 226.324 94.3102 222.163C93.7966 219.338 93.2829 216.564 93.1288 215.999C92.9233 215.383 92.1015 217.489 90.92 221.649C88.7112 229.149 87.9921 230.125 84.4991 230.125C81.1603 230.125 80.1329 228.738 78.0782 221.444C77.1022 218.054 76.229 215.331 76.1776 215.434C76.0749 215.537 75.5099 218.105 74.9448 221.187C73.7634 227.762 73.3011 228.841 71.3491 229.611C68.3185 230.896 65.2364 228.995 65.2364 225.81C65.2364 223.961 69.7054 198.74 70.4245 196.377C71.1437 194.168 72.6847 193.141 75.3044 193.141C76.8454 193.141 77.77 193.449 78.6946 194.373ZM128.161 194.425C129.034 195.247 129.445 196.223 129.445 197.507C129.445 198.791 129.034 199.767 128.161 200.589C127.031 201.77 126.517 201.873 122.254 201.873H117.631V204.441V207.01H121.227C125.542 207.01 127.596 207.883 128.315 210.092C129.086 212.198 128.213 214.509 126.312 215.485C125.439 215.948 123.435 216.256 121.227 216.256H117.631V218.824V221.393H122.254C126.517 221.393 127.031 221.495 128.161 222.677C129.908 224.372 129.908 227.146 128.161 228.841C126.98 230.074 126.723 230.125 119.172 230.125C111.621 230.125 111.364 230.074 110.183 228.841L108.899 227.608V211.633V195.658L110.183 194.425C111.364 193.192 111.621 193.141 119.172 193.141C126.723 193.141 126.98 193.192 128.161 194.425ZM141.825 193.808C142.236 194.168 145.318 198.329 148.605 203.106L154.615 211.787V203.671C154.615 196.017 154.667 195.452 155.745 194.322C157.286 192.678 160.368 192.678 162.064 194.425L163.348 195.658L163.45 209.681C163.502 217.386 163.502 224.372 163.45 225.245C163.194 228.687 159.752 230.947 156.875 229.56C155.9 229.098 153.434 225.964 149.735 220.673L144.085 212.506L143.982 219.132C143.88 222.779 143.725 226.272 143.571 226.889C143.16 228.635 141.26 230.125 139.411 230.125C134.736 230.125 134.582 229.56 134.582 211.633C134.582 193.706 134.685 193.243 139.205 193.192C140.181 193.192 141.363 193.449 141.825 193.808ZM176.755 194.476C177.987 195.76 177.987 195.966 178.244 207.421L178.501 219.03L180.248 220.211C181.224 220.879 182.61 221.393 183.33 221.393C185.179 221.393 187.953 219.595 188.518 218.002C188.826 217.283 189.031 211.941 189.031 206.085C189.031 195.966 189.083 195.452 190.161 194.322C191.702 192.678 194.784 192.678 196.48 194.425L197.764 195.658V207.626C197.764 219.132 197.712 219.697 196.531 222.163C194.271 226.94 189.956 229.714 184.306 230.022C178.244 230.382 173.57 227.968 170.642 223.036L169.255 220.622V207.883V195.093L170.488 194.117C172.286 192.678 175.214 192.832 176.755 194.476Z" fill="#128940"/>
<path d="M127.05 93.9745C119.406 95.1918 112.725 98.9854 108.054 104.817C105.874 107.507 103.411 112.319 102.562 115.49C99.6456 126.333 102.76 137.459 110.828 145.102C113.319 147.481 115.329 148.839 118.755 150.453C123.228 152.576 125.351 153.001 131.268 153.001C135.741 153.001 136.647 152.916 138.77 152.322C141.686 151.529 145.706 149.689 148.084 148.075C156.889 142.073 161.928 131.259 160.852 120.643C159.295 105.525 147.32 94.3142 132.259 93.833C130.305 93.7763 127.956 93.833 127.05 93.9745ZM135.458 97.7964C144.545 99.3817 151.849 105.27 155.445 113.876C157.37 118.548 157.794 124.691 156.521 129.645C155.643 133.071 154.737 135.081 152.784 138.025C149.132 143.489 142.875 147.707 136.449 149.009C128.409 150.651 119.661 148.188 113.659 142.555C105.534 134.967 103.043 123.785 107.176 113.593C111.706 102.496 123.794 95.758 135.458 97.7964Z" fill="url(#paint0_linear_4530_498)"/>
<path d="M125.157 101.023C118.901 102.722 113.296 107.28 110.351 113.14C109.275 115.32 108.256 119.085 108.058 121.774C107.747 125.568 108.823 131.4 110.096 132.815C111.201 134.033 111.88 133.636 120.09 127.238C124.365 123.898 128.158 120.812 128.526 120.416C129.149 119.708 129.149 119.623 129.149 110.847C129.149 102.807 129.093 101.901 128.668 101.391C127.932 100.542 127.224 100.457 125.157 101.023ZM125.469 111.47V118.207L119.212 123.105C115.787 125.794 112.786 128.059 112.588 128.116C111.682 128.484 111.455 122.001 112.248 118.887C113.664 113.423 117.599 108.525 122.61 106.034C124.053 105.326 125.299 104.732 125.356 104.732C125.412 104.732 125.469 107.761 125.469 111.47Z" fill="url(#paint1_linear_4530_498)"/>
<path d="M134.013 100.966L133.391 101.476L133.447 110.959L133.532 120.415L141.969 127.011C146.611 130.635 150.66 133.607 150.943 133.607C151.905 133.607 152.868 132.39 153.462 130.408C157.171 118.122 150.518 105.269 138.486 101.391C135.57 100.456 134.721 100.371 134.013 100.966ZM140.213 106.203C142.025 107.109 143.101 107.902 144.856 109.657C148.367 113.196 150.207 116.933 150.631 121.406C150.858 123.557 150.547 127.889 150.15 128.285C150.037 128.37 147.064 126.218 143.526 123.472L137.099 118.462V111.724C137.071 106.203 137.128 105.014 137.467 105.014C137.665 105.014 138.911 105.552 140.213 106.203Z" fill="url(#paint2_linear_4530_498)"/>
<path d="M126.54 127.606C126.285 127.72 123.398 129.899 120.086 132.476C113.971 137.26 113.489 137.798 114.084 139.129C114.565 140.176 118.472 143.12 121.048 144.366C123.681 145.64 126.795 146.517 127.814 146.234C129.06 145.923 129.173 145.074 129.088 136.467L129.003 128.456L128.324 127.918C127.644 127.352 127.333 127.295 126.54 127.606ZM125.464 137.741V142.129L124.842 141.931C122.945 141.365 118.953 138.959 118.953 138.392C118.953 138.166 124.898 133.353 125.266 133.325C125.38 133.325 125.464 135.307 125.464 137.741Z" fill="url(#paint3_linear_4530_498)"/>
<path d="M134.238 127.748L133.531 128.116L133.446 136.694C133.389 144.395 133.417 145.357 133.842 145.838C134.436 146.461 135.201 146.489 137.437 145.895C140.835 145.017 144.487 142.979 147.204 140.459C148.167 139.554 148.393 139.157 148.393 138.336C148.393 137.374 148.195 137.175 143.949 133.807C134.889 126.729 135.512 127.097 134.238 127.748ZM140.608 136.015C142.165 137.232 143.496 138.28 143.581 138.365C143.949 138.676 139.476 141.422 137.72 141.96L137.069 142.13V137.685C137.069 134.175 137.154 133.325 137.437 133.523C137.607 133.693 139.051 134.797 140.608 136.015Z" fill="url(#paint4_linear_4530_498)"/>
<defs>
<linearGradient id="paint0_linear_4530_498" x1="131.242" y1="153.001" x2="131.242" y2="93.8113" gradientUnits="userSpaceOnUse">
<stop stop-color="#005B94"/>
<stop offset="1" stop-color="#128940"/>
</linearGradient>
<linearGradient id="paint1_linear_4530_498" x1="118.577" y1="133.362" x2="118.577" y2="100.663" gradientUnits="userSpaceOnUse">
<stop stop-color="#005B94"/>
<stop offset="1" stop-color="#128940"/>
</linearGradient>
<linearGradient id="paint2_linear_4530_498" x1="143.94" y1="133.607" x2="143.94" y2="100.589" gradientUnits="userSpaceOnUse">
<stop stop-color="#005B94"/>
<stop offset="1" stop-color="#128940"/>
</linearGradient>
<linearGradient id="paint3_linear_4530_498" x1="121.501" y1="146.288" x2="121.501" y2="127.418" gradientUnits="userSpaceOnUse">
<stop stop-color="#005B94"/>
<stop offset="1" stop-color="#128940"/>
</linearGradient>
<linearGradient id="paint4_linear_4530_498" x1="140.909" y1="146.324" x2="140.909" y2="127.424" gradientUnits="userSpaceOnUse">
<stop stop-color="#005B94"/>
<stop offset="1" stop-color="#128940"/>
</linearGradient>
</defs>
</svg>
