<svg width="201" height="200" viewBox="0 0 201 200" fill="none" xmlns="http://www.w3.org/2000/svg">
<ellipse cx="100.5" cy="100" rx="100.5" ry="100" fill="#128940"/>
<g filter="url(#filter0_d_4515_6954)">
<path fill-rule="evenodd" clip-rule="evenodd" d="M55.7925 35.3848C52.0642 36.3886 51.243 37.2474 43.0944 48.6578L36.1284 58.4126L36.1484 60.472C36.1733 63.0328 36.7441 65.2592 38.0582 67.9209L39.0748 69.9803V89.391C39.0748 110.431 39.0284 109.721 40.4619 110.66C41.2894 111.202 43.0091 111.202 43.8366 110.66C45.2578 109.729 45.2237 110.18 45.2237 92.2364C45.2237 79.08 45.2896 75.6998 45.544 75.8113C45.7203 75.8887 46.7289 76.2922 47.7858 76.708C52.944 78.7385 58.6612 78.3324 63.5852 75.5858C65.237 74.6643 68.8762 71.3784 69.5308 70.2173L69.8195 69.7049L70.1208 70.2173C70.7506 71.2877 73.5324 73.9543 75.0535 74.9453C81.285 79.0052 89.0987 79.0052 95.3302 74.9453C96.8513 73.9543 99.6332 71.2877 100.263 70.2173L100.564 69.7049L100.866 70.2173C101.495 71.2877 104.277 73.9543 105.798 74.9453C112.03 79.0052 119.843 79.0052 126.075 74.9453C127.596 73.9543 130.378 71.2877 131.008 70.2173L131.309 69.7049L131.598 70.2173C132.252 71.3784 135.891 74.6643 137.543 75.5858C142.467 78.3324 148.184 78.7385 153.343 76.708C154.399 76.2922 155.408 75.8887 155.584 75.8113C155.84 75.6993 155.905 83.3817 155.905 113.745V151.819H152.834H149.763L149.695 125.05L149.628 98.2816L148.79 97.444L147.953 96.6065H129.772H111.591L110.753 97.444L109.916 98.2816V127.223V156.165L110.753 157.002L111.591 157.84H137.458H163.325L164.162 157.002C164.881 156.283 165 155.986 165 154.905C165 153.866 164.871 153.511 164.259 152.873C163.852 152.448 163.189 152.028 162.786 151.939L162.054 151.778V110.879V69.9803L163.07 67.9209C164.384 65.2592 164.955 63.0328 164.98 60.472L165 58.4126L158.053 48.6865C151.134 38.9973 149.719 37.2971 147.739 36.2869C145.082 34.9316 147.156 34.9877 100.446 35.0059C63.9708 35.02 56.9252 35.0799 55.7925 35.3848ZM72.0236 44.2764C71.4108 46.0025 70.1795 49.4613 69.2876 51.9626L67.6661 56.5103H56.445C50.2733 56.5103 45.2237 56.456 45.2237 56.3899C45.2237 56.1852 54.2271 43.6172 54.9342 42.835C56.39 41.2243 56.8501 41.1497 65.3941 41.1436L73.1384 41.1379L72.0236 44.2764ZM97.4897 48.8241V56.5103H85.8383H74.1868L75.3015 53.3718C75.9144 51.6457 77.1457 48.1869 78.0376 45.6856L79.6591 41.1379H88.5743H97.4897V48.8241ZM123.091 45.6856C123.983 48.1869 125.214 51.6457 125.827 53.3718L126.942 56.5103H115.29H103.639V48.8241V41.1379H112.554H121.469L123.091 45.6856ZM144.504 41.6237C145.067 41.8845 145.828 42.4297 146.194 42.835C146.901 43.6172 155.905 56.1852 155.905 56.3899C155.905 56.456 150.855 56.5103 144.683 56.5103H133.462L131.841 51.9626C130.949 49.4613 129.718 46.0025 129.105 44.2764L127.99 41.1379L135.734 41.1436C142.725 41.1487 143.578 41.1953 144.504 41.6237ZM66.2324 62.9795C66.2318 63.7991 64.628 66.5459 63.3334 67.9442C59.5956 71.9815 53.791 72.9971 48.8283 70.4825C46.8022 69.4559 44.5976 67.2284 43.5656 65.1659C43.0685 64.1721 42.6617 63.2016 42.6617 63.0092C42.6617 62.7184 44.6573 62.6592 54.4471 62.6592C63.7049 62.6592 66.2326 62.7279 66.2324 62.9795ZM96.9771 62.9795C96.9766 63.7991 95.3727 66.5459 94.0781 67.9442C90.3403 71.9815 84.5357 72.9971 79.573 70.4825C77.5469 69.4559 75.3423 67.2284 74.3103 65.1659C73.8132 64.1721 73.4064 63.2016 73.4064 63.0092C73.4064 62.7184 75.402 62.6592 85.1919 62.6592C94.4496 62.6592 96.9773 62.7279 96.9771 62.9795ZM127.722 62.9795C127.721 63.7991 126.117 66.5459 124.823 67.9442C121.085 71.9815 115.28 72.9971 110.318 70.4825C108.292 69.4559 106.087 67.2284 105.055 65.1659C104.558 64.1721 104.151 63.2016 104.151 63.0092C104.151 62.7184 106.147 62.6592 115.937 62.6592C125.194 62.6592 127.722 62.7279 127.722 62.9795ZM158.466 62.9795C158.466 63.7991 156.862 66.5459 155.568 67.9442C151.83 71.9815 146.025 72.9971 141.062 70.4825C139.036 69.4559 136.832 67.2284 135.8 65.1659C135.303 64.1721 134.896 63.2016 134.896 63.0092C134.896 62.7184 136.891 62.6592 146.681 62.6592C155.939 62.6592 158.467 62.7279 158.466 62.9795ZM53.2942 84.4239C52.1669 84.8925 51.5008 85.9499 51.5008 87.2706C51.5008 88.3469 51.6202 88.6457 52.3383 89.3638L53.1758 90.2014H100.564H147.953L148.79 89.3638C149.511 88.6429 149.628 88.349 149.628 87.255C149.628 86.161 149.511 85.8671 148.79 85.1462L147.953 84.3086L100.88 84.2597C74.9895 84.2328 53.576 84.3068 53.2942 84.4239ZM66.2236 96.8604C59.6368 98.174 54.1699 102.681 51.8187 108.736C50.9715 110.918 50.3478 113.877 50.3478 115.716V116.975L44.3911 116.976C38.9349 116.977 38.3654 117.019 37.6142 117.477C35.9368 118.5 36.0003 117.749 36.0003 136.527C36.0003 146.844 36.1018 154.086 36.2578 154.923C37.0761 159.307 40.8562 163.064 45.2586 163.868C46.2014 164.04 55.0474 164.107 70.7511 164.06L94.7996 163.989L96.2702 163.395C99.2468 162.193 101.715 159.725 102.917 156.748L103.511 155.278L103.584 137.331L103.658 119.385L103.064 118.504C102.076 117.037 101.798 116.983 95.2479 116.979L89.2912 116.975L89.2822 115.758C89.2681 113.841 88.6524 110.871 87.8318 108.762C84.5086 100.219 75.1706 95.0762 66.2236 96.8604ZM72.9701 103.009C78.759 104.517 83.1422 109.95 83.1422 115.62V116.975H69.8195H56.4968V115.62C56.4968 110.007 60.8474 104.56 66.5593 103.022C68.3356 102.543 71.1605 102.537 72.9701 103.009ZM143.607 127.223V151.819H129.772H115.937V127.223V102.627H129.772H143.607V127.223ZM121.957 122.33C121.676 122.454 121.157 122.866 120.804 123.244C120.19 123.906 120.164 124.068 120.164 127.239V130.544L121.002 131.382C121.722 132.103 122.016 132.219 123.11 132.219C124.204 132.219 124.498 132.103 125.219 131.382L126.057 130.544V127.223V123.902L125.264 123.11C124.418 122.264 122.915 121.91 121.957 122.33ZM66.5027 128.057C67.2851 128.404 68.3499 129.06 68.8687 129.516L69.8118 130.344L70.8843 129.426C72.5368 128.011 74.413 127.378 76.9933 127.364C78.9274 127.353 79.3652 127.443 80.9068 128.173C83.0805 129.203 84.8813 131.013 86.0069 133.299C86.776 134.862 86.8616 135.271 86.9482 137.804C87.0647 141.21 86.611 143.372 85.1537 146.357C83.1053 150.553 79.8418 153.577 74.5199 156.212C70.7828 158.062 69.9066 158.228 67.8641 157.468C60.8021 154.842 55.6508 149.919 53.5092 143.748C52.8753 141.922 52.7967 141.335 52.7897 138.363C52.7821 135.099 52.7997 134.992 53.6298 133.305C55.0213 130.477 57.2139 128.565 60.2118 127.566C61.7534 127.052 64.7676 127.287 66.5027 128.057ZM61.7757 133.644C60.819 133.923 59.6041 135.069 59.1554 136.118C58.683 137.222 58.7089 139.875 59.2087 141.588C60.2943 145.307 63.5676 148.685 68.1726 150.84L69.8195 151.611L71.4664 150.84C76.8565 148.318 80.4608 143.939 80.7764 139.529C80.9465 137.151 80.7047 136.094 79.7388 134.994C77.6187 132.579 75.3195 133.035 72.8648 136.358C71.0485 138.817 68.8928 139.084 67.3251 137.044C64.9139 133.907 63.6132 133.11 61.7757 133.644Z" fill="white"/>
<path fill-rule="evenodd" clip-rule="evenodd" d="M66.2236 96.7986C59.6368 98.1122 54.1699 102.619 51.8187 108.674C50.9715 110.856 50.3478 113.816 50.3478 115.655V116.913L44.3911 116.914C38.9349 116.915 38.3654 116.957 37.6142 117.415C35.9368 118.438 36.0003 117.687 36.0003 136.465C36.0003 146.782 36.1018 154.024 36.2578 154.861C37.0761 159.245 40.8562 163.002 45.2586 163.806C46.2014 163.979 55.0474 164.045 70.7511 163.999L94.7996 163.927L96.2702 163.333C99.2468 162.131 101.715 159.663 102.917 156.686L103.511 155.216L103.584 137.27L103.658 119.323L103.064 118.442C102.076 116.975 101.798 116.921 95.2479 116.917L89.2912 116.913L89.2822 115.696C89.2681 113.779 88.6524 110.809 87.8318 108.7C84.5086 100.157 75.1706 95.0144 66.2236 96.7986ZM72.9701 102.947C78.759 104.455 83.1422 109.889 83.1422 115.558V116.913H69.8195H56.4968V115.558C56.4968 109.945 60.8474 104.498 66.5593 102.96C68.3356 102.481 71.1605 102.476 72.9701 102.947ZM66.5027 127.995C67.2851 128.342 68.3499 128.999 68.8687 129.454L69.8118 130.282L70.8843 129.364C72.5368 127.95 74.413 127.316 76.9933 127.302C78.9274 127.291 79.3652 127.381 80.9068 128.112C83.0805 129.141 84.8813 130.951 86.0068 133.238C86.776 134.8 86.8616 135.209 86.9481 137.743C87.0647 141.148 86.611 143.311 85.1537 146.295C83.1053 150.491 79.8418 153.516 74.5199 156.151C70.7828 158.001 69.9066 158.166 67.8641 157.406C60.8021 154.78 55.6508 149.857 53.5092 143.687C52.8753 141.861 52.7967 141.273 52.7897 138.302C52.7821 135.037 52.7997 134.93 53.6298 133.243C55.0213 130.415 57.2139 128.503 60.2118 127.504C61.7534 126.99 64.7676 127.225 66.5027 127.995ZM61.7757 133.583C60.819 133.861 59.6041 135.008 59.1554 136.056C58.683 137.161 58.7089 139.814 59.2087 141.526C60.2943 145.245 63.5676 148.623 68.1726 150.779L69.8195 151.549L71.4664 150.779C76.8565 148.256 80.4608 143.877 80.7764 139.468C80.9465 137.089 80.7047 136.032 79.7388 134.932C77.6187 132.517 75.3195 132.973 72.8648 136.296C71.0485 138.755 68.8928 139.022 67.3251 136.982C64.9139 133.845 63.6132 133.048 61.7757 133.583Z" fill="white"/>
</g>
<defs>
<filter id="filter0_d_4515_6954" x="32" y="35" width="137" height="138.075" filterUnits="userSpaceOnUse" color-interpolation-filters="sRGB">
<feFlood flood-opacity="0" result="BackgroundImageFix"/>
<feColorMatrix in="SourceAlpha" type="matrix" values="0 0 0 0 0 0 0 0 0 0 0 0 0 0 0 0 0 0 127 0" result="hardAlpha"/>
<feOffset dy="5"/>
<feGaussianBlur stdDeviation="2"/>
<feComposite in2="hardAlpha" operator="out"/>
<feColorMatrix type="matrix" values="0 0 0 0 0 0 0 0 0 0 0 0 0 0 0 0 0 0 0.25 0"/>
<feBlend mode="normal" in2="BackgroundImageFix" result="effect1_dropShadow_4515_6954"/>
<feBlend mode="normal" in="SourceGraphic" in2="effect1_dropShadow_4515_6954" result="shape"/>
</filter>
</defs>
</svg>
