<svg width="201" height="200" viewBox="0 0 201 200" fill="none" xmlns="http://www.w3.org/2000/svg">
<ellipse cx="100.5" cy="100" rx="100.5" ry="100" fill="#128940"/>
<g filter="url(#filter0_d_4515_7039)">
<path d="M91.8486 32.3759C74.251 35.1785 58.8693 43.9122 48.1152 57.3386C43.0966 63.5303 37.4262 74.6103 35.4709 81.9101C28.7577 106.873 35.9271 132.487 54.5025 150.085C60.238 155.56 64.8655 158.688 72.7519 162.403C83.0498 167.291 87.938 168.269 101.56 168.269C111.858 168.269 113.943 168.074 118.832 166.705C125.545 164.88 134.8 160.643 140.275 156.928C160.545 143.111 172.146 118.213 169.669 93.7722C166.085 58.968 138.515 33.1581 103.841 32.0501C99.3439 31.9197 93.9343 32.0501 91.8486 32.3759ZM111.206 41.1748C132.128 44.8247 148.943 58.3814 157.221 78.1951C161.653 88.9492 162.63 103.092 159.697 114.498C157.677 122.385 155.591 127.012 151.094 133.791C142.686 146.37 128.282 156.081 113.487 159.079C94.9771 162.859 74.8375 157.189 61.0201 144.219C42.3144 126.752 36.5789 101.007 46.0947 77.5433C56.5229 51.9941 84.3533 36.4821 111.206 41.1748Z" fill="white"/>
<path d="M87.4891 48.6056C73.0851 52.5162 60.1801 63.0097 53.4018 76.5012C50.925 81.5198 48.5787 90.1883 48.1224 96.3801C47.4055 105.114 49.8822 118.54 52.8152 121.799C55.357 124.602 56.9213 123.689 75.8225 108.959C85.6642 101.268 94.3978 94.1641 95.2451 93.2516C96.679 91.6222 96.679 91.4266 96.679 71.2219C96.679 52.7118 96.5486 50.6261 95.571 49.4529C93.8764 47.4976 92.247 47.3021 87.4891 48.6056ZM88.206 72.6558V88.1678L73.802 99.4434C65.9157 105.635 59.0069 110.849 58.5507 110.98C56.465 111.827 55.9436 96.9015 57.7686 89.7321C61.0274 77.153 70.087 65.8774 81.6232 60.1419C84.9472 58.5125 87.815 57.1438 87.9453 57.1438C88.0757 57.1438 88.206 64.1177 88.206 72.6558Z" fill="white"/>
<path d="M107.881 48.474L106.447 49.6472L106.577 71.4813L106.773 93.2503L126.195 108.436C136.884 116.779 146.204 123.623 146.856 123.623C149.072 123.623 151.288 120.82 152.657 116.258C161.195 87.971 145.879 58.3808 118.179 49.4516C111.465 47.3008 109.51 47.1053 107.881 48.474ZM122.154 60.5317C126.326 62.6173 128.802 64.4422 132.843 68.4832C140.925 76.6303 145.162 85.2336 146.139 95.5315C146.661 100.485 145.944 110.457 145.031 111.369C144.771 111.565 137.927 106.611 129.78 100.289L114.985 88.7531V73.2411C114.92 60.5317 115.05 57.7942 115.832 57.7942C116.288 57.7942 119.156 59.0326 122.154 60.5317Z" fill="white"/>
<path d="M90.6771 109.806C90.0905 110.067 83.4425 115.085 75.8169 121.017C61.7387 132.031 60.6307 133.27 61.9994 136.333C63.1074 138.745 72.1018 145.523 78.0329 148.391C84.0943 151.324 91.2637 153.344 93.6101 152.692C96.4778 151.975 96.7385 150.02 96.543 130.206L96.3475 111.761L94.7832 110.523C93.219 109.22 92.5021 109.089 90.6771 109.806ZM88.2004 133.139V143.242L86.7665 142.785C82.3997 141.482 73.2098 135.942 73.2098 134.638C73.2098 134.117 86.8969 123.037 87.7442 122.972C88.0049 122.972 88.2004 127.534 88.2004 133.139Z" fill="white"/>
<path d="M108.401 110.131L106.771 110.979L106.576 130.727C106.445 148.455 106.51 150.671 107.488 151.779C108.857 153.213 110.617 153.278 115.765 151.909C123.587 149.889 131.994 145.196 138.251 139.396C140.467 137.31 140.989 136.397 140.989 134.507C140.989 132.291 140.533 131.835 130.756 124.079C109.9 107.785 111.333 108.632 108.401 110.131ZM123.065 129.163C126.65 131.965 129.713 134.377 129.909 134.572C130.756 135.289 120.458 141.612 116.417 142.85L114.918 143.241V133.008C114.918 124.926 115.114 122.971 115.765 123.427C116.157 123.818 119.481 126.36 123.065 129.163Z" fill="white"/>
</g>
<defs>
<filter id="filter0_d_4515_7039" x="29" y="32" width="145" height="145.269" filterUnits="userSpaceOnUse" color-interpolation-filters="sRGB">
<feFlood flood-opacity="0" result="BackgroundImageFix"/>
<feColorMatrix in="SourceAlpha" type="matrix" values="0 0 0 0 0 0 0 0 0 0 0 0 0 0 0 0 0 0 127 0" result="hardAlpha"/>
<feOffset dy="5"/>
<feGaussianBlur stdDeviation="2"/>
<feComposite in2="hardAlpha" operator="out"/>
<feColorMatrix type="matrix" values="0 0 0 0 0 0 0 0 0 0 0 0 0 0 0 0 0 0 0.25 0"/>
<feBlend mode="normal" in2="BackgroundImageFix" result="effect1_dropShadow_4515_7039"/>
<feBlend mode="normal" in="SourceGraphic" in2="effect1_dropShadow_4515_7039" result="shape"/>
</filter>
</defs>
</svg>
