<svg width="22" height="22" viewBox="0 0 22 22" fill="none" xmlns="http://www.w3.org/2000/svg">
<path d="M2.44922 0.0945301C2.37188 0.150391 2.26445 0.249218 2.21719 0.313671L2.12695 0.433985V11V21.566L2.21719 21.6863C2.26445 21.7508 2.37188 21.8496 2.44922 21.9012L2.59102 22H11H19.409L19.5508 21.9012C19.6281 21.8496 19.7355 21.7508 19.7828 21.6863L19.873 21.566L19.8859 15.5848C19.8902 11.3695 19.8816 9.56914 19.8473 9.4918C19.757 9.27266 19.4563 9.2168 19.2629 9.38437L19.1426 9.4875L19.1297 15.3785L19.1211 21.2695H11H2.87891V11V0.730469H11H19.1211V3.90586C19.1211 7.18008 19.1254 7.30039 19.293 7.39062C19.4434 7.47227 19.6754 7.44219 19.7914 7.32617L19.8945 7.22305L19.8859 3.82852C19.873 0.464062 19.873 0.433985 19.7828 0.313671C19.7355 0.249218 19.6281 0.150391 19.5508 0.0945301L19.409 0H11H2.59102L2.44922 0.0945301Z" fill="#005B94"/>
<path d="M6.62577 1.56875C5.69764 1.7707 4.83827 2.61289 4.61913 3.52813C4.54608 3.85039 4.53319 4.45625 4.60194 4.77852C4.62772 4.90313 4.72655 5.16953 4.82108 5.37148C4.96288 5.66797 5.0617 5.80117 5.3453 6.08047C5.7535 6.48438 6.14881 6.70352 6.66874 6.80664C7.08553 6.89258 7.35194 6.89258 7.76874 6.80664C8.72694 6.61328 9.56913 5.81406 9.81405 4.87305C9.90428 4.5293 9.90428 3.85039 9.81405 3.51094C9.45311 2.12305 8.04374 1.26367 6.62577 1.56875ZM8.04374 2.4625C9.01053 2.93945 9.40585 4.05664 8.95038 5.01914C8.7871 5.36719 8.3746 5.77109 8.00506 5.93867C7.60975 6.12344 7.02967 6.15352 6.64295 6.02031C5.93827 5.77109 5.45702 5.2082 5.31952 4.46914C5.15623 3.59258 5.76639 2.63867 6.68163 2.33359C6.78905 2.29922 7.01249 2.28203 7.28749 2.29063C7.69139 2.29922 7.74295 2.31211 8.04374 2.4625Z" fill="#005B94"/>
<path d="M6.80625 2.89649C6.42383 3.0168 6.08437 3.34766 5.94687 3.72578C5.9168 3.81602 5.89102 4.01797 5.88672 4.17695C5.88672 4.72266 6.14023 5.14805 6.62578 5.40156C6.82344 5.50039 6.90508 5.51758 7.21875 5.51758C7.64844 5.51758 7.90195 5.41875 8.17695 5.14375C8.43906 4.88164 8.55508 4.58086 8.55508 4.18125C8.55508 3.88906 8.53789 3.81172 8.41328 3.57109C8.1168 2.98672 7.43359 2.69883 6.80625 2.89649ZM7.51953 3.68281C7.66562 3.76875 7.82031 4.03086 7.82031 4.18555C7.82031 4.34453 7.72148 4.5207 7.55391 4.6625C7.43359 4.76563 7.39062 4.77852 7.18867 4.76133C6.63867 4.71406 6.44102 4.1082 6.85352 3.74297C6.97812 3.63555 7.04687 3.60977 7.20156 3.60977C7.30898 3.60977 7.45508 3.63984 7.51953 3.68281Z" fill="#005B94"/>
<path d="M11.4855 2.06283C11.3652 2.11009 11.3008 2.2347 11.3008 2.41517C11.3051 2.58705 11.3738 2.69017 11.5328 2.75033C11.7004 2.81048 16.9555 2.81048 17.1402 2.74603C17.2133 2.72025 17.2949 2.66439 17.3164 2.62142C17.3852 2.49252 17.3637 2.25189 17.2777 2.14447L17.1961 2.04134L14.3859 2.03275C12.8219 2.02845 11.5371 2.04134 11.4855 2.06283Z" fill="#005B94"/>
<path d="M11.5199 3.82852C11.464 3.85 11.391 3.90156 11.3609 3.94453C11.275 4.05625 11.2878 4.31406 11.3824 4.43008L11.464 4.5332H14.33H17.196L17.2777 4.43008C17.3636 4.32266 17.3851 4.08203 17.3164 3.95312C17.2949 3.91016 17.2132 3.8543 17.1402 3.82852C16.964 3.76836 11.6703 3.76836 11.5199 3.82852Z" fill="#005B94"/>
<path d="M11.4941 5.63765C11.3523 5.71069 11.3008 5.80952 11.3008 5.9814C11.3008 6.16187 11.4039 6.29937 11.5672 6.33804C11.623 6.35093 12.9121 6.35522 14.4289 6.35093L17.1961 6.33804L17.2777 6.23491C17.3594 6.13608 17.3852 5.91694 17.3336 5.77944C17.2605 5.59038 17.2219 5.58608 14.3215 5.58608C12.4223 5.59038 11.5543 5.60327 11.4941 5.63765Z" fill="#005B94"/>
<path d="M19.2457 7.88937C19.1555 7.9882 19.1426 8.03976 19.1426 8.35773C19.1426 8.67999 19.1555 8.72726 19.2457 8.82609C19.3746 8.96359 19.6195 8.97648 19.7699 8.85617C19.8602 8.78312 19.873 8.73156 19.8859 8.38351C19.9031 8.01827 19.8988 7.99249 19.7914 7.88937C19.641 7.73468 19.3918 7.73468 19.2457 7.88937Z" fill="#005B94"/>
<path d="M6.79333 8.34022C5.78786 8.51639 4.91559 9.3328 4.66208 10.334C4.57614 10.6648 4.58044 11.3265 4.66637 11.6574C5.10895 13.3719 7.0984 14.1926 8.63239 13.2902C9.20817 12.9508 9.68942 12.3105 9.857 11.6617C9.94294 11.3265 9.94294 10.6777 9.86129 10.3168C9.65505 9.44451 8.90309 8.67537 7.99215 8.40467C7.69997 8.31873 7.1027 8.28436 6.79333 8.34022ZM7.81598 9.14803C8.73981 9.43592 9.31989 10.3726 9.15661 11.3008C8.97614 12.3148 7.98356 13.041 6.99098 12.8863C5.95544 12.7273 5.1777 11.6832 5.36247 10.6992C5.57731 9.52616 6.72028 8.80858 7.81598 9.14803Z" fill="#005B94"/>
<path d="M6.94808 9.66797C6.56136 9.7668 6.22191 10.0418 6.05003 10.3941C5.97699 10.5359 5.94691 10.6906 5.93832 10.9484C5.92113 11.2793 5.92972 11.3266 6.05433 11.5801C6.28636 12.0484 6.73753 12.332 7.26175 12.332C7.79027 12.332 8.23285 12.057 8.46918 11.5801C8.59808 11.318 8.60238 11.2836 8.58519 10.927C8.56371 10.4973 8.48636 10.3039 8.21996 10.0375C7.91488 9.72813 7.36058 9.56485 6.94808 9.66797ZM7.54964 10.4844C7.97074 10.7379 7.94496 11.3008 7.50668 11.5113C7.27894 11.623 7.24886 11.623 7.02543 11.5156C6.69457 11.3523 6.57425 10.9656 6.76761 10.6691C6.86644 10.5188 7.08558 10.3984 7.26175 10.3984C7.34339 10.3984 7.4723 10.4371 7.54964 10.4844Z" fill="#005B94"/>
<path d="M11.5372 8.86016C11.4899 8.88594 11.4255 8.9375 11.3997 8.97188C11.318 9.075 11.3309 9.34141 11.4255 9.45742L11.5071 9.56055H14.3731H17.2391L17.3208 9.45742C17.4024 9.35859 17.4282 9.13945 17.3766 9.00195C17.3036 8.81289 17.2649 8.80859 14.3645 8.80859C12.4653 8.81289 11.5973 8.82578 11.5372 8.86016Z" fill="#005B94"/>
<path d="M11.4383 10.7121C11.3051 10.8539 11.3094 11.0988 11.4512 11.2363L11.5543 11.3438H14.3731H17.1919L17.295 11.2363C17.4411 11.0945 17.4411 10.8367 17.3036 10.7078L17.2047 10.6133H14.3688H11.5286L11.4383 10.7121Z" fill="#005B94"/>
<path d="M11.4383 12.5168C11.3051 12.6586 11.3094 12.9035 11.4512 13.041L11.5543 13.1484H14.3731H17.1919L17.295 13.041C17.4411 12.8992 17.4411 12.6414 17.3036 12.5125L17.2047 12.418H14.3688H11.5286L11.4383 12.5168Z" fill="#005B94"/>
<path d="M6.61714 15.2371C5.68042 15.4391 4.84253 16.2598 4.61909 17.1922C4.53745 17.5445 4.53745 18.1719 4.61909 18.4984C4.85542 19.4223 5.5687 20.1527 6.51401 20.4363C6.69019 20.4922 6.90933 20.5137 7.24019 20.5137C7.65698 20.5137 7.75581 20.4965 8.07808 20.3848C8.28003 20.3117 8.55503 20.1828 8.68823 20.0926C9.21245 19.7488 9.66362 19.1215 9.81402 18.5371C9.89995 18.1977 9.90425 17.5016 9.81831 17.175C9.45737 15.7871 8.0437 14.9277 6.61714 15.2371ZM7.69136 15.9891C8.17691 16.1008 8.72261 16.5477 8.95464 17.0246C9.5605 18.2836 8.62378 19.766 7.2187 19.766C6.28628 19.766 5.49565 19.0871 5.31948 18.1332C5.17769 17.3684 5.63745 16.4961 6.37651 16.1352C6.8148 15.9203 7.18862 15.8773 7.69136 15.9891Z" fill="#005B94"/>
<path d="M6.78909 16.5647C6.50979 16.6549 6.19612 16.9127 6.04573 17.1834C5.86526 17.5014 5.83518 17.9955 5.96838 18.3479C6.20041 18.9623 6.93518 19.3319 7.56682 19.1514C8.03088 19.0139 8.40041 18.6616 8.51213 18.2448C8.80002 17.1748 7.84182 16.2381 6.78909 16.5647ZM7.51955 17.3467C7.66565 17.4327 7.82034 17.6948 7.82034 17.8495C7.82034 18.1245 7.57541 18.3909 7.29182 18.4209C6.97815 18.4596 6.69455 18.2491 6.6344 17.9354C6.60002 17.7506 6.73752 17.4541 6.9051 17.351C7.05979 17.2565 7.36487 17.2522 7.51955 17.3467Z" fill="#005B94"/>
<path d="M11.4082 15.791C11.2578 15.9371 11.2621 16.1906 11.4124 16.3324L11.5242 16.4355H14.33H17.1359L17.2476 16.3324C17.398 16.1906 17.4023 15.9371 17.2519 15.791L17.1488 15.6836H14.33H11.5113L11.4082 15.791Z" fill="#005B94"/>
<path d="M11.4942 17.4969C11.4469 17.5227 11.3825 17.5742 11.3567 17.6086C11.2751 17.7117 11.288 17.9781 11.3825 18.0941L11.4641 18.1973H14.3301H17.1962L17.2778 18.0941C17.3594 17.9953 17.3852 17.7762 17.3337 17.6387C17.2606 17.4496 17.2219 17.4453 14.3215 17.4453C12.4223 17.4496 11.5544 17.4625 11.4942 17.4969Z" fill="#005B94"/>
<path d="M11.4941 19.3016C11.3609 19.3746 11.3008 19.4691 11.3008 19.6195C11.3008 19.8172 11.3395 19.8902 11.477 19.959C11.5801 20.0148 12.0141 20.0234 14.3301 20.0234C17.2219 20.0234 17.2605 20.0191 17.3336 19.8301C17.368 19.7398 17.368 19.5336 17.3336 19.4434C17.2605 19.2543 17.2219 19.25 14.3215 19.25C12.4223 19.2543 11.5543 19.2672 11.4941 19.3016Z" fill="#005B94"/>
</svg>
