<svg width="30" height="30" viewBox="0 0 30 30" fill="none" xmlns="http://www.w3.org/2000/svg">
<g clip-path="url(#clip0_4976_19296)">
<path d="M10.209 1.43574C7.74802 2.2209 5.65622 2.9123 5.55075 2.9709C5.13474 3.21699 4.99997 3.86152 5.2695 4.30098C5.34567 4.41816 5.4277 4.51191 5.457 4.51191C5.4863 4.51191 5.50974 5.00996 5.50974 5.67793V6.84394L5.31638 6.88496C5.21677 6.9084 5.04099 6.99043 4.93552 7.07246C4.62497 7.30684 4.57224 7.47676 4.57224 8.20918C4.57224 8.74238 4.50778 9.24043 4.24997 10.7463C3.91013 12.7561 3.90427 12.8791 4.15622 13.2307C4.3906 13.5646 4.54294 13.5939 5.9902 13.5939C7.29099 13.5939 7.3027 13.5939 7.5195 13.4475C7.74802 13.2893 7.87106 13.0959 7.93552 12.7971C7.95895 12.6857 7.85934 11.9299 7.64841 10.7287C7.39059 9.21699 7.32614 8.70723 7.32614 8.1916C7.32614 7.83418 7.29684 7.49434 7.26169 7.42402C7.13864 7.18379 6.89255 6.97285 6.66989 6.9084L6.44724 6.8498V5.82441C6.44724 4.87519 6.45309 4.79902 6.5527 4.82832C6.60544 4.84004 7.08005 4.92793 7.60739 5.01582L8.55661 5.17988V6.19355C8.55661 7.24238 8.59177 7.42402 8.81442 7.61152C8.89645 7.68184 8.90817 7.93965 8.90817 9.60371V11.5197L9.06052 11.8244C9.207 12.1232 9.57614 12.4221 9.79294 12.4221C9.85739 12.4221 9.90427 12.5451 9.95114 12.8322C10.1386 13.9396 10.6836 14.924 11.539 15.7209C11.873 16.0256 11.8965 16.0666 11.8965 16.3068V16.5646L9.9863 17.8068L8.07614 19.0549L7.01559 19.3654C5.832 19.717 5.29294 19.9631 4.75974 20.3967C4.07419 20.9475 3.49411 21.8439 3.24802 22.7053C3.14841 23.0744 3.06052 25.049 3.13083 25.342C3.15427 25.424 3.23044 25.5295 3.31247 25.5822C3.42966 25.6584 3.48825 25.6643 3.66403 25.6057C3.77536 25.5705 3.89255 25.4943 3.92185 25.4416C3.95114 25.3889 3.9863 24.8674 4.00388 24.2873C4.03317 23.1154 4.08591 22.8635 4.44333 22.1838C4.73044 21.6389 5.35153 21.0119 5.8906 20.7307C6.33591 20.4963 8.08786 19.9514 8.25192 19.9924C8.31052 20.01 9.75192 20.8537 11.457 21.8674C15.0078 23.9768 14.914 23.924 15.084 23.883C15.1543 23.8654 16.6601 22.9924 18.4297 21.9377C20.205 20.883 21.6933 20.01 21.7461 19.9982C21.8867 19.9572 23.6386 20.4904 24.0254 20.6838C25.0039 21.176 25.7246 22.1428 25.9355 23.2443C26.0351 23.7658 26.0527 28.0783 25.959 28.4182C25.8945 28.6584 25.6015 28.9689 25.3554 29.0568C25.2617 29.092 24.7402 29.1213 24.1425 29.1213H23.0937L23.0761 28.0959C23.0586 27.135 23.0527 27.0646 22.9297 26.9475C22.7539 26.7717 22.4609 26.7717 22.3144 26.9475C22.2207 27.0705 22.209 27.1994 22.209 28.1018V29.1213H15.0019H7.79489V28.1018C7.79489 27.1994 7.78317 27.0705 7.68942 26.9475C7.54294 26.7717 7.24997 26.7717 7.07419 26.9475C6.95114 27.0646 6.94528 27.135 6.9277 28.0959L6.91013 29.1213H5.82614C4.64841 29.1213 4.56638 29.1037 4.26169 28.7873C4.04489 28.5588 3.9863 28.3186 3.9863 27.6682C3.9863 27.3693 3.96286 27.0705 3.9277 27.0119C3.89841 26.9533 3.77536 26.8713 3.66403 26.8361C3.48825 26.7775 3.42966 26.7834 3.31247 26.8596C3.11325 26.9885 3.08981 27.1291 3.11911 27.9611C3.13669 28.5998 3.16013 28.717 3.29489 28.9807C3.38278 29.1447 3.58786 29.4025 3.75192 29.549C4.29685 30.0412 3.30661 30.0002 15.0019 30.0002C26.8496 30.0002 25.7304 30.0529 26.3164 29.4787C26.5566 29.2385 26.6797 29.0568 26.7734 28.8049C26.9023 28.4592 26.9023 28.4123 26.8789 25.758C26.8554 22.7404 26.8613 22.7756 26.4277 21.885C25.9883 20.9943 25.2793 20.2854 24.4062 19.8635C24.1484 19.7404 23.4863 19.5061 22.9297 19.342L21.9218 19.049L20.0117 17.8068L18.1074 16.5588V16.3186C18.1074 16.0842 18.1425 16.0373 18.5937 15.5803C19.3906 14.7775 19.83 13.9689 20.0293 12.9436C20.123 12.4689 20.1406 12.4279 20.2871 12.3986C20.5039 12.3576 20.8613 12.0236 20.9843 11.7482C21.084 11.5373 21.0957 11.3264 21.0957 9.60371C21.0957 7.93965 21.1074 7.68184 21.1894 7.61152C21.4121 7.42402 21.4472 7.24238 21.4472 6.19355V5.17402L22.8593 4.93379C24.4062 4.67012 24.5879 4.60566 24.7636 4.23066C24.8984 3.94941 24.8925 3.51582 24.7461 3.26973C24.6875 3.16426 24.5293 3.01777 24.4004 2.95332C24.2773 2.88301 22.1679 2.1916 19.7129 1.4123C16.2558 0.316601 15.1894 0.00019455 14.9668 0.00605392C14.7617 0.0119133 13.3847 0.42207 10.209 1.43574ZM19.5019 2.29707C21.957 3.08223 23.9609 3.74434 23.9492 3.77949C23.9375 3.80879 23.2871 3.94941 22.4961 4.09004C21.1425 4.32441 21.0371 4.33613 20.5273 4.27754C19.7715 4.19551 19.6484 4.20137 19.5136 4.33613C19.3672 4.48262 19.3613 4.76973 19.5078 4.91621C19.5664 4.9748 19.7246 5.04512 19.8593 5.06269C19.9941 5.08027 20.205 5.11543 20.334 5.13301L20.5683 5.16816V6.07051V6.97285H15.0019H9.43552V6.06465V5.1623L9.62888 5.13301C9.72849 5.11543 10.8066 4.9748 12.0136 4.82246C14.6152 4.49434 15.2656 4.47676 16.8125 4.68184C17.9258 4.82832 18.0605 4.8166 18.166 4.53535C18.2422 4.34785 18.2011 4.21309 18.0429 4.0666C17.8906 3.92598 16.6367 3.76191 15.3828 3.71504C14.4863 3.67988 14.3281 3.6916 11.7207 4.00801L8.99606 4.34199L7.53708 4.09004C6.73434 3.94941 6.06638 3.80879 6.05466 3.77363C6.03708 3.72676 14.75 0.902538 14.9726 0.879101C15.0078 0.879101 17.041 1.51777 19.5019 2.29707ZM6.44724 8.20332V8.61348H5.94919H5.45114V8.20332V7.79316H5.94919H6.44724V8.20332ZM10.9004 8.29121C10.9004 8.77754 10.8008 9.09394 10.6191 9.19355C10.5488 9.22871 10.3379 9.25801 10.1445 9.25801H9.78708V8.55488V7.85176H10.3437H10.9004V8.29121ZM18.2832 8.38496C18.2832 9.03535 18.3593 9.30488 18.623 9.60957C18.9101 9.94941 19.2148 10.0842 19.7597 10.1193L20.2168 10.1545V10.758C20.2168 11.4436 20.1406 11.6018 19.8125 11.6018C19.455 11.6018 19.2675 11.883 19.1914 12.5393C19.0859 13.424 18.6054 14.3264 17.8789 15.0119C17.3691 15.4924 16.8535 15.7912 16.1738 16.008C15.541 16.2014 14.4629 16.2014 13.83 16.008C13.1504 15.7912 12.6347 15.4924 12.125 15.0119C11.3984 14.3264 10.9179 13.424 10.8125 12.5393C10.7363 11.883 10.5488 11.6018 10.1914 11.6018C9.86325 11.6018 9.78708 11.4436 9.78708 10.758V10.1545L10.2441 10.1193C10.789 10.0842 11.0937 9.94941 11.3808 9.60957C11.6445 9.30488 11.7207 9.03535 11.7207 8.38496V7.85176H15.0019H18.2832V8.38496ZM20.2168 8.55488V9.25801H19.8593C19.666 9.25801 19.455 9.22871 19.3847 9.19355C19.2031 9.09394 19.1035 8.77754 19.1035 8.29121V7.85176H19.6601H20.2168V8.55488ZM6.78122 10.8986C6.91599 11.6896 7.02731 12.4221 7.03317 12.5217V12.715H5.94919C4.88864 12.715 4.8652 12.7092 4.8652 12.592C4.8652 12.4572 5.32224 9.69746 5.36911 9.5334C5.39841 9.43965 5.46872 9.43379 5.96677 9.44551L6.52927 9.46309L6.78122 10.8986ZM13.1621 16.6643C14.2343 17.0979 15.7695 17.0979 16.8418 16.6643C17.0351 16.5881 17.205 16.5354 17.2226 16.5529C17.2695 16.6057 17.123 18.1115 17.0175 18.5861C16.9355 18.9494 16.8945 19.0373 16.7949 19.0666C16.3965 19.1604 15.289 19.2307 14.5918 19.2014C13.9004 19.1662 13.1445 19.0842 13.0918 19.0314C12.9804 18.9201 12.6875 16.5236 12.7871 16.5236C12.7988 16.5236 12.9687 16.5881 13.1621 16.6643ZM12.0136 17.8361C12.0136 17.9475 12.0664 18.2932 12.1308 18.6096C12.3418 19.676 12.7226 20.6604 13.2675 21.5627C13.4492 21.8615 13.5898 22.1135 13.584 22.1193C13.5547 22.1428 9.17184 19.5178 9.16013 19.4709C9.14255 19.4182 11.832 17.6486 11.9433 17.6428C11.9843 17.6369 12.0136 17.7131 12.0136 17.8361ZM19.5019 18.5451C20.2461 19.0256 20.8496 19.4475 20.8437 19.4709C20.832 19.5178 16.4492 22.1428 16.4199 22.1193C16.414 22.1135 16.5488 21.8732 16.7246 21.5861C17.0761 20.9943 17.3925 20.3088 17.6093 19.6467C17.7793 19.1193 17.9902 18.1232 17.9902 17.8303C17.9902 17.6896 18.0136 17.6369 18.0664 17.6486C18.1133 17.6604 18.7578 18.0588 19.5019 18.5451ZM16.5195 20.1389C16.3554 20.5725 15.0957 22.676 15.0019 22.676C14.9082 22.676 13.6484 20.5725 13.4843 20.1389L13.4316 20.01H15.0019H16.5722L16.5195 20.1389Z" fill="#151515"/>
<path d="M15.9967 2.4082C16.0143 3.07617 16.0436 3.64453 16.0671 3.66211C16.0905 3.68555 16.5065 3.75586 16.9987 3.81445C17.9421 3.93164 18.1354 4.00195 18.1999 4.24805C18.2174 4.33008 18.2409 4.39453 18.2467 4.40039C18.2467 4.40039 18.4928 4.43555 18.7799 4.47656L19.3073 4.54102L19.4948 4.3418C19.6764 4.1543 19.7057 4.14844 19.9635 4.18359C20.8483 4.30664 21.0944 4.29492 22.5299 4.04297C23.3034 3.9082 23.9421 3.79102 23.9538 3.7793C23.9772 3.75586 23.1803 3.49805 18.8971 2.14453C17.4147 1.66992 16.1491 1.26562 16.0846 1.23633C15.9674 1.18945 15.9674 1.20703 15.9967 2.4082Z" fill="#0583D2"/>
<path d="M17.8302 6.95508C18.3399 6.9668 19.1602 6.9668 19.6466 6.95508C20.1387 6.94922 19.7227 6.9375 18.7208 6.9375C17.7247 6.9375 17.3204 6.94922 17.8302 6.95508Z" fill="#406B6B"/>
<path d="M20.4516 20.7715C19.7251 21.2051 19.1274 21.5801 19.1216 21.6035C19.1098 21.6328 19.3208 21.709 19.5845 21.7852C20.9087 22.1543 21.8579 22.9395 22.3794 24.0937C22.6255 24.627 22.7368 25.2539 22.7368 26.0508V26.7305L22.9126 26.8945L23.0884 27.0586V28.0957V29.1328L24.1899 29.1094C25.2212 29.0918 25.2973 29.0859 25.5083 28.9512C25.6313 28.8809 25.7778 28.7168 25.8423 28.5879C25.9536 28.377 25.9595 28.2363 25.9595 25.9102C25.9595 23.1387 25.9302 22.916 25.5083 22.1543C25.2387 21.668 24.5766 21.0059 24.1137 20.7598C23.8384 20.6133 22.8774 20.2969 21.8579 20.0098C21.811 19.998 21.1782 20.3379 20.4516 20.7715Z" fill="#BDC78C"/>
<path d="M11.3674 2.04492C9.48071 2.64844 7.5061 3.28125 6.97875 3.45117C6.45727 3.62109 6.03539 3.76758 6.04711 3.7793C6.09399 3.82617 8.83032 4.27734 9.07055 4.27734C9.21118 4.27734 10.3831 4.14258 11.678 3.97266C13.6702 3.71484 14.1858 3.66797 15.0295 3.66797L16.0256 3.66211L16.0081 2.46094C15.9963 1.79883 15.9729 1.24219 15.9495 1.22461C15.8616 1.14258 15.1409 0.9375 14.9768 0.943359C14.8772 0.949219 13.2541 1.44141 11.3674 2.04492Z" fill="#0583D2"/>
<path d="M18.1758 4.56445C18.0527 4.8457 17.8945 4.85742 16.7578 4.71094C15.2109 4.51172 14.7949 4.52344 11.9707 4.86914L9.49219 5.17383V6.07617V6.97266H12.3223C13.875 6.97266 16.3535 6.95508 17.8301 6.93164L20.5078 6.89648V6.03516V5.16797L20.1152 5.12695C19.6523 5.08008 19.4707 4.98633 19.3652 4.72266C19.2832 4.53516 19.2656 4.52344 18.8555 4.48828C18.6211 4.46484 18.3867 4.43555 18.3398 4.42383C18.2812 4.40625 18.2227 4.45898 18.1758 4.56445Z" fill="#0583D2"/>
<path d="M10.5297 18.5624C9.35779 19.3241 9.15271 19.4823 9.2406 19.5292C9.29919 19.5643 10.2894 20.1503 11.4496 20.8417C12.7328 21.6034 13.5179 22.037 13.4652 21.955C12.7328 20.8241 12.2582 19.5878 12.0414 18.2811C11.9828 17.9413 11.9359 17.66 11.9301 17.66C11.9301 17.6542 11.2972 18.0585 10.5297 18.5624Z" fill="#BDC78C"/>
<path d="M18.0175 17.9122C17.8242 19.3712 17.3906 20.5724 16.5761 21.8966C16.4765 22.0548 16.7578 21.9083 18.5566 20.836C19.7109 20.1505 20.7011 19.5645 20.7597 19.5294C20.8476 19.4825 20.6484 19.3302 19.5293 18.6036C18.7968 18.1231 18.164 17.7071 18.123 17.6837C18.0761 17.6427 18.0468 17.7071 18.0175 17.9122Z" fill="#BDC78C"/>
<path d="M7.20703 20.2793C6.67969 20.4375 6.08789 20.6543 5.88867 20.7598C5.36133 21.0352 4.69922 21.7266 4.43555 22.2656C4.10742 22.9395 4.04297 23.2734 4.04297 24.3281C4.04297 25.3594 4.00195 25.5117 3.70898 25.6172L3.51562 25.6875V26.2324C3.51562 26.6895 3.5332 26.7773 3.60938 26.7773C3.65625 26.7773 3.7793 26.8535 3.87305 26.9473C4.03711 27.1172 4.04297 27.1348 4.04297 27.7441C4.04297 28.4883 4.11914 28.7051 4.4707 28.9336C4.70508 29.0859 4.72852 29.0918 5.8125 29.1094L6.91406 29.1328V28.0957C6.91406 27.082 6.91406 27.0645 7.06055 26.9238C7.13672 26.8418 7.26562 26.7773 7.34766 26.7773C7.78711 26.7773 7.85156 26.9473 7.85156 28.1543V29.1211H15H22.1484V28.1543C22.1484 26.9707 22.2129 26.7773 22.623 26.7773C22.7285 26.7773 22.7344 26.7305 22.7344 26.0742C22.7344 24.9023 22.5117 24.1465 21.9375 23.3438C21.4102 22.6055 20.6133 22.0781 19.5469 21.7734L19.0195 21.6211L17.0977 22.7637C15.7266 23.584 15.1289 23.9062 15 23.9062C14.8711 23.9062 13.9395 23.3848 11.5605 21.9668C9.77344 20.9004 8.27344 20.0215 8.23828 20.0098C8.20312 19.998 7.74023 20.1211 7.20703 20.2793Z" fill="#BDC78C"/>
<path d="M16.9199 10.5293C16.8906 13.418 16.8965 13.4121 16.5566 14.25C16.3398 14.7891 16.0586 15.2109 15.6074 15.6914L15.1914 16.1309L15.5371 16.0898C16.4336 15.9961 17.3594 15.5098 18.0625 14.7656C18.7129 14.0801 19.0703 13.2832 19.1875 12.2812C19.2344 11.8887 19.4219 11.6367 19.7207 11.5723C20.166 11.4785 20.1543 11.4961 20.1543 10.7812V10.1367H19.7441C19.2695 10.1367 19.0352 10.0547 18.7246 9.78516C18.3613 9.46289 18.2617 9.19922 18.2324 8.47852L18.2031 7.85156H17.5703H16.9375L16.9199 10.5293Z" fill="#ECC1C1"/>
<path d="M11.7656 8.47852C11.7422 9.18164 11.6484 9.43359 11.2969 9.76758C11.0215 10.0371 10.7344 10.1367 10.2539 10.1367H9.84375V10.7461C9.84375 11.4434 9.87305 11.5078 10.2422 11.5664C10.5527 11.6133 10.7637 11.8594 10.8105 12.2344C10.8867 12.7852 10.9746 13.1602 11.1094 13.5C11.707 14.9766 13.3184 16.1133 14.8184 16.1133H15.2051L15.6152 15.6797C16.0605 15.2109 16.3418 14.7891 16.5586 14.25C16.8984 13.4121 16.8926 13.418 16.9219 10.5293L16.9395 7.85156H14.3672H11.7891L11.7656 8.47852Z" fill="#ECECC1"/>
<path d="M12.8477 17.1973C12.8887 17.8945 13.041 18.8203 13.1406 18.9492C13.3574 19.2246 16.6387 19.2246 16.8555 18.9492C16.9551 18.8203 17.1074 17.8945 17.1484 17.1973L17.1836 16.5879L16.7793 16.7402C16.2168 16.9453 15.6016 17.0508 14.998 17.0508C14.3945 17.0508 13.7793 16.9453 13.2168 16.7402L12.8125 16.5879L12.8477 17.1973Z" fill="#ECECC1"/>
<path d="M5.14441 11.0569C4.99792 11.924 4.88659 12.6447 4.90417 12.6682C4.93933 12.7326 6.95495 12.7268 6.99597 12.6682C7.00769 12.6447 6.90808 11.9416 6.76159 11.1096C6.62097 10.2776 6.50378 9.56858 6.50378 9.54514C6.50378 9.51584 6.25769 9.49241 5.95886 9.49241H5.41394L5.14441 11.0569Z" fill="#ECECEC"/>
<path d="M13.4766 20.0215C13.4766 20.2207 14.877 22.5586 15 22.5586C15.123 22.5586 16.5996 20.0859 16.5176 20.0156C16.5059 20.0039 16.2832 20.0215 16.0254 20.0508C15.5391 20.1094 13.7578 20.0801 13.582 20.0098C13.5234 19.9863 13.4766 19.9922 13.4766 20.0215Z" fill="#ECECEC"/>
</g>
<defs>
<clipPath id="clip0_4976_19296">
<rect width="30" height="30" fill="white"/>
</clipPath>
</defs>
</svg>
