<svg width="51" height="51" viewBox="0 0 51 51" fill="none" xmlns="http://www.w3.org/2000/svg">
<path fill-rule="evenodd" clip-rule="evenodd" d="M24.5986 0.0598154C24.0734 0.233489 23.6263 0.610868 23.3736 1.0939C23.2223 1.38313 23.2121 1.43693 23.2121 1.94178C23.2121 2.4165 23.2281 2.51455 23.3461 2.76318C23.7248 3.56095 24.6162 4.04445 25.4331 3.89516C26.1034 3.77272 26.6447 3.36331 26.9296 2.76318C27.0476 2.51455 27.0636 2.4165 27.0636 1.94178C27.0636 1.43693 27.0533 1.38313 26.902 1.0939C26.7021 0.711694 26.3064 0.334623 25.9193 0.157305C25.5692 -0.00312383 24.9312 -0.0501999 24.5986 0.0598154ZM21.3673 4.40992C20.811 4.93006 20.3356 5.68811 20.1624 6.3311L20.1071 6.53645L19.1849 6.83621C18.1314 7.17863 17.0694 7.62552 16.1368 8.11871L15.4928 8.45939L15.0643 8.25933C14.8287 8.14926 14.4973 8.02369 14.3278 7.98015C13.9185 7.87512 13.2554 7.82332 12.8954 7.86829L12.6043 7.90464L12.6375 8.34999C12.6788 8.90494 12.5959 9.4756 12.3922 10.0385C11.7955 11.6868 10.1225 12.7711 8.36168 12.6506L7.89045 12.6184L7.8541 12.9092C7.77337 13.5552 7.92568 14.394 8.24552 15.0648L8.44441 15.4818L7.96897 16.4252C7.4294 17.4958 7.16194 18.1469 6.7849 19.3073L6.52197 20.1167L6.31655 20.1721C5.67216 20.3463 4.9149 20.8209 4.39473 21.3768C4.09005 21.7025 4.07572 21.7284 4.16605 21.7927C4.95264 22.3523 5.46906 23.0329 5.75258 23.8834C5.88266 24.2735 5.88718 24.3258 5.87054 25.2438C5.85355 26.1835 5.85067 26.2048 5.68844 26.5965C5.38823 27.3213 4.96384 27.892 4.41953 28.303L4.08876 28.5528L4.18295 28.6848C4.32129 28.8787 4.84387 29.3632 5.10973 29.5441C5.42859 29.761 5.79156 29.9376 6.2009 30.0748C6.53424 30.1865 6.54939 30.199 6.60054 30.4022C6.81546 31.2565 7.4523 32.8769 7.97503 33.8996L8.27381 34.4842L8.15267 34.6793C7.67466 35.4495 7.52409 35.916 7.4865 36.7432L7.45754 37.3798L7.68303 37.3414C9.01855 37.1139 10.0139 37.3139 10.9898 38.0058C12.1422 38.8229 12.8065 40.337 12.6153 41.7108C12.5806 41.9603 12.5382 42.2315 12.5209 42.3137L12.4897 42.4629L13.0492 42.4315C13.7414 42.3926 14.2395 42.2565 14.8328 41.9442L15.2863 41.7053L15.449 41.801C16.62 42.4898 18.7043 43.3715 19.8824 43.6764C20.0847 43.7288 20.1008 43.7472 20.1862 44.0261C20.2942 44.3787 20.5225 44.8508 20.7383 45.1676C20.9206 45.4352 21.4046 45.9562 21.601 46.0963L21.736 46.1925L21.8706 45.9892C22.33 45.2952 23.269 44.6591 24.1878 44.4194C24.6682 44.2941 25.5917 44.294 26.0879 44.4192C27.0393 44.6594 27.8922 45.2593 28.493 46.111C28.5566 46.2012 28.5831 46.1867 28.9084 45.8824C29.4637 45.3631 29.8257 44.7995 30.0681 44.0768C30.1797 43.7441 30.1926 43.7283 30.3957 43.676C31.3566 43.4286 32.9163 42.8073 34.0613 42.2162L34.7937 41.8379L35.2354 42.0449C35.7466 42.2844 36.4487 42.4451 36.9878 42.4461C37.4031 42.4469 37.4023 42.4479 37.307 42.0617C37.2142 41.6853 37.2412 40.7168 37.3569 40.2712C37.7095 38.9138 38.6671 37.8855 39.9897 37.4441C40.6446 37.2256 41.3684 37.1923 42.2341 37.3412L42.4606 37.3801L42.4288 36.8576C42.3884 36.1945 42.2805 35.7526 42.0315 35.2304L41.8341 34.8163L42.3087 33.87C42.8953 32.7004 43.4236 31.3571 43.6745 30.3969C43.7257 30.2011 43.7519 30.1748 43.9478 30.1225C44.5995 29.9485 45.3566 29.4759 45.8809 28.9155C46.1853 28.5903 46.1998 28.5638 46.1096 28.5002C45.2576 27.8996 44.6575 27.047 44.4173 26.0959C44.292 25.5999 44.2921 24.6767 44.4175 24.1964C44.6572 23.2779 45.2935 22.3393 45.9878 21.88L46.1912 21.7455L46.0949 21.6105C45.9547 21.414 45.4335 20.9302 45.1659 20.7482C44.8458 20.5304 44.4829 20.355 44.0747 20.2207C43.884 20.158 43.728 20.1001 43.728 20.092C43.728 20.0838 43.657 19.8373 43.5702 19.5442C43.2145 18.3437 42.5033 16.6886 41.9101 15.6809L41.6192 15.1868L41.8081 14.6349C41.9712 14.1586 42.0005 14.001 42.0221 13.4849C42.0358 13.1559 42.0317 12.8259 42.0131 12.7516L41.9791 12.6164L41.5312 12.6495C40.9941 12.6892 40.2949 12.5824 39.8132 12.387C39.5323 12.2731 39.3751 12.1431 38.5783 11.3654C37.7556 10.5624 37.6522 10.4421 37.5331 10.1491C37.3293 9.64774 37.2512 9.17929 37.261 8.5176L37.2698 7.9244L37.071 7.88051C36.5769 7.77137 35.5325 7.93529 34.8779 8.22467L34.5983 8.34829L34.0663 8.07549C32.9245 7.48999 31.3038 6.84566 30.3903 6.61397C30.194 6.56417 30.1682 6.53866 30.1158 6.3424C30.0346 6.03843 29.75 5.43507 29.5493 5.14137C29.3574 4.86071 28.8756 4.33938 28.6776 4.1982L28.5456 4.10405L28.2957 4.43471C27.8845 4.97894 27.2993 5.4096 26.5501 5.71932C26.205 5.86193 26.1523 5.86861 25.2355 5.88519C24.3171 5.90187 24.2649 5.89736 23.8746 5.76732C23.0238 5.48389 22.3431 4.96764 21.7833 4.18131C21.719 4.09101 21.693 4.10533 21.3673 4.40992ZM8.17136 6.71865C7.85487 6.79807 7.38364 7.07287 7.1829 7.29501C7.08137 7.40728 6.92592 7.65221 6.83744 7.83923C6.69426 8.14181 6.67655 8.23011 6.67655 8.64127C6.67655 9.05356 6.69406 9.14037 6.83929 9.44732C7.12774 10.0569 7.62393 10.4356 8.31649 10.5746C8.86151 10.6841 9.55556 10.467 9.98134 10.0539C10.9775 9.0875 10.7026 7.44897 9.44561 6.86095C9.08295 6.69129 8.5274 6.62927 8.17136 6.71865ZM40.6897 6.76023C40.1505 6.93832 39.7404 7.28941 39.4818 7.79421C39.3503 8.05095 39.3372 8.12549 39.3372 8.61643C39.3372 9.12246 39.3478 9.17764 39.5054 9.49794C40.1075 10.7217 41.6706 10.9808 42.6392 10.0175C42.7901 9.86731 42.973 9.61514 43.05 9.45076C43.1719 9.19073 43.1888 9.09196 43.1888 8.6402C43.1888 8.16276 43.1767 8.10116 43.0207 7.7843C42.5943 6.91861 41.5711 6.46905 40.6897 6.76023ZM19.7456 8.29193C18.3831 8.77968 16.7671 9.49645 16.7671 9.61308C16.7671 9.64481 16.9306 9.83188 17.1304 10.0288C17.6562 10.5469 17.7549 10.7973 17.6164 11.2618C17.5458 11.4983 17.3272 11.7289 14.4962 14.5526C11.5087 17.5326 11.4471 17.5902 11.1934 17.6428C10.9342 17.6966 10.668 17.6659 10.475 17.5599C10.4192 17.5293 10.2124 17.3409 10.0154 17.1412C9.81849 16.9416 9.63167 16.7782 9.60029 16.7782C9.56891 16.7782 9.40068 17.0744 9.22638 17.4364C8.86464 18.1878 8.7342 18.5032 8.42356 19.3776L8.20222 20.0004L8.83321 20.0214C9.42461 20.0411 9.47956 20.0519 9.70947 20.1943C9.86944 20.2934 9.99628 20.4248 10.0742 20.5724L10.1938 20.7987L10.1935 25.09C10.1933 27.876 10.1747 29.4482 10.1403 29.5719C10.1112 29.6765 10.0165 29.8332 9.92973 29.9199C9.65298 30.1965 9.50205 30.2453 8.84574 30.2699C8.51389 30.2823 8.24233 30.3114 8.24233 30.3346C8.24233 30.6272 9.34275 33.2574 9.46512 33.2574C9.48726 33.2574 9.59669 33.1631 9.70834 33.0477C10.095 32.6482 10.5697 32.5206 10.9654 32.7096C11.2225 32.8325 17.0755 38.6935 17.1894 38.9423C17.3812 39.3608 17.2846 39.7009 16.8365 40.1847C16.6499 40.3862 16.5059 40.5591 16.5166 40.5688C16.5874 40.6332 17.5001 41.096 17.9483 41.2949C18.5734 41.5722 19.6321 41.9749 19.8514 42.0187L20.0024 42.0489L20.0037 41.5676C20.0043 41.3029 20.0253 40.9982 20.0503 40.8904C20.1174 40.6019 20.3435 40.3087 20.5916 40.1886C20.8073 40.0842 20.8597 40.0831 25.1993 40.097L29.5888 40.1109L29.7936 40.2528C30.1447 40.4961 30.2394 40.7335 30.2644 41.4328C30.2795 41.8563 30.3043 42.0361 30.3476 42.0361C30.66 42.0361 33.5085 40.8193 33.5085 40.6859C33.5085 40.658 33.3277 40.4469 33.1066 40.2167C32.6391 39.7298 32.5534 39.5207 32.6436 39.0865C32.6964 38.8323 32.7525 38.7722 35.6835 35.8334C37.3259 34.1866 38.7505 32.798 38.8494 32.7477C39.3588 32.4884 39.6884 32.5847 40.2697 33.1628L40.695 33.5858L41.052 32.844C41.493 31.9276 42.0269 30.5695 42.032 30.3511C42.0329 30.3136 41.8226 30.2853 41.4216 30.2688C40.8788 30.2464 40.7838 30.2283 40.5787 30.1082C40.4516 30.0337 40.2936 29.8859 40.2276 29.7798L40.1075 29.5868L40.0936 25.2032C40.0797 20.85 40.0804 20.818 40.1867 20.5984C40.3998 20.1585 40.8502 19.9823 41.6636 20.0207C41.9817 20.0356 42.0335 20.0261 42.0334 19.9525C42.0333 19.8284 41.6758 18.8529 41.3688 18.1386C41.1481 17.6254 40.6387 16.6043 40.5638 16.5253C40.5523 16.5132 40.3179 16.7237 40.0428 16.9931C39.7677 17.2625 39.4623 17.524 39.3641 17.5742C39.0952 17.7119 38.7012 17.6946 38.4299 17.5334C38.0947 17.3341 32.4017 11.6126 32.3038 11.3766C32.1957 11.116 32.2041 10.7561 32.3236 10.5259C32.3779 10.4211 32.609 10.1511 32.8371 9.92588C33.0652 9.70067 33.2518 9.49696 33.2518 9.47314C33.2518 9.35429 30.6196 8.25625 30.3347 8.25625C30.3079 8.25625 30.2757 8.52766 30.2633 8.85946C30.2388 9.51252 30.1895 9.66683 29.9191 9.93718C29.8355 10.0206 29.6674 10.1164 29.5452 10.1499C29.3799 10.1953 28.2209 10.2072 25.005 10.1962L20.6869 10.1814L20.4821 10.0395C20.1309 9.7962 20.0362 9.55882 20.0113 8.85946C19.9887 8.2258 19.9803 8.20794 19.7456 8.29193ZM19.2425 15.0339C18.6826 15.1805 18.2825 15.4142 17.8412 15.8524C17.4063 16.2841 17.2306 16.5548 17.0312 17.1002L16.8955 17.4713L16.8811 24.9408C16.865 33.2529 16.8498 32.8538 17.2108 33.6077C17.4258 34.0566 17.953 34.6364 18.3803 34.8939C18.5386 34.9893 18.8239 35.1279 19.0143 35.2019L19.3605 35.3366L24.9067 35.353C28.9428 35.365 30.5509 35.3532 30.8125 35.3099C31.0233 35.275 31.3525 35.1643 31.6084 35.0425C32.2044 34.7587 32.792 34.1801 33.067 33.6066C33.424 32.8618 33.4097 33.2385 33.3942 24.9392L33.3802 17.4713L33.2426 17.0947C33.0447 16.5533 32.814 16.2 32.4041 15.8108C31.9786 15.4067 31.557 15.1706 31.0129 15.0315C30.6297 14.9335 30.4304 14.9302 25.1168 14.9329C19.8716 14.9356 19.5999 14.9403 19.2425 15.0339ZM20.4656 19.743C20.3673 19.7924 20.2324 19.9136 20.1658 20.0124C20.0638 20.1638 20.0481 20.2401 20.066 20.4967C20.0859 20.7802 20.1027 20.8148 20.3092 20.998L20.531 21.1948L25.1669 21.1812L29.8028 21.1675L29.9402 21.0392C30.3672 20.6403 30.3019 19.9901 29.81 19.743C29.6439 19.6596 29.3134 19.6532 25.1378 19.6532C20.9622 19.6532 20.6317 19.6596 20.4656 19.743ZM20.4785 22.8855C19.9291 23.1348 19.8965 23.9308 20.4225 24.2478C20.5896 24.3484 20.684 24.3504 25.1378 24.3504H29.6827L29.8624 24.2385C30.1021 24.0891 30.2305 23.8586 30.2305 23.5773C30.2305 23.2686 30.0897 23.041 29.8118 22.9002L29.5839 22.7846L25.1398 22.7858C20.8685 22.7869 20.6873 22.7908 20.4785 22.8855ZM1.25818 23.3115C1.10283 23.3774 0.93598 23.4538 0.887399 23.4813C0.661544 23.6093 0.321836 24.0028 0.168647 24.3138C0.0138142 24.6283 0 24.6963 0 25.1451C0 25.573 0.0180253 25.6729 0.14487 25.9473C0.328153 26.3437 0.725377 26.7391 1.12979 26.9277C1.40263 27.0549 1.49672 27.0713 1.95146 27.0713C2.39865 27.0713 2.50151 27.054 2.74744 26.9373C3.55678 26.5534 4.02791 25.6716 3.87544 24.8262C3.75835 24.1772 3.3412 23.634 2.74744 23.3575C2.33358 23.1647 1.65401 23.1437 1.25818 23.3115ZM47.7483 23.2669C47.0367 23.4988 46.5362 24.0787 46.4 24.8295C46.2474 25.6708 46.7201 26.5539 47.5282 26.9373C47.7769 27.0553 47.875 27.0713 48.3499 27.0713C48.8562 27.0713 48.9079 27.0614 49.1972 26.9088C49.5939 26.6995 49.9504 26.3307 50.1319 25.9419C50.2576 25.6725 50.2757 25.5727 50.2757 25.1462C50.2757 24.7245 50.257 24.6187 50.138 24.3649C49.9544 23.9733 49.5763 23.5795 49.198 23.3861C48.9327 23.2503 48.8238 23.2258 48.4269 23.2122C48.1329 23.2022 47.886 23.2221 47.7483 23.2669ZM20.5914 25.9707C20.2777 26.062 20.0452 26.3739 20.0452 26.7037C20.0452 26.986 20.1552 27.2065 20.374 27.3624L20.5416 27.482H25.1378H29.734L29.9017 27.3624C30.1226 27.2049 30.2219 27.0019 30.2219 26.7077C30.2219 26.3941 30.0746 26.1588 29.7929 26.0225C29.5757 25.9174 29.5234 25.9163 25.1601 25.9208C22.7329 25.9234 20.677 25.9458 20.5914 25.9707ZM20.4875 29.1483C20.4294 29.1719 20.3081 29.2751 20.2179 29.3779C20.0773 29.5379 20.0538 29.6039 20.0538 29.8377C20.0538 30.1658 20.1979 30.4148 20.4656 30.5493C20.6317 30.6327 20.9622 30.6391 25.1378 30.6391C30.156 30.6391 29.853 30.6609 30.1099 30.2799C30.275 30.0348 30.2521 29.5779 30.0646 29.3773C29.7914 29.085 30.0399 29.0988 25.1276 29.1023C22.6335 29.1041 20.5455 29.1248 20.4875 29.1483ZM7.98962 39.3967C7.46961 39.5852 6.99371 40.04 6.79646 40.5369C6.63567 40.9419 6.63695 41.581 6.79933 41.9974C6.9594 42.4078 7.34251 42.8126 7.77023 43.0231C8.08735 43.1791 8.14866 43.1911 8.62749 43.1911C9.10652 43.1911 9.16753 43.1792 9.48541 43.0227C10.939 42.3074 10.9567 40.2901 9.51607 39.5183C9.22361 39.3616 9.14529 39.3435 8.70452 39.3296C8.35326 39.3186 8.15308 39.3374 7.98962 39.3967ZM40.6108 39.4079C40.0948 39.5917 39.6879 39.9668 39.4538 40.4744C39.3561 40.6861 39.3372 40.8141 39.3372 41.266C39.3372 41.7539 39.351 41.8331 39.4827 42.1012C39.6743 42.4913 40.0349 42.8539 40.4157 43.0392C40.6964 43.1759 40.7718 43.1892 41.263 43.1894C41.7559 43.1895 41.8277 43.1768 42.0975 43.0408C42.4972 42.8395 42.8389 42.4903 43.0303 42.0874C43.1751 41.7825 43.1886 41.7094 43.1872 41.2403C43.1858 40.784 43.1695 40.6938 43.0411 40.4294C42.8575 40.0512 42.4812 39.674 42.103 39.489C41.7133 39.2984 41.0232 39.2609 40.6108 39.4079ZM24.727 46.4164C24.1207 46.5533 23.6105 46.9617 23.3487 47.5201C23.2279 47.7776 23.2121 47.8741 23.2121 48.3505C23.2121 48.8554 23.2223 48.9092 23.3736 49.1984C23.5725 49.5784 23.9669 49.9556 24.3563 50.1381C24.6102 50.257 24.716 50.2757 25.1378 50.2757C25.5647 50.2757 25.6649 50.2575 25.9392 50.1308C26.3358 49.9476 26.7313 49.5505 26.9199 49.1462C27.0473 48.8732 27.0636 48.7799 27.0632 48.3248C27.0629 47.7541 26.9808 47.5001 26.67 47.1077C26.226 46.5473 25.4191 46.2602 24.727 46.4164Z" fill="url(#paint0_linear_3934_358)"/>
<defs>
<linearGradient id="paint0_linear_3934_358" x1="25.1378" y1="0" x2="25.1378" y2="50.2757" gradientUnits="userSpaceOnUse">
<stop stop-color="#005B94"/>
<stop offset="1" stop-color="#128940"/>
</linearGradient>
</defs>
</svg>
