<svg width="21" height="21" viewBox="0 0 21 21" fill="none" xmlns="http://www.w3.org/2000/svg">
<circle cx="10.5" cy="10.5" r="10.5" fill="#005B94"/>
<circle cx="10.5" cy="10.5" r="7.5" fill="#E8F0CD"/>
<path fill-rule="evenodd" clip-rule="evenodd" d="M9.72578 5.01575C8.8461 5.12511 8.02463 5.49843 7.39165 6.07645C6.99532 6.43839 6.6956 6.83315 6.45553 7.30935C5.86615 8.47857 5.84786 9.83256 6.40548 11.013C6.61562 11.4578 6.85528 11.8057 7.18122 12.1389L7.36258 12.3243L6.83946 13.5524C6.52806 14.2835 6.31634 14.8095 6.31634 14.8522C6.31634 14.9513 6.38594 15.0158 6.49249 15.0155C6.53936 15.0154 6.86378 14.9588 7.21341 14.8897C7.56301 14.8207 7.8554 14.7717 7.86316 14.781C7.87088 14.7902 8.0294 15.0404 8.21542 15.3369C8.40142 15.6333 8.5813 15.9043 8.61517 15.939C8.68626 16.0118 8.76714 16.0198 8.8391 15.961C8.87112 15.9348 9.08064 15.4711 9.41691 14.6822L9.94448 13.4445H10.1807H10.4169L10.9427 14.681C11.2884 15.494 11.4862 15.932 11.5202 15.9598C11.5895 16.0164 11.6658 16.0131 11.7351 15.9505C11.7665 15.9221 11.9523 15.646 12.148 15.3369C12.3436 15.0278 12.5057 14.7727 12.508 14.7699C12.5104 14.7672 12.801 14.8214 13.1538 14.8904C13.5066 14.9593 13.8309 15.0157 13.8744 15.0157C13.9741 15.0157 14.0444 14.9485 14.0444 14.8532C14.0444 14.8118 13.8274 14.2716 13.5222 13.5531L13 12.3238L13.1988 12.1157C13.4311 11.8726 13.568 11.6968 13.7305 11.4331C14.6582 9.92698 14.553 8.01582 13.4648 6.60891C12.8436 5.80578 11.9007 5.23288 10.9129 5.05843C10.6076 5.00451 9.99365 4.98242 9.72578 5.01575ZM10.5781 5.3822C11.1453 5.44606 11.6694 5.62129 12.1272 5.90001C13.1185 6.50358 13.7634 7.46861 13.9576 8.63893C13.9734 8.73355 13.9862 8.99161 13.9862 9.21239C13.9862 9.88746 13.8719 10.3735 13.5737 10.9669C12.8837 12.3397 11.3791 13.1865 9.87757 13.0471C9.50287 13.0123 9.30765 12.9719 8.97332 12.8599C8.18367 12.5955 7.4945 12.0694 7.02777 11.3748C6.70117 10.8887 6.50211 10.3823 6.4031 9.78584C6.36568 9.56038 6.36662 8.86102 6.40464 8.62747C6.60828 7.37702 7.37295 6.32602 8.48702 5.76539C9.13629 5.43866 9.87591 5.30311 10.5781 5.3822ZM9.78454 6.48521C9.34788 6.54946 8.91517 6.73356 8.53643 7.01618L8.38128 7.13195L8.55209 7.30625C8.64603 7.40213 8.72977 7.50903 8.73815 7.5438C8.76625 7.66023 8.64135 7.78545 8.52625 7.7563C8.49388 7.74809 8.38871 7.66409 8.29252 7.56963L8.11761 7.39787L8.01113 7.54086C7.72087 7.93051 7.51787 8.43644 7.467 8.89699L7.45243 9.02888H7.69957C7.91521 9.02888 7.95437 9.03494 8.00663 9.07643C8.05283 9.11309 8.06652 9.14419 8.06652 9.21239C8.06652 9.28058 8.05283 9.31169 8.00663 9.34834C7.95439 9.38981 7.91521 9.39589 7.69978 9.39589C7.56394 9.39589 7.45286 9.40365 7.45291 9.4131C7.45295 9.42255 7.46821 9.52496 7.48682 9.64069C7.55608 10.0716 7.72851 10.4905 7.97912 10.8367L8.1172 11.0275L8.30502 10.8425C8.5207 10.63 8.57268 10.6142 8.68463 10.7272C8.78811 10.8317 8.76379 10.9044 8.55425 11.1172L8.38391 11.2901L8.53775 11.408C8.91551 11.6976 9.37204 11.8797 9.90193 11.9523L9.99853 11.9655V11.716C9.99853 11.4983 10.0045 11.4588 10.0457 11.4061C10.1122 11.3207 10.2486 11.3207 10.3151 11.4061C10.3562 11.4588 10.3622 11.4983 10.3622 11.716V11.9655L10.4588 11.9518C11.0029 11.8747 11.4217 11.71 11.8014 11.4238L11.9777 11.291L11.8069 11.1176C11.5969 10.9044 11.5726 10.8317 11.6761 10.7272C11.7881 10.6142 11.84 10.63 12.0557 10.8425L12.2435 11.0275L12.3735 10.8482C12.6257 10.5006 12.8054 10.0669 12.8739 9.64069C12.8925 9.52496 12.9078 9.42255 12.9078 9.4131C12.9079 9.40365 12.7968 9.39589 12.661 9.39589C12.4455 9.39589 12.4064 9.38981 12.3541 9.34834C12.3079 9.31169 12.2942 9.28058 12.2942 9.21239C12.2942 9.14419 12.3079 9.11309 12.3541 9.07643C12.4064 9.03496 12.4455 9.02888 12.661 9.02888C12.7968 9.02888 12.9079 9.02113 12.9078 9.01168C12.9078 9.00223 12.8927 8.90098 12.8744 8.7867C12.7993 8.32003 12.6293 7.91636 12.3496 7.54086L12.2431 7.39787L12.0682 7.56963C11.972 7.66409 11.8669 7.74809 11.8345 7.7563C11.7194 7.78545 11.5945 7.66023 11.6226 7.5438C11.631 7.50903 11.7147 7.40213 11.8087 7.30625L11.9795 7.13195L11.8243 7.01618C11.4275 6.72009 10.9496 6.52551 10.4929 6.47413L10.3622 6.45942V6.70883C10.3622 6.92644 10.3562 6.96597 10.3151 7.0187C10.2788 7.06533 10.2479 7.07914 10.1804 7.07914C10.1128 7.07914 10.082 7.06533 10.0457 7.0187C10.0046 6.96599 9.99853 6.92644 9.99853 6.70904C9.99853 6.42782 10.0202 6.4505 9.78454 6.48521ZM9.84202 7.92808C9.90934 7.94084 10.013 7.97538 10.0724 8.00486L10.1804 8.05846L10.2891 8.00417C10.7329 7.78252 11.2664 7.97366 11.4846 8.43249C11.5494 8.56884 11.5555 8.60125 11.5555 8.81145C11.5555 9.0265 11.5505 9.05152 11.4783 9.19966C11.4117 9.33614 11.3261 9.43468 10.8579 9.91361C10.5592 10.2192 10.2846 10.4819 10.2476 10.4973C10.1947 10.5194 10.1661 10.5195 10.1136 10.4975C10.077 10.4822 9.80263 10.2202 9.50405 9.91535C9.03346 9.43482 8.95081 9.33976 8.88322 9.20117C8.81012 9.05134 8.80523 9.02691 8.80523 8.81145C8.80523 8.60226 8.81153 8.56817 8.87528 8.43242C8.99541 8.17662 9.23741 7.98183 9.49951 7.92996C9.64145 7.90189 9.70184 7.90157 9.84202 7.92808ZM9.51273 8.3056C9.21914 8.41123 9.06994 8.76379 9.20248 9.03884C9.22955 9.09506 9.43275 9.31887 9.71389 9.60213L10.1804 10.0721L10.6373 9.6136C11.1384 9.11075 11.2026 9.01955 11.203 8.80934C11.2033 8.64176 11.1097 8.46518 10.9708 8.37152C10.7728 8.238 10.58 8.24346 10.3645 8.38873C10.2913 8.43802 10.2071 8.47837 10.1774 8.47837C10.1477 8.47837 10.073 8.44222 10.0114 8.39802C9.83575 8.27197 9.68427 8.24389 9.51273 8.3056ZM7.86918 12.7238C8.11748 12.8898 8.5475 13.1056 8.81839 13.2002C8.92563 13.2377 9.13531 13.296 9.28435 13.3297C9.43336 13.3634 9.55763 13.3933 9.56047 13.3962C9.57231 13.4081 8.71318 15.4053 8.69847 15.4C8.68963 15.3968 8.54529 15.1774 8.37773 14.9125C8.17953 14.5991 8.05243 14.4205 8.01399 14.4014C7.96269 14.3758 7.87925 14.3867 7.37997 14.4843C7.06376 14.5461 6.80271 14.5948 6.79986 14.5926C6.79289 14.5872 7.64382 12.5843 7.65311 12.5843C7.65716 12.5843 7.75439 12.6471 7.86918 12.7238ZM13.1355 13.5733C13.3666 14.1173 13.5586 14.5699 13.5621 14.579C13.5656 14.5882 13.3067 14.5455 12.9867 14.484C12.4839 14.3875 12.397 14.3764 12.3463 14.4016C12.3084 14.4205 12.1798 14.6014 11.983 14.9125C11.8154 15.1774 11.671 15.3968 11.6621 15.4C11.6507 15.4041 10.887 13.6438 10.7983 13.4087C10.7944 13.3983 10.8302 13.3829 10.8779 13.3746C11.4273 13.2786 12.0205 13.0387 12.49 12.7225C12.6011 12.6476 12.6972 12.5859 12.7037 12.5854C12.7101 12.5848 12.9044 13.0294 13.1355 13.5733Z" fill="#128940"/>
</svg>
