<svg width="27" height="35" viewBox="0 0 27 35" fill="none" xmlns="http://www.w3.org/2000/svg">
<path fill-rule="evenodd" clip-rule="evenodd" d="M12.033 0.0500985C9.19194 0.39809 6.53887 1.58592 4.49457 3.42507C3.21454 4.57669 2.24657 5.83276 1.47122 7.34793C-0.432275 11.0682 -0.491369 15.3763 1.30957 19.1324C1.98824 20.5477 2.76227 21.6544 3.81495 22.7147L4.40068 23.3046L2.71117 27.2122C1.70547 29.5383 1.02166 31.2122 1.02166 31.3481C1.02166 31.6631 1.24644 31.8684 1.59058 31.8676C1.74195 31.8672 2.78972 31.6871 3.9189 31.4673C5.048 31.2476 5.99234 31.0919 6.01737 31.1214C6.04233 31.1508 6.55428 31.9467 7.15506 32.89C7.75577 33.8333 8.33673 34.6955 8.44611 34.8059C8.67573 35.0377 8.93692 35.063 9.16933 34.8759C9.27277 34.7926 9.94945 33.3172 11.0355 30.807L12.7394 26.8688H13.5022H14.2652L15.9633 30.8032C17.0797 33.39 17.7185 34.7837 17.8284 34.8721C18.0521 35.0522 18.2986 35.0417 18.5225 34.8424C18.6238 34.7521 19.2239 33.8735 19.8559 32.89C20.4878 31.9065 21.0112 31.0948 21.0188 31.0862C21.0264 31.0776 21.965 31.25 23.1045 31.4694C24.2439 31.6888 25.2912 31.8682 25.4317 31.8682C25.7538 31.8682 25.9807 31.6544 25.9807 31.351C25.9807 31.2193 25.28 29.5005 24.2942 27.2143L22.6077 23.3029L23.2498 22.6409C24 21.8673 24.4421 21.3081 24.9668 20.4689C27.9631 15.6767 27.6233 9.59579 24.1088 5.11926C22.1026 2.56384 19.0573 0.740974 15.8672 0.185923C14.8808 0.0143359 12.8981 -0.0559486 12.033 0.0500985ZM14.7859 1.21611C16.6175 1.4193 18.3103 1.97683 19.7888 2.86367C22.9903 4.78412 25.0733 7.85467 25.7005 11.5784C25.7513 11.8795 25.7927 12.7006 25.7927 13.403C25.7927 15.551 25.4236 17.0976 24.4605 18.9854C22.2321 23.3534 17.3727 26.0479 12.5232 25.6044C11.3131 25.4937 10.6826 25.3651 9.60281 25.0089C7.05251 24.1674 4.82675 22.4935 3.31937 20.2834C2.26455 18.7368 1.62164 17.1256 1.30187 15.2277C1.18104 14.5103 1.18405 12.2851 1.30686 11.5419C1.96453 7.56324 4.43416 4.21914 8.03223 2.43532C10.1292 1.39572 12.5179 0.964453 14.7859 1.21611ZM12.2228 4.72566C10.8125 4.93009 9.41503 5.51586 8.19182 6.41511L7.69073 6.78347L8.2424 7.33808C8.5458 7.64315 8.81624 7.98326 8.84332 8.09391C8.93406 8.46438 8.53067 8.86281 8.15893 8.77004C8.0544 8.74391 7.71473 8.47664 7.40407 8.17609L6.83918 7.62958L6.49526 8.08457C5.55783 9.32436 4.90221 10.9341 4.73792 12.3995L4.69087 12.8192H5.48904C6.18548 12.8192 6.31196 12.8384 6.48073 12.9705C6.62997 13.0871 6.67416 13.1861 6.67416 13.403C6.67416 13.62 6.62997 13.719 6.48073 13.8356C6.31203 13.9676 6.18548 13.9869 5.48971 13.9869C5.05101 13.9869 4.69226 14.0116 4.69241 14.0417C4.69256 14.0717 4.74181 14.3976 4.80194 14.7658C5.02561 16.137 5.58249 17.4699 6.3919 18.5715L6.83786 19.1783L7.44444 18.5897C8.14102 17.9137 8.30891 17.8635 8.67045 18.223C9.00468 18.5553 8.92613 18.7868 8.24937 19.4637L7.69924 20.0141L8.19608 20.3892C9.41613 21.3105 10.8906 21.8901 12.6019 22.1209L12.9139 22.163V21.3691C12.9139 20.6765 12.9333 20.5508 13.0661 20.383C13.281 20.1113 13.7214 20.1113 13.9363 20.383C14.0691 20.5508 14.0885 20.6765 14.0885 21.3691V22.163L14.4005 22.1194C16.1577 21.8741 17.5104 21.35 18.7367 20.4394L19.3059 20.0167L18.7543 19.4651C18.0762 18.7867 17.9976 18.5554 18.332 18.223C18.6935 17.8635 18.8614 17.9137 19.5579 18.5896L20.1645 19.1783L20.5844 18.6079C21.3988 17.5019 21.9793 16.1218 22.2005 14.7658C22.2606 14.3976 22.3098 14.0717 22.31 14.0417C22.3101 14.0116 21.9514 13.9869 21.5127 13.9869C20.8169 13.9869 20.6904 13.9676 20.5217 13.8356C20.3724 13.719 20.3282 13.62 20.3282 13.403C20.3282 13.1861 20.3724 13.0871 20.5217 12.9705C20.6904 12.8385 20.8169 12.8192 21.5127 12.8192C21.9514 12.8192 22.3101 12.7945 22.31 12.7644C22.3098 12.7344 22.2612 12.4122 22.2019 12.0486C21.9596 10.5637 21.4105 9.27933 20.5071 8.08457L20.1632 7.62958L19.5983 8.17609C19.2877 8.47664 18.948 8.74391 18.8435 8.77004C18.4717 8.86281 18.0683 8.46438 18.1591 8.09391C18.1862 7.98326 18.4566 7.64315 18.76 7.33808L19.3117 6.78347L18.8106 6.41511C17.5291 5.47302 15.9855 4.85389 14.5106 4.6904L14.0885 4.64362V5.43719C14.0885 6.12959 14.0691 6.25535 13.9363 6.42314C13.819 6.57152 13.7194 6.61545 13.5012 6.61545C13.283 6.61545 13.1834 6.57152 13.0661 6.42314C12.9334 6.25542 12.9139 6.12959 12.9139 5.43784C12.9139 4.54305 12.984 4.61523 12.2228 4.72566ZM12.4084 9.31663C12.6259 9.3572 12.9607 9.46712 13.1525 9.56091L13.5012 9.73147L13.8524 9.55872C15.2857 8.85346 17.0086 9.46165 17.7134 10.9216C17.9228 11.3554 17.9424 11.4585 17.9424 12.1273C17.9424 12.8116 17.9264 12.8912 17.693 13.3625C17.4779 13.7968 17.2015 14.1103 15.6894 15.6342C14.7247 16.6066 13.8377 17.4423 13.7183 17.4915C13.5476 17.5618 13.4552 17.5619 13.2857 17.4922C13.1672 17.4433 12.2812 16.6097 11.3169 15.6397C9.79705 14.1108 9.53014 13.8083 9.31182 13.3674C9.07574 12.8906 9.05995 12.8129 9.05995 12.1273C9.05995 11.4617 9.08029 11.3533 9.2862 10.9213C9.67417 10.1074 10.4558 9.48763 11.3022 9.32261C11.7607 9.23328 11.9557 9.23225 12.4084 9.31663ZM11.345 10.5178C10.3967 10.8539 9.91487 11.9757 10.3429 12.8508C10.4304 13.0297 11.0866 13.7418 11.9946 14.6431L13.5012 16.1386L14.977 14.6796C16.5955 13.0797 16.8026 12.7895 16.8039 12.1206C16.8049 11.5874 16.5025 11.0256 16.054 10.7276C15.4145 10.3027 14.792 10.3201 14.0958 10.7823C13.8595 10.9392 13.5877 11.0675 13.4917 11.0675C13.3957 11.0675 13.1545 10.9525 12.9555 10.8119C12.3882 10.4108 11.899 10.3215 11.345 10.5178ZM6.03682 24.5757C6.83874 25.1038 8.22757 25.7906 9.10246 26.0917C9.4488 26.211 10.126 26.3963 10.6073 26.5035C11.0886 26.6108 11.4899 26.706 11.4991 26.7151C11.5374 26.7529 8.76265 33.1077 8.71515 33.0909C8.68659 33.0807 8.22045 32.3828 7.67928 31.5398C7.03915 30.5428 6.62865 29.9744 6.50451 29.9135C6.33883 29.8322 6.06934 29.8669 4.45684 30.1773C3.43557 30.3739 2.59247 30.529 2.58329 30.522C2.56076 30.5047 5.30897 24.1318 5.339 24.1318C5.35206 24.1318 5.66611 24.3316 6.03682 24.5757ZM23.0453 27.2788C23.7918 29.0096 24.4118 30.4495 24.4231 30.4787C24.4344 30.5079 23.5982 30.3719 22.5648 30.1765C20.9408 29.8695 20.66 29.8338 20.4964 29.9142C20.3741 29.9742 19.9586 30.55 19.3231 31.5398C18.782 32.3828 18.3156 33.0808 18.2868 33.091C18.2497 33.1041 15.7834 27.5029 15.4969 26.7549C15.4842 26.7218 15.5998 26.673 15.7538 26.6465C17.5284 26.3411 19.4442 25.5776 20.9605 24.5715C21.3193 24.3334 21.6299 24.1371 21.6506 24.1353C21.6713 24.1334 22.2989 25.548 23.0453 27.2788Z" fill="white"/>
</svg>
